<?xml version="1.0" encoding="UTF-8" standalone="no"?><svg xmlns="http://www.w3.org/2000/svg" xmlns:xlink="http://www.w3.org/1999/xlink" clip-rule="evenodd" stroke-miterlimit="4.00" viewBox="0 0 1024 768"><desc>SVG generated by Keynote</desc><defs></defs><g transform="matrix(1.00, 0.00, -0.00, -1.00, 0.0, 768.0)"><path d="M 0.0 768.0 L 1024.0 768.0 L 1024.0 0.0 L 0.0 0.0 Z M 0.0 768.0 " fill="#F3F3F3"></path><path d="M 35.5 734.0 L 988.5 734.0 L 988.5 34.0 L 35.5 34.0 Z M 35.5 734.0 " fill="#FEFFFE"></path><path d="M 35.3 639.7 L 988.7 639.7 L 988.7 128.3 L 35.3 128.3 Z M 35.3 639.7 " fill="#FEFFFF"></path><image xlink:href="../../ED0D117D-8D71-45FF-8897-341319F9B4CD/assets/ACCA4BD0FFC76EE315F817A6A9B02841.png" width="242.00" height="379.00" transform="matrix(0.42, 0.00, -0.00, -0.42, 872.0, 763.0)"></image><text xml:space="preserve" font-family="HelveticaNeue-Light" font-size="16.0" fill="#A6AAA8" transform="matrix(1.00, 0.00, -0.00, -1.00, 924.7, 12.7)">S</text><text xml:space="preserve" font-family="HelveticaNeue-Light" font-size="16.0" fill="#A6AAA8" transform="matrix(1.00, 0.00, -0.00, -1.00, 934.8, 12.7)">l</text><text xml:space="preserve" font-family="HelveticaNeue-Light" font-size="16.0" fill="#A6AAA8" transform="matrix(1.00, 0.00, -0.00, -1.00, 937.8, 12.7)">i</text><text xml:space="preserve" font-family="HelveticaNeue-Light" font-size="16.0" fill="#A6AAA8" transform="matrix(1.00, 0.00, -0.00, -1.00, 940.7, 12.7)">d</text><text xml:space="preserve" font-family="HelveticaNeue-Light" font-size="16.0" fill="#A6AAA8" transform="matrix(1.00, 0.00, -0.00, -1.00, 949.9, 12.7)">e</text><text xml:space="preserve" font-family="HelveticaNeue-Light" font-size="16.0" fill="#A6AAA8" transform="matrix(1.00, 0.00, -0.00, -1.00, 958.2, 12.7)"> </text><text xml:space="preserve" font-family="HelveticaNeue-Light" font-size="16.0" fill="#A6AAA8" transform="matrix(1.00, 0.00, -0.00, -1.00, 962.6, 12.7)">#</text><text xml:space="preserve" font-family="HelveticaNeue-Light" font-size="16.0" fill="#A6AAA8" transform="matrix(1.00, 0.00, -0.00, -1.00, 32.0, 13.0)">B</text><text xml:space="preserve" font-family="HelveticaNeue-Light" font-size="16.0" fill="#A6AAA8" transform="matrix(1.00, 0.00, -0.00, -1.00, 42.7, 13.0)">i</text><text xml:space="preserve" font-family="HelveticaNeue-Light" font-size="16.0" fill="#A6AAA8" transform="matrix(1.00, 0.00, -0.00, -1.00, 45.6, 13.0)">b</text><text xml:space="preserve" font-family="HelveticaNeue-Light" font-size="16.0" fill="#A6AAA8" transform="matrix(1.00, 0.00, -0.00, -1.00, 54.8, 13.0)">l</text><text xml:space="preserve" font-family="HelveticaNeue-Light" font-size="16.0" fill="#A6AAA8" transform="matrix(1.00, 0.00, -0.00, -1.00, 57.8, 13.0)">i</text><text xml:space="preserve" font-family="HelveticaNeue-Light" font-size="16.0" fill="#A6AAA8" transform="matrix(1.00, 0.00, -0.00, -1.00, 60.7, 13.0)">o</text><text xml:space="preserve" font-family="HelveticaNeue-Light" font-size="16.0" fill="#A6AAA8" transform="matrix(1.00, 0.00, -0.00, -1.00, 69.6, 13.0)">g</text><text xml:space="preserve" font-family="HelveticaNeue-Light" font-size="16.0" fill="#A6AAA8" transform="matrix(1.00, 0.00, -0.00, -1.00, 78.5, 13.0)">r</text><text xml:space="preserve" font-family="HelveticaNeue-Light" font-size="16.0" fill="#A6AAA8" transform="matrix(1.00, 0.00, -0.00, -1.00, 83.6, 13.0)">a</text><text xml:space="preserve" font-family="HelveticaNeue-Light" font-size="16.0" fill="#A6AAA8" transform="matrix(1.00, 0.00, -0.00, -1.00, 91.9, 13.0)">p</text><text xml:space="preserve" font-family="HelveticaNeue-Light" font-size="16.0" fill="#A6AAA8" transform="matrix(1.00, 0.00, -0.00, -1.00, 101.1, 13.0)">h</text><text xml:space="preserve" font-family="HelveticaNeue-Light" font-size="16.0" fill="#A6AAA8" transform="matrix(1.00, 0.00, -0.00, -1.00, 109.6, 13.0)">y</text><text xml:space="preserve" font-family="HelveticaNeue-Light" font-size="16.0" fill="#A6AAA8" transform="matrix(1.00, 0.00, -0.00, -1.00, 117.1, 13.0)"> </text><text xml:space="preserve" font-family="HelveticaNeue-Light" font-size="16.0" fill="#A6AAA8" transform="matrix(1.00, 0.00, -0.00, -1.00, 121.5, 13.0)">&amp;</text><text xml:space="preserve" font-family="HelveticaNeue-Light" font-size="16.0" fill="#A6AAA8" transform="matrix(1.00, 0.00, -0.00, -1.00, 131.3, 13.0)"> </text><text xml:space="preserve" font-family="HelveticaNeue-Light" font-size="16.0" fill="#A6AAA8" transform="matrix(1.00, 0.00, -0.00, -1.00, 135.7, 13.0)">R</text><text xml:space="preserve" font-family="HelveticaNeue-Light" font-size="16.0" fill="#A6AAA8" transform="matrix(1.00, 0.00, -0.00, -1.00, 146.4, 13.0)">e</text><text xml:space="preserve" font-family="HelveticaNeue-Light" font-size="16.0" fill="#A6AAA8" transform="matrix(1.00, 0.00, -0.00, -1.00, 154.7, 13.0)">f</text><text xml:space="preserve" font-family="HelveticaNeue-Light" font-size="16.0" fill="#A6AAA8" transform="matrix(1.00, 0.00, -0.00, -1.00, 158.8, 13.0)">e</text><text xml:space="preserve" font-family="HelveticaNeue-Light" font-size="16.0" fill="#A6AAA8" transform="matrix(1.00, 0.00, -0.00, -1.00, 167.2, 13.0)">r</text><text xml:space="preserve" font-family="HelveticaNeue-Light" font-size="16.0" fill="#A6AAA8" transform="matrix(1.00, 0.00, -0.00, -1.00, 171.9, 13.0)">e</text><text xml:space="preserve" font-family="HelveticaNeue-Light" font-size="16.0" fill="#A6AAA8" transform="matrix(1.00, 0.00, -0.00, -1.00, 180.2, 13.0)">n</text><text xml:space="preserve" font-family="HelveticaNeue-Light" font-size="16.0" fill="#A6AAA8" transform="matrix(1.00, 0.00, -0.00, -1.00, 188.8, 13.0)">c</text><text xml:space="preserve" font-family="HelveticaNeue-Light" font-size="16.0" fill="#A6AAA8" transform="matrix(1.00, 0.00, -0.00, -1.00, 197.1, 13.0)">e</text><text xml:space="preserve" font-family="HelveticaNeue-Light" font-size="16.0" fill="#A6AAA8" transform="matrix(1.00, 0.00, -0.00, -1.00, 205.4, 13.0)"> </text><text xml:space="preserve" font-family="HelveticaNeue-Light" font-size="16.0" fill="#A6AAA8" transform="matrix(1.00, 0.00, -0.00, -1.00, 209.9, 13.0)">M</text><text xml:space="preserve" font-family="HelveticaNeue-Light" font-size="16.0" fill="#A6AAA8" transform="matrix(1.00, 0.00, -0.00, -1.00, 223.0, 13.0)">a</text><text xml:space="preserve" font-family="HelveticaNeue-Light" font-size="16.0" fill="#A6AAA8" transform="matrix(1.00, 0.00, -0.00, -1.00, 231.3, 13.0)">n</text><text xml:space="preserve" font-family="HelveticaNeue-Light" font-size="16.0" fill="#A6AAA8" transform="matrix(1.00, 0.00, -0.00, -1.00, 239.9, 13.0)">a</text><text xml:space="preserve" font-family="HelveticaNeue-Light" font-size="16.0" fill="#A6AAA8" transform="matrix(1.00, 0.00, -0.00, -1.00, 248.2, 13.0)">g</text><text xml:space="preserve" font-family="HelveticaNeue-Light" font-size="16.0" fill="#A6AAA8" transform="matrix(1.00, 0.00, -0.00, -1.00, 257.1, 13.0)">e</text><text xml:space="preserve" font-family="HelveticaNeue-Light" font-size="16.0" fill="#A6AAA8" transform="matrix(1.00, 0.00, -0.00, -1.00, 265.4, 13.0)">m</text><text xml:space="preserve" font-family="HelveticaNeue-Light" font-size="16.0" fill="#A6AAA8" transform="matrix(1.00, 0.00, -0.00, -1.00, 278.7, 13.0)">e</text><text xml:space="preserve" font-family="HelveticaNeue-Light" font-size="16.0" fill="#A6AAA8" transform="matrix(1.00, 0.00, -0.00, -1.00, 287.0, 13.0)">n</text><text xml:space="preserve" font-family="HelveticaNeue-Light" font-size="16.0" fill="#A6AAA8" transform="matrix(1.00, 0.00, -0.00, -1.00, 295.6, 13.0)">t</text><text xml:space="preserve" font-family="HelveticaNeue-Light" font-size="16.0" fill="#A6AAA8" transform="matrix(1.00, 0.00, -0.00, -1.00, 980.0, 13.0)">1</text><text xml:space="preserve" font-family="HelveticaNeue-Light" font-size="16.0" fill="#A6AAA8" transform="matrix(1.00, 0.00, -0.00, -1.00, 988.9, 13.0)">6</text><text xml:space="preserve" font-family="GillSans-SemiBold" font-weight="bold" font-size="40.0" fill="#053199" transform="matrix(1.00, 0.00, -0.00, -1.00, 333.0, 674.0)">h</text><text xml:space="preserve" font-family="GillSans-SemiBold" font-weight="bold" font-size="40.0" fill="#053199" transform="matrix(1.00, 0.00, -0.00, -1.00, 354.6, 674.0)">t</text><text xml:space="preserve" font-family="GillSans-SemiBold" font-weight="bold" font-size="40.0" fill="#053199" transform="matrix(1.00, 0.00, -0.00, -1.00, 369.4, 674.0)">t</text><text xml:space="preserve" font-family="GillSans-SemiBold" font-weight="bold" font-size="40.0" fill="#053199" transform="matrix(1.00, 0.00, -0.00, -1.00, 384.2, 674.0)">p</text><text xml:space="preserve" font-family="GillSans-SemiBold" font-weight="bold" font-size="40.0" fill="#053199" transform="matrix(1.00, 0.00, -0.00, -1.00, 406.1, 674.0)">:</text><text xml:space="preserve" font-family="GillSans-SemiBold" font-weight="bold" font-size="40.0" fill="#053199" transform="matrix(1.00, 0.00, -0.00, -1.00, 415.9, 674.0)">/</text><text xml:space="preserve" font-family="GillSans-SemiBold" font-weight="bold" font-size="40.0" fill="#053199" transform="matrix(1.00, 0.00, -0.00, -1.00, 427.2, 674.0)">/</text><text xml:space="preserve" font-family="GillSans-SemiBold" font-weight="bold" font-size="40.0" fill="#053199" transform="matrix(1.00, 0.00, -0.00, -1.00, 438.4, 674.0)">u</text><text xml:space="preserve" font-family="GillSans-SemiBold" font-weight="bold" font-size="40.0" fill="#053199" transform="matrix(1.00, 0.00, -0.00, -1.00, 460.0, 674.0)">n</text><text xml:space="preserve" font-family="GillSans-SemiBold" font-weight="bold" font-size="40.0" fill="#053199" transform="matrix(1.00, 0.00, -0.00, -1.00, 481.6, 674.0)">p</text><text xml:space="preserve" font-family="GillSans-SemiBold" font-weight="bold" font-size="40.0" fill="#053199" transform="matrix(1.00, 0.00, -0.00, -1.00, 503.5, 674.0)">a</text><text xml:space="preserve" font-family="GillSans-SemiBold" font-weight="bold" font-size="40.0" fill="#053199" transform="matrix(1.00, 0.00, -0.00, -1.00, 522.8, 674.0)">y</text><text xml:space="preserve" font-family="GillSans-SemiBold" font-weight="bold" font-size="40.0" fill="#053199" transform="matrix(1.00, 0.00, -0.00, -1.00, 542.0, 674.0)">w</text><text xml:space="preserve" font-family="GillSans-SemiBold" font-weight="bold" font-size="40.0" fill="#053199" transform="matrix(1.00, 0.00, -0.00, -1.00, 572.2, 674.0)">a</text><text xml:space="preserve" font-family="GillSans-SemiBold" font-weight="bold" font-size="40.0" fill="#053199" transform="matrix(1.00, 0.00, -0.00, -1.00, 591.5, 674.0)">l</text><text xml:space="preserve" font-family="GillSans-SemiBold" font-weight="bold" font-size="40.0" fill="#053199" transform="matrix(1.00, 0.00, -0.00, -1.00, 601.4, 674.0)">l</text><text xml:space="preserve" font-family="GillSans-SemiBold" font-weight="bold" font-size="40.0" fill="#053199" transform="matrix(1.00, 0.00, -0.00, -1.00, 611.3, 674.0)">.</text><text xml:space="preserve" font-family="GillSans-SemiBold" font-weight="bold" font-size="40.0" fill="#053199" transform="matrix(1.00, 0.00, -0.00, -1.00, 621.2, 674.0)">o</text><text xml:space="preserve" font-family="GillSans-SemiBold" font-weight="bold" font-size="40.0" fill="#053199" transform="matrix(1.00, 0.00, -0.00, -1.00, 644.1, 674.0)">r</text><text xml:space="preserve" font-family="GillSans-SemiBold" font-weight="bold" font-size="40.0" fill="#053199" transform="matrix(1.00, 0.00, -0.00, -1.00, 660.8, 674.0)">g</text><text xml:space="preserve" font-family="GillSans-SemiBold" font-weight="bold" font-size="40.0" fill="#053199" transform="matrix(1.00, 0.00, -0.00, -1.00, 680.4, 674.0)">/</text><g><clipPath id="clip-331"><path d="M 331.7 669.2 L 691.3 669.2 L 691.3 673.2 L 331.7 673.2 Z M 331.7 669.2 "></path></clipPath><g clip-path="url(#clip-331)"><path d="M 3.5 44.0 L 362.2 44.0 " fill="none" stroke="#053199" stroke-width="1.99" stroke-miterlimit="0.00" transform="matrix(1.00, 0.00, 0.00, -1.00, 329.2, 715.2)"></path></g></g><image xlink:href="15757DE0AE0915325BDF2ECC463A5A42.png" width="200.00" height="146.00" transform="matrix(1.00, 0.00, -0.00, -1.00, 18.0, 756.0)"></image><image xlink:href="66651B73DA426AEB164382FDD5C4C42C.png" width="754.00" height="539.00" transform="matrix(1.19, 0.00, -0.00, -1.20, 81.0, 660.0)"></image></g></svg>