<?xml version="1.0" encoding="UTF-8" standalone="no"?><svg xmlns="http://www.w3.org/2000/svg" xmlns:xlink="http://www.w3.org/1999/xlink" clip-rule="evenodd" stroke-miterlimit="4.00" viewBox="0 0 778 151"><desc>SVG generated by Keynote</desc><defs></defs><g transform="matrix(1.00, 0.00, -0.00, -1.00, 0.0, 151.0)"><text xml:space="preserve" font-family="Helvetica-Light" font-size="30.0" fill="#4C5B69" transform="matrix(1.00, 0.00, -0.00, -1.00, -1.0, 127.0)">N</text><text xml:space="preserve" font-family="Helvetica-Light" font-size="30.0" fill="#4C5B69" transform="matrix(1.00, 0.00, -0.00, -1.00, 20.7, 127.0)">u</text><text xml:space="preserve" font-family="Helvetica-Light" font-size="30.0" fill="#4C5B69" transform="matrix(1.00, 0.00, -0.00, -1.00, 37.3, 127.0)">m</text><text xml:space="preserve" font-family="Helvetica-Light" font-size="30.0" fill="#4C5B69" transform="matrix(1.00, 0.00, -0.00, -1.00, 62.3, 127.0)">b</text><text xml:space="preserve" font-family="Helvetica-Light" font-size="30.0" fill="#4C5B69" transform="matrix(1.00, 0.00, -0.00, -1.00, 80.7, 127.0)">e</text><text xml:space="preserve" font-family="Helvetica-Light" font-size="30.0" fill="#4C5B69" transform="matrix(1.00, 0.00, -0.00, -1.00, 97.3, 127.0)">r</text><text xml:space="preserve" font-family="Helvetica-Light" font-size="30.0" fill="#4C5B69" transform="matrix(1.00, 0.00, -0.00, -1.00, 107.3, 127.0)"> </text><text xml:space="preserve" font-family="Helvetica-Light" font-size="30.0" fill="#4C5B69" transform="matrix(1.00, 0.00, -0.00, -1.00, 115.7, 127.0)">o</text><text xml:space="preserve" font-family="Helvetica-Light" font-size="30.0" fill="#4C5B69" transform="matrix(1.00, 0.00, -0.00, -1.00, 132.3, 127.0)">f</text><text xml:space="preserve" font-family="Helvetica-Light" font-size="30.0" fill="#4C5B69" transform="matrix(1.00, 0.00, -0.00, -1.00, 140.7, 127.0)"> </text><text xml:space="preserve" font-family="Helvetica-Light" font-size="30.0" fill="#4C5B69" transform="matrix(1.00, 0.00, -0.00, -1.00, 149.0, 127.0)">t</text><text xml:space="preserve" font-family="Helvetica-Light" font-size="30.0" fill="#4C5B69" transform="matrix(1.00, 0.00, -0.00, -1.00, 157.4, 127.0)">i</text><text xml:space="preserve" font-family="Helvetica-Light" font-size="30.0" fill="#4C5B69" transform="matrix(1.00, 0.00, -0.00, -1.00, 164.0, 127.0)">m</text><text xml:space="preserve" font-family="Helvetica-Light" font-size="30.0" fill="#4C5B69" transform="matrix(1.00, 0.00, -0.00, -1.00, 189.0, 127.0)">e</text><text xml:space="preserve" font-family="Helvetica-Light" font-size="30.0" fill="#4C5B69" transform="matrix(1.00, 0.00, -0.00, -1.00, 205.7, 127.0)"> </text><text xml:space="preserve" font-family="Helvetica-Light" font-size="30.0" fill="#4C5B69" transform="matrix(1.00, 0.00, -0.00, -1.00, 214.0, 127.0)">a</text><text xml:space="preserve" font-family="Helvetica-Light" font-size="30.0" fill="#4C5B69" transform="matrix(1.00, 0.00, -0.00, -1.00, 230.7, 127.0)"> </text><text xml:space="preserve" font-family="Helvetica-Light" font-size="30.0" fill="#4C5B69" transform="matrix(1.00, 0.00, -0.00, -1.00, 239.1, 127.0)">p</text><text xml:space="preserve" font-family="Helvetica-Light" font-size="30.0" fill="#4C5B69" transform="matrix(1.00, 0.00, -0.00, -1.00, 257.4, 127.0)">u</text><text xml:space="preserve" font-family="Helvetica-Light" font-size="30.0" fill="#4C5B69" transform="matrix(1.00, 0.00, -0.00, -1.00, 274.1, 127.0)">b</text><text xml:space="preserve" font-family="Helvetica-Light" font-size="30.0" fill="#4C5B69" transform="matrix(1.00, 0.00, -0.00, -1.00, 292.4, 127.0)">l</text><text xml:space="preserve" font-family="Helvetica-Light" font-size="30.0" fill="#4C5B69" transform="matrix(1.00, 0.00, -0.00, -1.00, 299.1, 127.0)">i</text><text xml:space="preserve" font-family="Helvetica-Light" font-size="30.0" fill="#4C5B69" transform="matrix(1.00, 0.00, -0.00, -1.00, 305.7, 127.0)">c</text><text xml:space="preserve" font-family="Helvetica-Light" font-size="30.0" fill="#4C5B69" transform="matrix(1.00, 0.00, -0.00, -1.00, 322.4, 127.0)">a</text><text xml:space="preserve" font-family="Helvetica-Light" font-size="30.0" fill="#4C5B69" transform="matrix(1.00, 0.00, -0.00, -1.00, 339.1, 127.0)">t</text><text xml:space="preserve" font-family="Helvetica-Light" font-size="30.0" fill="#4C5B69" transform="matrix(1.00, 0.00, -0.00, -1.00, 347.4, 127.0)">i</text><text xml:space="preserve" font-family="Helvetica-Light" font-size="30.0" fill="#4C5B69" transform="matrix(1.00, 0.00, -0.00, -1.00, 354.1, 127.0)">o</text><text xml:space="preserve" font-family="Helvetica-Light" font-size="30.0" fill="#4C5B69" transform="matrix(1.00, 0.00, -0.00, -1.00, 370.8, 127.0)">n</text><text xml:space="preserve" font-family="Helvetica-Light" font-size="30.0" fill="#4C5B69" transform="matrix(1.00, 0.00, -0.00, -1.00, 387.4, 127.0)"> </text><text xml:space="preserve" font-family="Helvetica-Light" font-size="30.0" fill="#4C5B69" transform="matrix(1.00, 0.00, -0.00, -1.00, 395.8, 127.0)">i</text><text xml:space="preserve" font-family="Helvetica-Light" font-size="30.0" fill="#4C5B69" transform="matrix(1.00, 0.00, -0.00, -1.00, 402.4, 127.0)">s</text><text xml:space="preserve" font-family="Helvetica-Light" font-size="30.0" fill="#4C5B69" transform="matrix(1.00, 0.00, -0.00, -1.00, 417.4, 127.0)"> </text><text xml:space="preserve" font-family="Helvetica-Light" font-size="30.0" fill="#4C5B69" transform="matrix(1.00, 0.00, -0.00, -1.00, 425.8, 127.0)">c</text><text xml:space="preserve" font-family="Helvetica-Light" font-size="30.0" fill="#4C5B69" transform="matrix(1.00, 0.00, -0.00, -1.00, 442.5, 127.0)">i</text><text xml:space="preserve" font-family="Helvetica-Light" font-size="30.0" fill="#4C5B69" transform="matrix(1.00, 0.00, -0.00, -1.00, 449.1, 127.0)">t</text><text xml:space="preserve" font-family="Helvetica-Light" font-size="30.0" fill="#4C5B69" transform="matrix(1.00, 0.00, -0.00, -1.00, 457.5, 127.0)">e</text><text xml:space="preserve" font-family="Helvetica-Light" font-size="30.0" fill="#4C5B69" transform="matrix(1.00, 0.00, -0.00, -1.00, 474.1, 127.0)">d</text><text xml:space="preserve" font-family="Helvetica-Light" font-size="30.0" fill="#4C5B69" transform="matrix(1.00, 0.00, -0.00, -1.00, 492.5, 127.0)"> </text><text xml:space="preserve" font-family="Helvetica-Light" font-size="30.0" fill="#4C5B69" transform="matrix(1.00, 0.00, -0.00, -1.00, 500.8, 127.0)">b</text><text xml:space="preserve" font-family="Helvetica-Light" font-size="30.0" fill="#4C5B69" transform="matrix(1.00, 0.00, -0.00, -1.00, 519.1, 127.0)">y</text><text xml:space="preserve" font-family="Helvetica-Light" font-size="30.0" fill="#4C5B69" transform="matrix(1.00, 0.00, -0.00, -1.00, 534.1, 127.0)"> </text><text xml:space="preserve" font-family="Helvetica-Light" font-size="30.0" fill="#4C5B69" transform="matrix(1.00, 0.00, -0.00, -1.00, 542.5, 127.0)">o</text><text xml:space="preserve" font-family="Helvetica-Light" font-size="30.0" fill="#4C5B69" transform="matrix(1.00, 0.00, -0.00, -1.00, 559.2, 127.0)">t</text><text xml:space="preserve" font-family="Helvetica-Light" font-size="30.0" fill="#4C5B69" transform="matrix(1.00, 0.00, -0.00, -1.00, 567.5, 127.0)">h</text><text xml:space="preserve" font-family="Helvetica-Light" font-size="30.0" fill="#4C5B69" transform="matrix(1.00, 0.00, -0.00, -1.00, 584.2, 127.0)">e</text><text xml:space="preserve" font-family="Helvetica-Light" font-size="30.0" fill="#4C5B69" transform="matrix(1.00, 0.00, -0.00, -1.00, 600.9, 127.0)">r</text><text xml:space="preserve" font-family="Helvetica-Light" font-size="30.0" fill="#4C5B69" transform="matrix(1.00, 0.00, -0.00, -1.00, 610.9, 127.0)"> </text><text xml:space="preserve" font-family="Helvetica-Light" font-size="30.0" fill="#4C5B69" transform="matrix(1.00, 0.00, -0.00, -1.00, 619.2, 127.0)">p</text><text xml:space="preserve" font-family="Helvetica-Light" font-size="30.0" fill="#4C5B69" transform="matrix(1.00, 0.00, -0.00, -1.00, 637.5, 127.0)">u</text><text xml:space="preserve" font-family="Helvetica-Light" font-size="30.0" fill="#4C5B69" transform="matrix(1.00, 0.00, -0.00, -1.00, 654.2, 127.0)">b</text><text xml:space="preserve" font-family="Helvetica-Light" font-size="30.0" fill="#4C5B69" transform="matrix(1.00, 0.00, -0.00, -1.00, 672.5, 127.0)">l</text><text xml:space="preserve" font-family="Helvetica-Light" font-size="30.0" fill="#4C5B69" transform="matrix(1.00, 0.00, -0.00, -1.00, 679.2, 127.0)">i</text><text xml:space="preserve" font-family="Helvetica-Light" font-size="30.0" fill="#4C5B69" transform="matrix(1.00, 0.00, -0.00, -1.00, 685.9, 127.0)">c</text><text xml:space="preserve" font-family="Helvetica-Light" font-size="30.0" fill="#4C5B69" transform="matrix(1.00, 0.00, -0.00, -1.00, 702.5, 127.0)">a</text><text xml:space="preserve" font-family="Helvetica-Light" font-size="30.0" fill="#4C5B69" transform="matrix(1.00, 0.00, -0.00, -1.00, 719.2, 127.0)">t</text><text xml:space="preserve" font-family="Helvetica-Light" font-size="30.0" fill="#4C5B69" transform="matrix(1.00, 0.00, -0.00, -1.00, 727.5, 127.0)">i</text><text xml:space="preserve" font-family="Helvetica-Light" font-size="30.0" fill="#4C5B69" transform="matrix(1.00, 0.00, -0.00, -1.00, 734.2, 127.0)">o</text><text xml:space="preserve" font-family="Helvetica-Light" font-size="30.0" fill="#4C5B69" transform="matrix(1.00, 0.00, -0.00, -1.00, 750.9, 127.0)">n</text><text xml:space="preserve" font-family="Helvetica-Light" font-size="30.0" fill="#4C5B69" transform="matrix(1.00, 0.00, -0.00, -1.00, 767.6, 127.0)">.</text><text xml:space="preserve" font-family="Helvetica-Light" font-size="30.0" fill="#4C5B69" transform="matrix(1.00, 0.00, -0.00, -1.00, 775.9, 127.0)"> </text><text xml:space="preserve" font-family="Helvetica-Light" font-size="30.0" fill="#4C5B69" transform="matrix(1.00, 0.00, -0.00, -1.00, -1.0, 88.0)">D</text><text xml:space="preserve" font-family="Helvetica-Light" font-size="30.0" fill="#4C5B69" transform="matrix(1.00, 0.00, -0.00, -1.00, 20.7, 88.0)">i</text><text xml:space="preserve" font-family="Helvetica-Light" font-size="30.0" fill="#4C5B69" transform="matrix(1.00, 0.00, -0.00, -1.00, 27.3, 88.0)">f</text><text xml:space="preserve" font-family="Helvetica-Light" font-size="30.0" fill="#4C5B69" transform="matrix(1.00, 0.00, -0.00, -1.00, 35.1, 88.0)">f</text><text xml:space="preserve" font-family="Helvetica-Light" font-size="30.0" fill="#4C5B69" transform="matrix(1.00, 0.00, -0.00, -1.00, 43.5, 88.0)">e</text><text xml:space="preserve" font-family="Helvetica-Light" font-size="30.0" fill="#4C5B69" transform="matrix(1.00, 0.00, -0.00, -1.00, 60.1, 88.0)">r</text><text xml:space="preserve" font-family="Helvetica-Light" font-size="30.0" fill="#4C5B69" transform="matrix(1.00, 0.00, -0.00, -1.00, 69.6, 88.0)">e</text><text xml:space="preserve" font-family="Helvetica-Light" font-size="30.0" fill="#4C5B69" transform="matrix(1.00, 0.00, -0.00, -1.00, 86.3, 88.0)">n</text><text xml:space="preserve" font-family="Helvetica-Light" font-size="30.0" fill="#4C5B69" transform="matrix(1.00, 0.00, -0.00, -1.00, 102.9, 88.0)">t</text><text xml:space="preserve" font-family="Helvetica-Light" font-size="30.0" fill="#4C5B69" transform="matrix(1.00, 0.00, -0.00, -1.00, 111.3, 88.0)"> </text><text xml:space="preserve" font-family="Helvetica-Light" font-size="30.0" fill="#4C5B69" transform="matrix(1.00, 0.00, -0.00, -1.00, 119.6, 88.0)">i</text><text xml:space="preserve" font-family="Helvetica-Light" font-size="30.0" fill="#4C5B69" transform="matrix(1.00, 0.00, -0.00, -1.00, 126.3, 88.0)">n</text><text xml:space="preserve" font-family="Helvetica-Light" font-size="30.0" fill="#4C5B69" transform="matrix(1.00, 0.00, -0.00, -1.00, 143.0, 88.0)">d</text><text xml:space="preserve" font-family="Helvetica-Light" font-size="30.0" fill="#4C5B69" transform="matrix(1.00, 0.00, -0.00, -1.00, 161.3, 88.0)">e</text><text xml:space="preserve" font-family="Helvetica-Light" font-size="30.0" fill="#4C5B69" transform="matrix(1.00, 0.00, -0.00, -1.00, 178.0, 88.0)">x</text><text xml:space="preserve" font-family="Helvetica-Light" font-size="30.0" fill="#4C5B69" transform="matrix(1.00, 0.00, -0.00, -1.00, 193.0, 88.0)">e</text><text xml:space="preserve" font-family="Helvetica-Light" font-size="30.0" fill="#4C5B69" transform="matrix(1.00, 0.00, -0.00, -1.00, 209.7, 88.0)">s</text><text xml:space="preserve" font-family="Helvetica-Light" font-size="30.0" fill="#4C5B69" transform="matrix(1.00, 0.00, -0.00, -1.00, 224.7, 88.0)"> </text><text xml:space="preserve" font-family="Helvetica-Light" font-size="30.0" fill="#4C5B69" transform="matrix(1.00, 0.00, -0.00, -1.00, 233.0, 88.0)">a</text><text xml:space="preserve" font-family="Helvetica-Light" font-size="30.0" fill="#4C5B69" transform="matrix(1.00, 0.00, -0.00, -1.00, 249.7, 88.0)">r</text><text xml:space="preserve" font-family="Helvetica-Light" font-size="30.0" fill="#4C5B69" transform="matrix(1.00, 0.00, -0.00, -1.00, 259.1, 88.0)">e</text><text xml:space="preserve" font-family="Helvetica-Light" font-size="30.0" fill="#4C5B69" transform="matrix(1.00, 0.00, -0.00, -1.00, 275.8, 88.0)"> </text><text xml:space="preserve" font-family="Helvetica-Light" font-size="30.0" fill="#4C5B69" transform="matrix(1.00, 0.00, -0.00, -1.00, 284.1, 88.0)">u</text><text xml:space="preserve" font-family="Helvetica-Light" font-size="30.0" fill="#4C5B69" transform="matrix(1.00, 0.00, -0.00, -1.00, 300.8, 88.0)">s</text><text xml:space="preserve" font-family="Helvetica-Light" font-size="30.0" fill="#4C5B69" transform="matrix(1.00, 0.00, -0.00, -1.00, 315.8, 88.0)">e</text><text xml:space="preserve" font-family="Helvetica-Light" font-size="30.0" fill="#4C5B69" transform="matrix(1.00, 0.00, -0.00, -1.00, 332.5, 88.0)">d</text><text xml:space="preserve" font-family="Helvetica-Light" font-size="30.0" fill="#4C5B69" transform="matrix(1.00, 0.00, -0.00, -1.00, 350.8, 88.0)"> </text><text xml:space="preserve" font-family="Helvetica-Light" font-size="22.5" fill="#4C5B69" transform="matrix(1.00, 0.00, -0.00, -1.00, 34.4, 51.3)">•</text><text xml:space="preserve" font-family="Helvetica-Light" font-size="30.0" fill="#4C5B69" transform="matrix(1.00, 0.00, -0.00, -1.00, 64.0, 48.0)">W</text><text xml:space="preserve" font-family="Helvetica-Light" font-size="30.0" fill="#4C5B69" transform="matrix(1.00, 0.00, -0.00, -1.00, 90.1, 48.0)">e</text><text xml:space="preserve" font-family="Helvetica-Light" font-size="30.0" fill="#4C5B69" transform="matrix(1.00, 0.00, -0.00, -1.00, 106.8, 48.0)">b</text><text xml:space="preserve" font-family="Helvetica-Light" font-size="30.0" fill="#4C5B69" transform="matrix(1.00, 0.00, -0.00, -1.00, 125.1, 48.0)"> </text><text xml:space="preserve" font-family="Helvetica-Light" font-size="30.0" fill="#4C5B69" transform="matrix(1.00, 0.00, -0.00, -1.00, 133.5, 48.0)">o</text><text xml:space="preserve" font-family="Helvetica-Light" font-size="30.0" fill="#4C5B69" transform="matrix(1.00, 0.00, -0.00, -1.00, 150.2, 48.0)">f</text><text xml:space="preserve" font-family="Helvetica-Light" font-size="30.0" fill="#4C5B69" transform="matrix(1.00, 0.00, -0.00, -1.00, 158.5, 48.0)"> </text><text xml:space="preserve" font-family="Helvetica-Light" font-size="30.0" fill="#4C5B69" transform="matrix(1.00, 0.00, -0.00, -1.00, 166.8, 48.0)">S</text><text xml:space="preserve" font-family="Helvetica-Light" font-size="30.0" fill="#4C5B69" transform="matrix(1.00, 0.00, -0.00, -1.00, 185.2, 48.0)">c</text><text xml:space="preserve" font-family="Helvetica-Light" font-size="30.0" fill="#4C5B69" transform="matrix(1.00, 0.00, -0.00, -1.00, 201.8, 48.0)">i</text><text xml:space="preserve" font-family="Helvetica-Light" font-size="30.0" fill="#4C5B69" transform="matrix(1.00, 0.00, -0.00, -1.00, 208.5, 48.0)">e</text><text xml:space="preserve" font-family="Helvetica-Light" font-size="30.0" fill="#4C5B69" transform="matrix(1.00, 0.00, -0.00, -1.00, 225.2, 48.0)">n</text><text xml:space="preserve" font-family="Helvetica-Light" font-size="30.0" fill="#4C5B69" transform="matrix(1.00, 0.00, -0.00, -1.00, 241.9, 48.0)">c</text><text xml:space="preserve" font-family="Helvetica-Light" font-size="30.0" fill="#4C5B69" transform="matrix(1.00, 0.00, -0.00, -1.00, 258.6, 48.0)">e</text><text xml:space="preserve" font-family="Helvetica-Light" font-size="30.0" fill="#4C5B69" transform="matrix(1.00, 0.00, -0.00, -1.00, 275.2, 48.0)"> </text><text xml:space="preserve" font-family="Helvetica-Light" font-size="22.5" fill="#4C5B69" transform="matrix(1.00, 0.00, -0.00, -1.00, 34.4, 11.7)">•</text><text xml:space="preserve" font-family="Helvetica-Light" font-size="30.0" fill="#4C5B69" transform="matrix(1.00, 0.00, -0.00, -1.00, 64.0, 8.0)">S</text><text xml:space="preserve" font-family="Helvetica-Light" font-size="30.0" fill="#4C5B69" transform="matrix(1.00, 0.00, -0.00, -1.00, 82.3, 8.0)">c</text><text xml:space="preserve" font-family="Helvetica-Light" font-size="30.0" fill="#4C5B69" transform="matrix(1.00, 0.00, -0.00, -1.00, 99.0, 8.0)">o</text><text xml:space="preserve" font-family="Helvetica-Light" font-size="30.0" fill="#4C5B69" transform="matrix(1.00, 0.00, -0.00, -1.00, 115.7, 8.0)">p</text><text xml:space="preserve" font-family="Helvetica-Light" font-size="30.0" fill="#4C5B69" transform="matrix(1.00, 0.00, -0.00, -1.00, 134.0, 8.0)">u</text><text xml:space="preserve" font-family="Helvetica-Light" font-size="30.0" fill="#4C5B69" transform="matrix(1.00, 0.00, -0.00, -1.00, 150.7, 8.0)">s</text><text xml:space="preserve" font-family="Helvetica-Light" font-size="30.0" fill="#4C5B69" transform="matrix(1.00, 0.00, -0.00, -1.00, 165.7, 8.0)"> </text></g></svg>