<?xml version="1.0" encoding="UTF-8" standalone="no"?><svg xmlns="http://www.w3.org/2000/svg" xmlns:xlink="http://www.w3.org/1999/xlink" clip-rule="evenodd" stroke-miterlimit="4.00" viewBox="0 0 455 41"><desc>SVG generated by Keynote</desc><defs></defs><g transform="matrix(1.00, 0.00, -0.00, -1.00, 0.0, 41.0)"><text xml:space="preserve" font-family="HelveticaNeue-Medium" font-size="50.0" fill="#4C5B69" transform="matrix(1.00, 0.00, -0.00, -1.00, 0.0, 3.0)">C</text><text xml:space="preserve" font-family="HelveticaNeue-Medium" font-size="50.0" fill="#4C5B69" transform="matrix(1.00, 0.00, -0.00, -1.00, 36.1, 3.0)">I</text><text xml:space="preserve" font-family="HelveticaNeue-Medium" font-size="50.0" fill="#4C5B69" transform="matrix(1.00, 0.00, -0.00, -1.00, 50.0, 3.0)">T</text><text xml:space="preserve" font-family="HelveticaNeue-Medium" font-size="50.0" fill="#4C5B69" transform="matrix(1.00, 0.00, -0.00, -1.00, 75.1, 3.0)">A</text><text xml:space="preserve" font-family="HelveticaNeue-Medium" font-size="50.0" fill="#4C5B69" transform="matrix(1.00, 0.00, -0.00, -1.00, 103.8, 3.0)">T</text><text xml:space="preserve" font-family="HelveticaNeue-Medium" font-size="50.0" fill="#4C5B69" transform="matrix(1.00, 0.00, -0.00, -1.00, 133.5, 3.0)">I</text><text xml:space="preserve" font-family="HelveticaNeue-Medium" font-size="50.0" fill="#4C5B69" transform="matrix(1.00, 0.00, -0.00, -1.00, 147.4, 3.0)">O</text><text xml:space="preserve" font-family="HelveticaNeue-Medium" font-size="50.0" fill="#4C5B69" transform="matrix(1.00, 0.00, -0.00, -1.00, 185.4, 3.0)">N</text><text xml:space="preserve" font-family="HelveticaNeue-Medium" font-size="50.0" fill="#4C5B69" transform="matrix(1.00, 0.00, -0.00, -1.00, 221.5, 3.0)"> </text><text xml:space="preserve" font-family="HelveticaNeue-Medium" font-size="50.0" fill="#4C5B69" transform="matrix(1.00, 0.00, -0.00, -1.00, 235.4, 3.0)">N</text><text xml:space="preserve" font-family="HelveticaNeue-Medium" font-size="50.0" fill="#4C5B69" transform="matrix(1.00, 0.00, -0.00, -1.00, 271.5, 3.0)">U</text><text xml:space="preserve" font-family="HelveticaNeue-Medium" font-size="50.0" fill="#4C5B69" transform="matrix(1.00, 0.00, -0.00, -1.00, 307.6, 3.0)">M</text><text xml:space="preserve" font-family="HelveticaNeue-Medium" font-size="50.0" fill="#4C5B69" transform="matrix(1.00, 0.00, -0.00, -1.00, 352.0, 3.0)">B</text><text xml:space="preserve" font-family="HelveticaNeue-Medium" font-size="50.0" fill="#4C5B69" transform="matrix(1.00, 0.00, -0.00, -1.00, 387.2, 3.0)">E</text><text xml:space="preserve" font-family="HelveticaNeue-Medium" font-size="50.0" fill="#4C5B69" transform="matrix(1.00, 0.00, -0.00, -1.00, 418.7, 3.0)">R</text></g></svg>