<?xml version="1.0" encoding="UTF-8" standalone="no"?><svg xmlns="http://www.w3.org/2000/svg" xmlns:xlink="http://www.w3.org/1999/xlink" clip-rule="evenodd" stroke-miterlimit="4.00" viewBox="0 0 418 420"><desc>SVG generated by Keynote</desc><defs></defs><g transform="matrix(1.00, 0.00, -0.00, -1.00, 0.0, 420.0)"><image xlink:href="../../B2FD6FA8-6CC9-4197-8491-E4CC13F3F3F0/assets/C24B06CE8831499F4DAA3F52A5EFFD77.png" width="414.00" height="414.00" transform="matrix(1.00, 0.00, -0.00, -1.00, 1.8, 416.2)" opacity="0.50"></image><g><clipPath id="clip-259"><path d="M 209.0 415.2 C 156.5 415.2 104.0 395.1 63.9 355.1 C -16.2 274.9 -16.2 145.0 63.9 64.9 C 144.0 -15.2 274.0 -15.2 354.1 64.9 C 434.2 145.0 434.2 274.9 354.1 355.1 C 314.0 395.1 261.5 415.2 209.0 415.2 Z M 209.0 307.1 C 233.8 307.1 258.7 297.7 277.7 278.7 C 315.6 240.8 315.6 179.2 277.7 141.3 C 239.7 103.4 178.3 103.4 140.3 141.3 C 102.4 179.2 102.4 240.8 140.3 278.7 C 159.3 297.7 184.1 307.1 209.0 307.1 Z M 209.0 307.1 "></path></clipPath><g clip-path="url(#clip-259)"><image xlink:href="../../B2FD6FA8-6CC9-4197-8491-E4CC13F3F3F0/assets/208E2E613EC6A4A6B2E833690FCD11F8.jpeg" width="494.00" height="500.00" transform="matrix(1.00, 0.00, -0.00, -1.00, -38.0, 475.0)"></image></g></g></g></svg>