<?xml version="1.0" encoding="UTF-8" standalone="no"?><svg xmlns="http://www.w3.org/2000/svg" xmlns:xlink="http://www.w3.org/1999/xlink" clip-rule="evenodd" stroke-miterlimit="4.00" viewBox="0 0 889 428"><desc>SVG generated by Keynote</desc><defs></defs><g transform="matrix(1.00, 0.00, -0.00, -1.00, 0.0, 428.0)"><g><clipPath id="clip-371"><path d="M 0.7 98.8 L 888.7 98.8 L 888.7 367.7 L 0.7 367.7 Z M 0.7 98.8 "></path></clipPath><g clip-path="url(#clip-371)"><image xlink:href="../../3805EC89-877D-4278-9819-49AC8C07AD6B/assets/0EDFDDB899657439BF12F937D335C053.png" width="886.00" height="267.00" transform="matrix(1.00, 0.00, -0.00, -1.00, 1.7, 366.7)" opacity="0.50"></image><path d="M 34.6 357.7 L 854.8 357.7 C 861.3 357.7 864.7 357.7 868.2 356.5 C 872.1 355.1 875.1 352.1 876.6 348.2 C 877.7 344.6 877.7 341.3 877.7 334.6 L 877.7 133.7 C 877.7 127.1 877.7 123.8 876.6 120.2 C 875.1 116.4 872.1 113.3 868.2 111.9 C 864.7 110.8 861.3 110.8 854.7 110.8 L 34.6 110.8 C 28.0 110.8 24.7 110.8 21.1 111.9 C 17.3 113.3 14.2 116.4 12.8 120.2 C 11.7 123.8 11.7 127.1 11.7 133.8 L 11.7 334.7 C 11.7 341.3 11.7 344.6 12.8 348.2 C 14.2 352.1 17.3 355.1 21.1 356.5 C 24.7 357.7 28.0 357.7 34.7 357.7 Z M 34.6 357.7 " fill="#F3F3F3"></path></g></g><g><clipPath id="clip-372"><path d="M 692.5 168.2 L 836.2 168.2 L 836.2 312.0 L 692.5 312.0 Z M 692.5 168.2 "></path></clipPath><g clip-path="url(#clip-372)"><image xlink:href="../../3805EC89-877D-4278-9819-49AC8C07AD6B/assets/13A501C759D1962E76CCB1859B0BB275.png" width="144.00" height="144.00" transform="matrix(1.00, 0.00, -0.00, -1.00, 692.0, 312.0)"></image></g></g><g><clipPath id="clip-373"><path d="M 40.0 310.0 L 209.0 310.0 L 209.0 144.0 L 40.0 144.0 Z M 39.9 309.9 "></path></clipPath><g clip-path="url(#clip-373)"><g><clipPath id="clip-374"><path d="M 39.9 144.1 L 209.0 144.1 L 209.0 309.9 L 39.9 309.9 Z M 39.9 144.1 "></path></clipPath><g clip-path="url(#clip-374)"><image xlink:href="../../3805EC89-877D-4278-9819-49AC8C07AD6B/assets/9CF67FE99FE9FF539374B9F0F666D98E.png" width="316.00" height="165.00" transform="matrix(1.00, 0.00, -0.00, -1.01, -33.0, 310.0)"></image></g></g></g></g><g><clipPath id="clip-375"><path d="M 58.9 384.1 L 91.2 384.1 L 91.2 423.7 L 58.9 423.7 Z M 58.9 384.1 "></path></clipPath><g clip-path="url(#clip-375)"><image xlink:href="../../3805EC89-877D-4278-9819-49AC8C07AD6B/assets/89C29D71ADF027E68F63B217455B5EAD.png" width="32.00" height="40.00" transform="matrix(1.00, 0.00, -0.00, -1.00, 59.0, 424.0)"></image></g></g><g><clipPath id="clip-376"><path d="M 101.0 384.1 L 140.6 384.1 L 140.6 423.7 L 101.0 423.7 Z M 101.0 384.1 "></path></clipPath><g clip-path="url(#clip-376)"><image xlink:href="../../3805EC89-877D-4278-9819-49AC8C07AD6B/assets/42D099B72072ABD0B258E8F31640E780.png" width="40.00" height="40.00" transform="matrix(1.00, 0.00, -0.00, -1.00, 101.0, 424.0)"></image></g></g><g><clipPath id="clip-377"><path d="M 748.8 384.1 L 781.1 384.1 L 781.1 423.7 L 748.8 423.7 Z M 748.8 384.1 "></path></clipPath><g clip-path="url(#clip-377)"><image xlink:href="../../3805EC89-877D-4278-9819-49AC8C07AD6B/assets/89C29D71ADF027E68F63B217455B5EAD.png" width="32.00" height="40.00" transform="matrix(1.00, 0.00, -0.00, -1.00, 749.0, 424.0)"></image></g></g><g><clipPath id="clip-378"><path d="M 790.8 384.1 L 830.4 384.1 L 830.4 423.7 L 790.8 423.7 Z M 790.8 384.1 "></path></clipPath><g clip-path="url(#clip-378)"><image xlink:href="../../3805EC89-877D-4278-9819-49AC8C07AD6B/assets/42D099B72072ABD0B258E8F31640E780.png" width="40.00" height="40.00" transform="matrix(0.98, 0.00, -0.00, -1.00, 791.0, 424.0)"></image></g></g><g><clipPath id="clip-379"><path d="M 150.3 380.6 L 189.9 380.6 L 189.9 427.3 L 150.3 427.3 Z M 150.3 380.6 "></path></clipPath><g clip-path="url(#clip-379)"><image xlink:href="../../3805EC89-877D-4278-9819-49AC8C07AD6B/assets/E3A59948DF75C289BE94EEA907233D13.png" width="39.00" height="47.00" transform="matrix(1.03, 0.00, -0.00, -0.98, 150.0, 427.0)"></image></g></g><g><clipPath id="clip-380"><path d="M 381.1 384.1 L 413.3 384.1 L 413.3 423.7 L 381.1 423.7 Z M 381.1 384.1 "></path></clipPath><g clip-path="url(#clip-380)"><image xlink:href="../../3805EC89-877D-4278-9819-49AC8C07AD6B/assets/89C29D71ADF027E68F63B217455B5EAD.png" width="32.00" height="40.00" transform="matrix(1.00, 0.00, -0.00, -1.00, 381.0, 424.0)"></image></g></g><g><clipPath id="clip-381"><path d="M 423.1 384.1 L 462.7 384.1 L 462.7 423.7 L 423.1 423.7 Z M 423.1 384.1 "></path></clipPath><g clip-path="url(#clip-381)"><image xlink:href="../../3805EC89-877D-4278-9819-49AC8C07AD6B/assets/42D099B72072ABD0B258E8F31640E780.png" width="40.00" height="40.00" transform="matrix(1.00, 0.00, -0.00, -1.00, 423.0, 424.0)"></image></g></g><g><clipPath id="clip-382"><path d="M 472.5 380.6 L 512.1 380.6 L 512.1 427.3 L 472.5 427.3 Z M 472.5 380.6 "></path></clipPath><g clip-path="url(#clip-382)"><image xlink:href="../../3805EC89-877D-4278-9819-49AC8C07AD6B/assets/E3A59948DF75C289BE94EEA907233D13.png" width="39.00" height="47.00" transform="matrix(1.03, 0.00, -0.00, -0.98, 472.0, 427.0)"></image></g></g><g><clipPath id="clip-383"><path d="M 199.7 384.1 L 239.3 384.1 L 239.3 423.7 L 199.7 423.7 Z M 199.7 384.1 "></path></clipPath><g clip-path="url(#clip-383)"><image xlink:href="../../3805EC89-877D-4278-9819-49AC8C07AD6B/assets/E43A190BB176DD142285E93065CFB92E.png" width="40.00" height="40.00" transform="matrix(0.98, 0.00, -0.00, -1.00, 200.0, 424.0)"></image></g></g><g><clipPath id="clip-384"><path d="M 9.6 384.1 L 49.2 384.1 L 49.2 423.7 L 9.6 423.7 Z M 9.6 384.1 "></path></clipPath><g clip-path="url(#clip-384)"><image xlink:href="../../3805EC89-877D-4278-9819-49AC8C07AD6B/assets/E1C77D53CB71DFE271F9DDA072A9366B.png" width="40.00" height="40.00" transform="matrix(0.98, 0.00, -0.00, -1.00, 10.0, 424.0)"></image></g></g><g><clipPath id="clip-385"><path d="M 699.4 384.1 L 739.0 384.1 L 739.0 423.7 L 699.4 423.7 Z M 699.4 384.1 "></path></clipPath><g clip-path="url(#clip-385)"><image xlink:href="../../3805EC89-877D-4278-9819-49AC8C07AD6B/assets/E1C77D53CB71DFE271F9DDA072A9366B.png" width="40.00" height="40.00" transform="matrix(1.00, 0.00, -0.00, -1.00, 699.0, 424.0)"></image></g></g><g><clipPath id="clip-386"><path d="M 510.7 384.1 L 550.3 384.1 L 550.3 423.7 L 510.7 423.7 Z M 510.7 384.1 "></path></clipPath><g clip-path="url(#clip-386)"><image xlink:href="../../3805EC89-877D-4278-9819-49AC8C07AD6B/assets/E1C77D53CB71DFE271F9DDA072A9366B.png" width="40.00" height="40.00" transform="matrix(0.98, 0.00, -0.00, -1.00, 511.0, 424.0)"></image></g></g><g><clipPath id="clip-387"><path d="M 403.7 2.3 L 485.7 2.3 L 485.7 84.3 L 403.7 84.3 Z M 403.7 2.3 "></path></clipPath><g clip-path="url(#clip-387)"><image xlink:href="../../3805EC89-877D-4278-9819-49AC8C07AD6B/assets/2AAD456F91F984A17BDC0724A50FEFAB.png" width="82.00" height="82.00" transform="matrix(1.00, 0.00, -0.00, -1.00, 404.0, 84.0)"></image></g></g><g><clipPath id="clip-388"><path d="M 77.3 0.4 L 150.3 0.4 L 150.3 73.4 L 77.3 73.4 Z M 77.3 0.4 "></path></clipPath><g clip-path="url(#clip-388)"><image xlink:href="../../3805EC89-877D-4278-9819-49AC8C07AD6B/assets/42C8E16A3F153F5B864290441CF6B0C7.png" width="74.00" height="74.00" transform="matrix(0.99, 0.00, -0.00, -0.99, 77.0, 73.0)"></image></g></g><g><clipPath id="clip-389"><path d="M 739.0 0.4 L 812.1 0.4 L 812.1 73.4 L 739.0 73.4 Z M 739.0 0.4 "></path></clipPath><g clip-path="url(#clip-389)"><image xlink:href="../../3805EC89-877D-4278-9819-49AC8C07AD6B/assets/42C8E16A3F153F5B864290441CF6B0C7.png" width="74.00" height="74.00" transform="matrix(0.99, 0.00, -0.00, -0.99, 739.0, 73.0)"></image></g></g></g></svg>