<?xml version="1.0" encoding="UTF-8" standalone="no"?><svg xmlns="http://www.w3.org/2000/svg" xmlns:xlink="http://www.w3.org/1999/xlink" clip-rule="evenodd" stroke-miterlimit="4.00" viewBox="0 0 1024 768"><desc>SVG generated by Keynote</desc><defs></defs><g transform="matrix(1.00, 0.00, -0.00, -1.00, 0.0, 768.0)"><path d="M 0.0 768.0 L 1024.0 768.0 L 1024.0 0.0 L 0.0 0.0 Z M 0.0 768.0 " fill="#F3F3F3"></path><path d="M 35.5 734.0 L 988.5 734.0 L 988.5 34.0 L 35.5 34.0 Z M 35.5 734.0 " fill="#FEFFFE"></path><path d="M 35.3 639.7 L 988.7 639.7 L 988.7 128.3 L 35.3 128.3 Z M 35.3 639.7 " fill="#FEFFFF"></path><text xml:space="preserve" font-family="HelveticaNeue-Light" font-size="16.0" fill="#A6AAA8" transform="matrix(1.00, 0.00, -0.00, -1.00, 924.7, 12.7)">S</text><text xml:space="preserve" font-family="HelveticaNeue-Light" font-size="16.0" fill="#A6AAA8" transform="matrix(1.00, 0.00, -0.00, -1.00, 934.8, 12.7)">l</text><text xml:space="preserve" font-family="HelveticaNeue-Light" font-size="16.0" fill="#A6AAA8" transform="matrix(1.00, 0.00, -0.00, -1.00, 937.8, 12.7)">i</text><text xml:space="preserve" font-family="HelveticaNeue-Light" font-size="16.0" fill="#A6AAA8" transform="matrix(1.00, 0.00, -0.00, -1.00, 940.7, 12.7)">d</text><text xml:space="preserve" font-family="HelveticaNeue-Light" font-size="16.0" fill="#A6AAA8" transform="matrix(1.00, 0.00, -0.00, -1.00, 949.9, 12.7)">e</text><text xml:space="preserve" font-family="HelveticaNeue-Light" font-size="16.0" fill="#A6AAA8" transform="matrix(1.00, 0.00, -0.00, -1.00, 958.2, 12.7)"> </text><text xml:space="preserve" font-family="HelveticaNeue-Light" font-size="16.0" fill="#A6AAA8" transform="matrix(1.00, 0.00, -0.00, -1.00, 962.6, 12.7)">#</text><text xml:space="preserve" font-family="HelveticaNeue-Light" font-size="16.0" fill="#A6AAA8" transform="matrix(1.00, 0.00, -0.00, -1.00, 32.0, 13.0)">B</text><text xml:space="preserve" font-family="HelveticaNeue-Light" font-size="16.0" fill="#A6AAA8" transform="matrix(1.00, 0.00, -0.00, -1.00, 42.7, 13.0)">i</text><text xml:space="preserve" font-family="HelveticaNeue-Light" font-size="16.0" fill="#A6AAA8" transform="matrix(1.00, 0.00, -0.00, -1.00, 45.6, 13.0)">b</text><text xml:space="preserve" font-family="HelveticaNeue-Light" font-size="16.0" fill="#A6AAA8" transform="matrix(1.00, 0.00, -0.00, -1.00, 54.8, 13.0)">l</text><text xml:space="preserve" font-family="HelveticaNeue-Light" font-size="16.0" fill="#A6AAA8" transform="matrix(1.00, 0.00, -0.00, -1.00, 57.8, 13.0)">i</text><text xml:space="preserve" font-family="HelveticaNeue-Light" font-size="16.0" fill="#A6AAA8" transform="matrix(1.00, 0.00, -0.00, -1.00, 60.7, 13.0)">o</text><text xml:space="preserve" font-family="HelveticaNeue-Light" font-size="16.0" fill="#A6AAA8" transform="matrix(1.00, 0.00, -0.00, -1.00, 69.6, 13.0)">g</text><text xml:space="preserve" font-family="HelveticaNeue-Light" font-size="16.0" fill="#A6AAA8" transform="matrix(1.00, 0.00, -0.00, -1.00, 78.5, 13.0)">r</text><text xml:space="preserve" font-family="HelveticaNeue-Light" font-size="16.0" fill="#A6AAA8" transform="matrix(1.00, 0.00, -0.00, -1.00, 83.6, 13.0)">a</text><text xml:space="preserve" font-family="HelveticaNeue-Light" font-size="16.0" fill="#A6AAA8" transform="matrix(1.00, 0.00, -0.00, -1.00, 91.9, 13.0)">p</text><text xml:space="preserve" font-family="HelveticaNeue-Light" font-size="16.0" fill="#A6AAA8" transform="matrix(1.00, 0.00, -0.00, -1.00, 101.1, 13.0)">h</text><text xml:space="preserve" font-family="HelveticaNeue-Light" font-size="16.0" fill="#A6AAA8" transform="matrix(1.00, 0.00, -0.00, -1.00, 109.6, 13.0)">y</text><text xml:space="preserve" font-family="HelveticaNeue-Light" font-size="16.0" fill="#A6AAA8" transform="matrix(1.00, 0.00, -0.00, -1.00, 117.1, 13.0)"> </text><text xml:space="preserve" font-family="HelveticaNeue-Light" font-size="16.0" fill="#A6AAA8" transform="matrix(1.00, 0.00, -0.00, -1.00, 121.5, 13.0)">&amp;</text><text xml:space="preserve" font-family="HelveticaNeue-Light" font-size="16.0" fill="#A6AAA8" transform="matrix(1.00, 0.00, -0.00, -1.00, 131.3, 13.0)"> </text><text xml:space="preserve" font-family="HelveticaNeue-Light" font-size="16.0" fill="#A6AAA8" transform="matrix(1.00, 0.00, -0.00, -1.00, 135.7, 13.0)">R</text><text xml:space="preserve" font-family="HelveticaNeue-Light" font-size="16.0" fill="#A6AAA8" transform="matrix(1.00, 0.00, -0.00, -1.00, 146.4, 13.0)">e</text><text xml:space="preserve" font-family="HelveticaNeue-Light" font-size="16.0" fill="#A6AAA8" transform="matrix(1.00, 0.00, -0.00, -1.00, 154.7, 13.0)">f</text><text xml:space="preserve" font-family="HelveticaNeue-Light" font-size="16.0" fill="#A6AAA8" transform="matrix(1.00, 0.00, -0.00, -1.00, 158.8, 13.0)">e</text><text xml:space="preserve" font-family="HelveticaNeue-Light" font-size="16.0" fill="#A6AAA8" transform="matrix(1.00, 0.00, -0.00, -1.00, 167.2, 13.0)">r</text><text xml:space="preserve" font-family="HelveticaNeue-Light" font-size="16.0" fill="#A6AAA8" transform="matrix(1.00, 0.00, -0.00, -1.00, 171.9, 13.0)">e</text><text xml:space="preserve" font-family="HelveticaNeue-Light" font-size="16.0" fill="#A6AAA8" transform="matrix(1.00, 0.00, -0.00, -1.00, 180.2, 13.0)">n</text><text xml:space="preserve" font-family="HelveticaNeue-Light" font-size="16.0" fill="#A6AAA8" transform="matrix(1.00, 0.00, -0.00, -1.00, 188.8, 13.0)">c</text><text xml:space="preserve" font-family="HelveticaNeue-Light" font-size="16.0" fill="#A6AAA8" transform="matrix(1.00, 0.00, -0.00, -1.00, 197.1, 13.0)">e</text><text xml:space="preserve" font-family="HelveticaNeue-Light" font-size="16.0" fill="#A6AAA8" transform="matrix(1.00, 0.00, -0.00, -1.00, 205.4, 13.0)"> </text><text xml:space="preserve" font-family="HelveticaNeue-Light" font-size="16.0" fill="#A6AAA8" transform="matrix(1.00, 0.00, -0.00, -1.00, 209.9, 13.0)">M</text><text xml:space="preserve" font-family="HelveticaNeue-Light" font-size="16.0" fill="#A6AAA8" transform="matrix(1.00, 0.00, -0.00, -1.00, 223.0, 13.0)">a</text><text xml:space="preserve" font-family="HelveticaNeue-Light" font-size="16.0" fill="#A6AAA8" transform="matrix(1.00, 0.00, -0.00, -1.00, 231.3, 13.0)">n</text><text xml:space="preserve" font-family="HelveticaNeue-Light" font-size="16.0" fill="#A6AAA8" transform="matrix(1.00, 0.00, -0.00, -1.00, 239.9, 13.0)">a</text><text xml:space="preserve" font-family="HelveticaNeue-Light" font-size="16.0" fill="#A6AAA8" transform="matrix(1.00, 0.00, -0.00, -1.00, 248.2, 13.0)">g</text><text xml:space="preserve" font-family="HelveticaNeue-Light" font-size="16.0" fill="#A6AAA8" transform="matrix(1.00, 0.00, -0.00, -1.00, 257.1, 13.0)">e</text><text xml:space="preserve" font-family="HelveticaNeue-Light" font-size="16.0" fill="#A6AAA8" transform="matrix(1.00, 0.00, -0.00, -1.00, 265.4, 13.0)">m</text><text xml:space="preserve" font-family="HelveticaNeue-Light" font-size="16.0" fill="#A6AAA8" transform="matrix(1.00, 0.00, -0.00, -1.00, 278.7, 13.0)">e</text><text xml:space="preserve" font-family="HelveticaNeue-Light" font-size="16.0" fill="#A6AAA8" transform="matrix(1.00, 0.00, -0.00, -1.00, 287.0, 13.0)">n</text><text xml:space="preserve" font-family="HelveticaNeue-Light" font-size="16.0" fill="#A6AAA8" transform="matrix(1.00, 0.00, -0.00, -1.00, 295.6, 13.0)">t</text><text xml:space="preserve" font-family="HelveticaNeue-Light" font-size="16.0" fill="#A6AAA8" transform="matrix(1.00, 0.00, -0.00, -1.00, 980.0, 13.0)">1</text><text xml:space="preserve" font-family="HelveticaNeue-Light" font-size="16.0" fill="#A6AAA8" transform="matrix(1.00, 0.00, -0.00, -1.00, 988.9, 13.0)">0</text><image xlink:href="../../6F0A2D19-CFE3-4FA3-B36D-45CD7EBB03EA/assets/30C87482E1EA30479601A6E7B912FD05.png" width="127.00" height="127.00" transform="matrix(1.00, 0.00, -0.00, -1.00, 893.7, 758.1)" opacity="0.50"></image><g><clipPath id="clip-281"><path d="M 957.2 757.1 C 941.5 757.1 925.7 751.1 913.7 739.1 C 889.7 715.0 889.7 676.1 913.7 652.1 C 937.8 628.1 976.7 628.1 1000.7 652.1 C 1024.7 676.1 1024.7 715.0 1000.7 739.1 C 988.7 751.1 973.0 757.1 957.2 757.1 Z M 957.2 724.7 C 964.7 724.7 972.1 721.8 977.8 716.2 C 989.2 704.8 989.2 686.4 977.8 675.0 C 966.4 663.6 948.0 663.6 936.6 675.0 C 925.3 686.4 925.3 704.8 936.6 716.2 C 942.3 721.8 949.8 724.7 957.2 724.7 Z M 957.2 724.7 "></path></clipPath><g clip-path="url(#clip-281)"><image xlink:href="../../B2FD6FA8-6CC9-4197-8491-E4CC13F3F3F0/assets/208E2E613EC6A4A6B2E833690FCD11F8.jpeg" width="494.00" height="500.00" transform="matrix(0.47, 0.00, -0.00, -0.47, 837.0, 780.0)"></image></g></g><text xml:space="preserve" font-family="HelveticaNeue-Medium" font-size="50.0" fill="#4C5B69" transform="matrix(1.00, 0.00, -0.00, -1.00, 94.0, 654.0)">P</text><text xml:space="preserve" font-family="HelveticaNeue-Medium" font-size="50.0" fill="#4C5B69" transform="matrix(1.00, 0.00, -0.00, -1.00, 127.3, 654.0)">R</text><text xml:space="preserve" font-family="HelveticaNeue-Medium" font-size="50.0" fill="#4C5B69" transform="matrix(1.00, 0.00, -0.00, -1.00, 162.6, 654.0)">O</text><text xml:space="preserve" font-family="HelveticaNeue-Medium" font-size="50.0" fill="#4C5B69" transform="matrix(1.00, 0.00, -0.00, -1.00, 200.6, 654.0)">B</text><text xml:space="preserve" font-family="HelveticaNeue-Medium" font-size="50.0" fill="#4C5B69" transform="matrix(1.00, 0.00, -0.00, -1.00, 235.8, 654.0)">L</text><text xml:space="preserve" font-family="HelveticaNeue-Medium" font-size="50.0" fill="#4C5B69" transform="matrix(1.00, 0.00, -0.00, -1.00, 264.4, 654.0)">E</text><text xml:space="preserve" font-family="HelveticaNeue-Medium" font-size="50.0" fill="#4C5B69" transform="matrix(1.00, 0.00, -0.00, -1.00, 295.9, 654.0)">M</text><text xml:space="preserve" font-family="HelveticaNeue-Medium" font-size="50.0" fill="#4C5B69" transform="matrix(1.00, 0.00, -0.00, -1.00, 340.4, 654.0)">S</text><text xml:space="preserve" font-family="Helvetica-Light" font-size="22.5" fill="#4C5B69" transform="matrix(1.00, 0.00, -0.00, -1.00, 94.4, 602.5)">-</text><text xml:space="preserve" font-family="Helvetica-Light" font-size="30.0" fill="#4C5B69" transform="matrix(1.00, 0.00, -0.00, -1.00, 124.0, 599.0)">J</text><text xml:space="preserve" font-family="Helvetica-Light" font-size="30.0" fill="#4C5B69" transform="matrix(1.00, 0.00, -0.00, -1.00, 139.0, 599.0)">o</text><text xml:space="preserve" font-family="Helvetica-Light" font-size="30.0" fill="#4C5B69" transform="matrix(1.00, 0.00, -0.00, -1.00, 155.7, 599.0)">u</text><text xml:space="preserve" font-family="Helvetica-Light" font-size="30.0" fill="#4C5B69" transform="matrix(1.00, 0.00, -0.00, -1.00, 172.4, 599.0)">r</text><text xml:space="preserve" font-family="Helvetica-Light" font-size="30.0" fill="#4C5B69" transform="matrix(1.00, 0.00, -0.00, -1.00, 182.9, 599.0)">n</text><text xml:space="preserve" font-family="Helvetica-Light" font-size="30.0" fill="#4C5B69" transform="matrix(1.00, 0.00, -0.00, -1.00, 199.6, 599.0)">a</text><text xml:space="preserve" font-family="Helvetica-Light" font-size="30.0" fill="#4C5B69" transform="matrix(1.00, 0.00, -0.00, -1.00, 216.2, 599.0)">l</text><text xml:space="preserve" font-family="Helvetica-Light" font-size="30.0" fill="#4C5B69" transform="matrix(1.00, 0.00, -0.00, -1.00, 222.9, 599.0)"> </text><text xml:space="preserve" font-family="Helvetica-Light" font-size="30.0" fill="#4C5B69" transform="matrix(1.00, 0.00, -0.00, -1.00, 231.2, 599.0)">c</text><text xml:space="preserve" font-family="Helvetica-Light" font-size="30.0" fill="#4C5B69" transform="matrix(1.00, 0.00, -0.00, -1.00, 247.9, 599.0)">h</text><text xml:space="preserve" font-family="Helvetica-Light" font-size="30.0" fill="#4C5B69" transform="matrix(1.00, 0.00, -0.00, -1.00, 264.6, 599.0)">a</text><text xml:space="preserve" font-family="Helvetica-Light" font-size="30.0" fill="#4C5B69" transform="matrix(1.00, 0.00, -0.00, -1.00, 281.3, 599.0)">n</text><text xml:space="preserve" font-family="Helvetica-Light" font-size="30.0" fill="#4C5B69" transform="matrix(1.00, 0.00, -0.00, -1.00, 298.0, 599.0)">g</text><text xml:space="preserve" font-family="Helvetica-Light" font-size="30.0" fill="#4C5B69" transform="matrix(1.00, 0.00, -0.00, -1.00, 316.3, 599.0)">e</text><text xml:space="preserve" font-family="Helvetica-Light" font-size="30.0" fill="#4C5B69" transform="matrix(1.00, 0.00, -0.00, -1.00, 333.0, 599.0)">s</text><text xml:space="preserve" font-family="Helvetica-Light" font-size="30.0" fill="#4C5B69" transform="matrix(1.00, 0.00, -0.00, -1.00, 348.0, 599.0)"> </text><text xml:space="preserve" font-family="Helvetica-Light" font-size="30.0" fill="#4C5B69" transform="matrix(1.00, 0.00, -0.00, -1.00, 356.3, 599.0)">n</text><text xml:space="preserve" font-family="Helvetica-Light" font-size="30.0" fill="#4C5B69" transform="matrix(1.00, 0.00, -0.00, -1.00, 373.0, 599.0)">a</text><text xml:space="preserve" font-family="Helvetica-Light" font-size="30.0" fill="#4C5B69" transform="matrix(1.00, 0.00, -0.00, -1.00, 389.7, 599.0)">m</text><text xml:space="preserve" font-family="Helvetica-Light" font-size="30.0" fill="#4C5B69" transform="matrix(1.00, 0.00, -0.00, -1.00, 414.7, 599.0)">e</text><text xml:space="preserve" font-family="Helvetica-Light" font-size="30.0" fill="#4C5B69" transform="matrix(1.00, 0.00, -0.00, -1.00, 431.4, 599.0)">s</text><text xml:space="preserve" font-family="Helvetica-Light" font-size="30.0" fill="#4C5B69" transform="matrix(1.00, 0.00, -0.00, -1.00, 446.4, 599.0)"> </text><text xml:space="preserve" font-family="Helvetica-Light" font-size="30.0" fill="#4C5B69" transform="matrix(1.00, 0.00, -0.00, -1.00, 454.7, 599.0)">o</text><text xml:space="preserve" font-family="Helvetica-Light" font-size="30.0" fill="#4C5B69" transform="matrix(1.00, 0.00, -0.00, -1.00, 471.4, 599.0)">v</text><text xml:space="preserve" font-family="Helvetica-Light" font-size="30.0" fill="#4C5B69" transform="matrix(1.00, 0.00, -0.00, -1.00, 486.4, 599.0)">e</text><text xml:space="preserve" font-family="Helvetica-Light" font-size="30.0" fill="#4C5B69" transform="matrix(1.00, 0.00, -0.00, -1.00, 503.1, 599.0)">r</text><text xml:space="preserve" font-family="Helvetica-Light" font-size="30.0" fill="#4C5B69" transform="matrix(1.00, 0.00, -0.00, -1.00, 513.0, 599.0)"> </text><text xml:space="preserve" font-family="Helvetica-Light" font-size="30.0" fill="#4C5B69" transform="matrix(1.00, 0.00, -0.00, -1.00, 521.4, 599.0)">t</text><text xml:space="preserve" font-family="Helvetica-Light" font-size="30.0" fill="#4C5B69" transform="matrix(1.00, 0.00, -0.00, -1.00, 529.7, 599.0)">i</text><text xml:space="preserve" font-family="Helvetica-Light" font-size="30.0" fill="#4C5B69" transform="matrix(1.00, 0.00, -0.00, -1.00, 536.4, 599.0)">m</text><text xml:space="preserve" font-family="Helvetica-Light" font-size="30.0" fill="#4C5B69" transform="matrix(1.00, 0.00, -0.00, -1.00, 561.4, 599.0)">e</text><text xml:space="preserve" font-family="Helvetica-Light" font-size="30.0" fill="#4C5B69" transform="matrix(1.00, 0.00, -0.00, -1.00, 578.0, 599.0)"> </text><text xml:space="preserve" font-family="Helvetica-Light" font-size="22.5" fill="#4C5B69" transform="matrix(1.00, 0.00, -0.00, -1.00, 94.4, 562.9)">-</text><text xml:space="preserve" font-family="Helvetica-Light" font-size="30.0" fill="#4C5B69" transform="matrix(1.00, 0.00, -0.00, -1.00, 124.0, 560.0)">A</text><text xml:space="preserve" font-family="Helvetica-Light" font-size="30.0" fill="#4C5B69" transform="matrix(1.00, 0.00, -0.00, -1.00, 144.0, 560.0)">u</text><text xml:space="preserve" font-family="Helvetica-Light" font-size="30.0" fill="#4C5B69" transform="matrix(1.00, 0.00, -0.00, -1.00, 160.7, 560.0)">t</text><text xml:space="preserve" font-family="Helvetica-Light" font-size="30.0" fill="#4C5B69" transform="matrix(1.00, 0.00, -0.00, -1.00, 169.0, 560.0)">h</text><text xml:space="preserve" font-family="Helvetica-Light" font-size="30.0" fill="#4C5B69" transform="matrix(1.00, 0.00, -0.00, -1.00, 185.7, 560.0)">o</text><text xml:space="preserve" font-family="Helvetica-Light" font-size="30.0" fill="#4C5B69" transform="matrix(1.00, 0.00, -0.00, -1.00, 202.4, 560.0)">r</text><text xml:space="preserve" font-family="Helvetica-Light" font-size="30.0" fill="#4C5B69" transform="matrix(1.00, 0.00, -0.00, -1.00, 212.4, 560.0)">s</text><text xml:space="preserve" font-family="Helvetica-Light" font-size="30.0" fill="#4C5B69" transform="matrix(1.00, 0.00, -0.00, -1.00, 227.4, 560.0)"> </text><text xml:space="preserve" font-family="Helvetica-Light" font-size="30.0" fill="#4C5B69" transform="matrix(1.00, 0.00, -0.00, -1.00, 235.7, 560.0)">c</text><text xml:space="preserve" font-family="Helvetica-Light" font-size="30.0" fill="#4C5B69" transform="matrix(1.00, 0.00, -0.00, -1.00, 252.4, 560.0)">h</text><text xml:space="preserve" font-family="Helvetica-Light" font-size="30.0" fill="#4C5B69" transform="matrix(1.00, 0.00, -0.00, -1.00, 269.1, 560.0)">a</text><text xml:space="preserve" font-family="Helvetica-Light" font-size="30.0" fill="#4C5B69" transform="matrix(1.00, 0.00, -0.00, -1.00, 285.8, 560.0)">n</text><text xml:space="preserve" font-family="Helvetica-Light" font-size="30.0" fill="#4C5B69" transform="matrix(1.00, 0.00, -0.00, -1.00, 302.4, 560.0)">g</text><text xml:space="preserve" font-family="Helvetica-Light" font-size="30.0" fill="#4C5B69" transform="matrix(1.00, 0.00, -0.00, -1.00, 320.8, 560.0)">e</text><text xml:space="preserve" font-family="Helvetica-Light" font-size="30.0" fill="#4C5B69" transform="matrix(1.00, 0.00, -0.00, -1.00, 337.5, 560.0)">s</text><text xml:space="preserve" font-family="Helvetica-Light" font-size="30.0" fill="#4C5B69" transform="matrix(1.00, 0.00, -0.00, -1.00, 352.5, 560.0)"> </text><text xml:space="preserve" font-family="Helvetica-Light" font-size="30.0" fill="#4C5B69" transform="matrix(1.00, 0.00, -0.00, -1.00, 360.8, 560.0)">n</text><text xml:space="preserve" font-family="Helvetica-Light" font-size="30.0" fill="#4C5B69" transform="matrix(1.00, 0.00, -0.00, -1.00, 377.5, 560.0)">a</text><text xml:space="preserve" font-family="Helvetica-Light" font-size="30.0" fill="#4C5B69" transform="matrix(1.00, 0.00, -0.00, -1.00, 394.2, 560.0)">m</text><text xml:space="preserve" font-family="Helvetica-Light" font-size="30.0" fill="#4C5B69" transform="matrix(1.00, 0.00, -0.00, -1.00, 419.1, 560.0)">e</text><text xml:space="preserve" font-family="Helvetica-Light" font-size="30.0" fill="#4C5B69" transform="matrix(1.00, 0.00, -0.00, -1.00, 435.8, 560.0)">s</text><text xml:space="preserve" font-family="Helvetica-Light" font-size="30.0" fill="#4C5B69" transform="matrix(1.00, 0.00, -0.00, -1.00, 450.8, 560.0)"> </text><text xml:space="preserve" font-family="Helvetica-Light" font-size="30.0" fill="#4C5B69" transform="matrix(1.00, 0.00, -0.00, -1.00, 459.2, 560.0)">o</text><text xml:space="preserve" font-family="Helvetica-Light" font-size="30.0" fill="#4C5B69" transform="matrix(1.00, 0.00, -0.00, -1.00, 475.8, 560.0)">v</text><text xml:space="preserve" font-family="Helvetica-Light" font-size="30.0" fill="#4C5B69" transform="matrix(1.00, 0.00, -0.00, -1.00, 490.8, 560.0)">e</text><text xml:space="preserve" font-family="Helvetica-Light" font-size="30.0" fill="#4C5B69" transform="matrix(1.00, 0.00, -0.00, -1.00, 507.5, 560.0)">r</text><text xml:space="preserve" font-family="Helvetica-Light" font-size="30.0" fill="#4C5B69" transform="matrix(1.00, 0.00, -0.00, -1.00, 517.5, 560.0)"> </text><text xml:space="preserve" font-family="Helvetica-Light" font-size="30.0" fill="#4C5B69" transform="matrix(1.00, 0.00, -0.00, -1.00, 525.9, 560.0)">t</text><text xml:space="preserve" font-family="Helvetica-Light" font-size="30.0" fill="#4C5B69" transform="matrix(1.00, 0.00, -0.00, -1.00, 534.2, 560.0)">i</text><text xml:space="preserve" font-family="Helvetica-Light" font-size="30.0" fill="#4C5B69" transform="matrix(1.00, 0.00, -0.00, -1.00, 540.9, 560.0)">m</text><text xml:space="preserve" font-family="Helvetica-Light" font-size="30.0" fill="#4C5B69" transform="matrix(1.00, 0.00, -0.00, -1.00, 565.8, 560.0)">e</text><text xml:space="preserve" font-family="Helvetica-Light" font-size="30.0" fill="#4C5B69" transform="matrix(1.00, 0.00, -0.00, -1.00, 582.5, 560.0)"> </text><text xml:space="preserve" font-family="Helvetica-Light" font-size="22.5" fill="#4C5B69" transform="matrix(1.00, 0.00, -0.00, -1.00, 94.4, 523.3)">-</text><text xml:space="preserve" font-family="Helvetica-Light" font-size="30.0" fill="#4C5B69" transform="matrix(1.00, 0.00, -0.00, -1.00, 124.0, 520.0)">S</text><text xml:space="preserve" font-family="Helvetica-Light" font-size="30.0" fill="#4C5B69" transform="matrix(1.00, 0.00, -0.00, -1.00, 142.3, 520.0)">e</text><text xml:space="preserve" font-family="Helvetica-Light" font-size="30.0" fill="#4C5B69" transform="matrix(1.00, 0.00, -0.00, -1.00, 159.0, 520.0)">l</text><text xml:space="preserve" font-family="Helvetica-Light" font-size="30.0" fill="#4C5B69" transform="matrix(1.00, 0.00, -0.00, -1.00, 165.7, 520.0)">f</text><text xml:space="preserve" font-family="Helvetica-Light" font-size="30.0" fill="#4C5B69" transform="matrix(1.00, 0.00, -0.00, -1.00, 174.0, 520.0)">-</text><text xml:space="preserve" font-family="Helvetica-Light" font-size="30.0" fill="#4C5B69" transform="matrix(1.00, 0.00, -0.00, -1.00, 184.0, 520.0)">c</text><text xml:space="preserve" font-family="Helvetica-Light" font-size="30.0" fill="#4C5B69" transform="matrix(1.00, 0.00, -0.00, -1.00, 200.7, 520.0)">i</text><text xml:space="preserve" font-family="Helvetica-Light" font-size="30.0" fill="#4C5B69" transform="matrix(1.00, 0.00, -0.00, -1.00, 207.3, 520.0)">t</text><text xml:space="preserve" font-family="Helvetica-Light" font-size="30.0" fill="#4C5B69" transform="matrix(1.00, 0.00, -0.00, -1.00, 215.7, 520.0)">a</text><text xml:space="preserve" font-family="Helvetica-Light" font-size="30.0" fill="#4C5B69" transform="matrix(1.00, 0.00, -0.00, -1.00, 232.4, 520.0)">t</text><text xml:space="preserve" font-family="Helvetica-Light" font-size="30.0" fill="#4C5B69" transform="matrix(1.00, 0.00, -0.00, -1.00, 240.7, 520.0)">i</text><text xml:space="preserve" font-family="Helvetica-Light" font-size="30.0" fill="#4C5B69" transform="matrix(1.00, 0.00, -0.00, -1.00, 247.4, 520.0)">o</text><text xml:space="preserve" font-family="Helvetica-Light" font-size="30.0" fill="#4C5B69" transform="matrix(1.00, 0.00, -0.00, -1.00, 264.0, 520.0)">n</text><text xml:space="preserve" font-family="Helvetica-Light" font-size="30.0" fill="#4C5B69" transform="matrix(1.00, 0.00, -0.00, -1.00, 280.7, 520.0)"> </text><text xml:space="preserve" font-family="Helvetica-Light" font-size="30.0" fill="#4C5B69" transform="matrix(1.00, 0.00, -0.00, -1.00, 289.1, 520.0)">n</text><text xml:space="preserve" font-family="Helvetica-Light" font-size="30.0" fill="#4C5B69" transform="matrix(1.00, 0.00, -0.00, -1.00, 305.7, 520.0)">o</text><text xml:space="preserve" font-family="Helvetica-Light" font-size="30.0" fill="#4C5B69" transform="matrix(1.00, 0.00, -0.00, -1.00, 322.4, 520.0)">t</text><text xml:space="preserve" font-family="Helvetica-Light" font-size="30.0" fill="#4C5B69" transform="matrix(1.00, 0.00, -0.00, -1.00, 330.8, 520.0)"> </text><text xml:space="preserve" font-family="Helvetica-Light" font-size="30.0" fill="#4C5B69" transform="matrix(1.00, 0.00, -0.00, -1.00, 339.1, 520.0)">i</text><text xml:space="preserve" font-family="Helvetica-Light" font-size="30.0" fill="#4C5B69" transform="matrix(1.00, 0.00, -0.00, -1.00, 345.8, 520.0)">n</text><text xml:space="preserve" font-family="Helvetica-Light" font-size="30.0" fill="#4C5B69" transform="matrix(1.00, 0.00, -0.00, -1.00, 362.4, 520.0)">c</text><text xml:space="preserve" font-family="Helvetica-Light" font-size="30.0" fill="#4C5B69" transform="matrix(1.00, 0.00, -0.00, -1.00, 379.1, 520.0)">l</text><text xml:space="preserve" font-family="Helvetica-Light" font-size="30.0" fill="#4C5B69" transform="matrix(1.00, 0.00, -0.00, -1.00, 385.8, 520.0)">u</text><text xml:space="preserve" font-family="Helvetica-Light" font-size="30.0" fill="#4C5B69" transform="matrix(1.00, 0.00, -0.00, -1.00, 402.5, 520.0)">d</text><text xml:space="preserve" font-family="Helvetica-Light" font-size="30.0" fill="#4C5B69" transform="matrix(1.00, 0.00, -0.00, -1.00, 420.8, 520.0)">e</text><text xml:space="preserve" font-family="Helvetica-Light" font-size="30.0" fill="#4C5B69" transform="matrix(1.00, 0.00, -0.00, -1.00, 437.5, 520.0)">d</text><text xml:space="preserve" font-family="Helvetica-Light" font-size="30.0" fill="#4C5B69" transform="matrix(1.00, 0.00, -0.00, -1.00, 455.8, 520.0)"> </text><text xml:space="preserve" font-family="Helvetica-Light" font-size="22.5" fill="#4C5B69" transform="matrix(1.00, 0.00, -0.00, -1.00, 94.4, 483.7)">-</text><text xml:space="preserve" font-family="Helvetica-Light" font-size="30.0" fill="#4C5B69" transform="matrix(1.00, 0.00, -0.00, -1.00, 124.0, 480.0)">N</text><text xml:space="preserve" font-family="Helvetica-Light" font-size="30.0" fill="#4C5B69" transform="matrix(1.00, 0.00, -0.00, -1.00, 145.7, 480.0)">o</text><text xml:space="preserve" font-family="Helvetica-Light" font-size="30.0" fill="#4C5B69" transform="matrix(1.00, 0.00, -0.00, -1.00, 162.3, 480.0)">t</text><text xml:space="preserve" font-family="Helvetica-Light" font-size="30.0" fill="#4C5B69" transform="matrix(1.00, 0.00, -0.00, -1.00, 170.7, 480.0)"> </text><text xml:space="preserve" font-family="Helvetica-Light" font-size="30.0" fill="#4C5B69" transform="matrix(1.00, 0.00, -0.00, -1.00, 179.0, 480.0)">i</text><text xml:space="preserve" font-family="Helvetica-Light" font-size="30.0" fill="#4C5B69" transform="matrix(1.00, 0.00, -0.00, -1.00, 185.7, 480.0)">t</text><text xml:space="preserve" font-family="Helvetica-Light" font-size="30.0" fill="#4C5B69" transform="matrix(1.00, 0.00, -0.00, -1.00, 194.0, 480.0)">e</text><text xml:space="preserve" font-family="Helvetica-Light" font-size="30.0" fill="#4C5B69" transform="matrix(1.00, 0.00, -0.00, -1.00, 210.7, 480.0)">m</text><text xml:space="preserve" font-family="Helvetica-Light" font-size="30.0" fill="#4C5B69" transform="matrix(1.00, 0.00, -0.00, -1.00, 235.7, 480.0)"> </text><text xml:space="preserve" font-family="Helvetica-Light" font-size="30.0" fill="#4C5B69" transform="matrix(1.00, 0.00, -0.00, -1.00, 244.0, 480.0)">b</text><text xml:space="preserve" font-family="Helvetica-Light" font-size="30.0" fill="#4C5B69" transform="matrix(1.00, 0.00, -0.00, -1.00, 262.4, 480.0)">y</text><text xml:space="preserve" font-family="Helvetica-Light" font-size="30.0" fill="#4C5B69" transform="matrix(1.00, 0.00, -0.00, -1.00, 277.4, 480.0)"> </text><text xml:space="preserve" font-family="Helvetica-Light" font-size="30.0" fill="#4C5B69" transform="matrix(1.00, 0.00, -0.00, -1.00, 285.7, 480.0)">i</text><text xml:space="preserve" font-family="Helvetica-Light" font-size="30.0" fill="#4C5B69" transform="matrix(1.00, 0.00, -0.00, -1.00, 292.4, 480.0)">t</text><text xml:space="preserve" font-family="Helvetica-Light" font-size="30.0" fill="#4C5B69" transform="matrix(1.00, 0.00, -0.00, -1.00, 300.7, 480.0)">e</text><text xml:space="preserve" font-family="Helvetica-Light" font-size="30.0" fill="#4C5B69" transform="matrix(1.00, 0.00, -0.00, -1.00, 317.4, 480.0)">m</text><text xml:space="preserve" font-family="Helvetica-Light" font-size="30.0" fill="#4C5B69" transform="matrix(1.00, 0.00, -0.00, -1.00, 342.4, 480.0)"> </text><text xml:space="preserve" font-family="Helvetica-Light" font-size="30.0" fill="#4C5B69" transform="matrix(1.00, 0.00, -0.00, -1.00, 350.7, 480.0)">i</text><text xml:space="preserve" font-family="Helvetica-Light" font-size="30.0" fill="#4C5B69" transform="matrix(1.00, 0.00, -0.00, -1.00, 357.4, 480.0)">m</text><text xml:space="preserve" font-family="Helvetica-Light" font-size="30.0" fill="#4C5B69" transform="matrix(1.00, 0.00, -0.00, -1.00, 382.4, 480.0)">p</text><text xml:space="preserve" font-family="Helvetica-Light" font-size="30.0" fill="#4C5B69" transform="matrix(1.00, 0.00, -0.00, -1.00, 400.7, 480.0)">a</text><text xml:space="preserve" font-family="Helvetica-Light" font-size="30.0" fill="#4C5B69" transform="matrix(1.00, 0.00, -0.00, -1.00, 417.4, 480.0)">c</text><text xml:space="preserve" font-family="Helvetica-Light" font-size="30.0" fill="#4C5B69" transform="matrix(1.00, 0.00, -0.00, -1.00, 434.1, 480.0)">t</text><text xml:space="preserve" font-family="Helvetica-Light" font-size="30.0" fill="#4C5B69" transform="matrix(1.00, 0.00, -0.00, -1.00, 442.4, 480.0)"> </text><text xml:space="preserve" font-family="HelveticaNeue-Medium" font-size="50.0" fill="#4C5B69" transform="matrix(1.00, 0.00, -0.00, -1.00, 87.0, 315.0)">H</text><text xml:space="preserve" font-family="HelveticaNeue-Medium" font-size="50.0" fill="#4C5B69" transform="matrix(1.00, 0.00, -0.00, -1.00, 123.1, 315.0)">-</text><text xml:space="preserve" font-family="HelveticaNeue-Medium" font-size="50.0" fill="#4C5B69" transform="matrix(1.00, 0.00, -0.00, -1.00, 142.6, 315.0)">I</text><text xml:space="preserve" font-family="HelveticaNeue-Medium" font-size="50.0" fill="#4C5B69" transform="matrix(1.00, 0.00, -0.00, -1.00, 156.4, 315.0)">N</text><text xml:space="preserve" font-family="HelveticaNeue-Medium" font-size="50.0" fill="#4C5B69" transform="matrix(1.00, 0.00, -0.00, -1.00, 192.6, 315.0)">D</text><text xml:space="preserve" font-family="HelveticaNeue-Medium" font-size="50.0" fill="#4C5B69" transform="matrix(1.00, 0.00, -0.00, -1.00, 228.7, 315.0)">E</text><text xml:space="preserve" font-family="HelveticaNeue-Medium" font-size="50.0" fill="#4C5B69" transform="matrix(1.00, 0.00, -0.00, -1.00, 260.1, 315.0)">X</text><text xml:space="preserve" font-family="Helvetica-Light" font-size="22.5" fill="#4C5B69" transform="matrix(1.00, 0.00, -0.00, -1.00, 91.0, 271.9)">-</text><text xml:space="preserve" font-family="Helvetica-Light" font-size="30.0" fill="#4C5B69" transform="matrix(1.00, 0.00, -0.00, -1.00, 120.0, 269.0)">O</text><text xml:space="preserve" font-family="Helvetica-Light" font-size="30.0" fill="#4C5B69" transform="matrix(1.00, 0.00, -0.00, -1.00, 143.3, 269.0)">n</text><text xml:space="preserve" font-family="Helvetica-Light" font-size="30.0" fill="#4C5B69" transform="matrix(1.00, 0.00, -0.00, -1.00, 160.0, 269.0)">l</text><text xml:space="preserve" font-family="Helvetica-Light" font-size="30.0" fill="#4C5B69" transform="matrix(1.00, 0.00, -0.00, -1.00, 166.7, 269.0)">y</text><text xml:space="preserve" font-family="Helvetica-Light" font-size="30.0" fill="#4C5B69" transform="matrix(1.00, 0.00, -0.00, -1.00, 181.7, 269.0)"> </text><text xml:space="preserve" font-family="Helvetica-Light" font-size="30.0" fill="#4C5B69" transform="matrix(1.00, 0.00, -0.00, -1.00, 190.0, 269.0)">q</text><text xml:space="preserve" font-family="Helvetica-Light" font-size="30.0" fill="#4C5B69" transform="matrix(1.00, 0.00, -0.00, -1.00, 208.3, 269.0)">u</text><text xml:space="preserve" font-family="Helvetica-Light" font-size="30.0" fill="#4C5B69" transform="matrix(1.00, 0.00, -0.00, -1.00, 225.0, 269.0)">a</text><text xml:space="preserve" font-family="Helvetica-Light" font-size="30.0" fill="#4C5B69" transform="matrix(1.00, 0.00, -0.00, -1.00, 241.7, 269.0)">n</text><text xml:space="preserve" font-family="Helvetica-Light" font-size="30.0" fill="#4C5B69" transform="matrix(1.00, 0.00, -0.00, -1.00, 258.4, 269.0)">t</text><text xml:space="preserve" font-family="Helvetica-Light" font-size="30.0" fill="#4C5B69" transform="matrix(1.00, 0.00, -0.00, -1.00, 266.7, 269.0)">i</text><text xml:space="preserve" font-family="Helvetica-Light" font-size="30.0" fill="#4C5B69" transform="matrix(1.00, 0.00, -0.00, -1.00, 273.4, 269.0)">t</text><text xml:space="preserve" font-family="Helvetica-Light" font-size="30.0" fill="#4C5B69" transform="matrix(1.00, 0.00, -0.00, -1.00, 281.7, 269.0)">a</text><text xml:space="preserve" font-family="Helvetica-Light" font-size="30.0" fill="#4C5B69" transform="matrix(1.00, 0.00, -0.00, -1.00, 298.4, 269.0)">t</text><text xml:space="preserve" font-family="Helvetica-Light" font-size="30.0" fill="#4C5B69" transform="matrix(1.00, 0.00, -0.00, -1.00, 306.8, 269.0)">i</text><text xml:space="preserve" font-family="Helvetica-Light" font-size="30.0" fill="#4C5B69" transform="matrix(1.00, 0.00, -0.00, -1.00, 313.4, 269.0)">v</text><text xml:space="preserve" font-family="Helvetica-Light" font-size="30.0" fill="#4C5B69" transform="matrix(1.00, 0.00, -0.00, -1.00, 328.4, 269.0)">e</text><text xml:space="preserve" font-family="Helvetica-Light" font-size="30.0" fill="#4C5B69" transform="matrix(1.00, 0.00, -0.00, -1.00, 345.1, 269.0)"> </text><text xml:space="preserve" font-family="Helvetica-Light" font-size="22.5" fill="#4C5B69" transform="matrix(1.00, 0.00, -0.00, -1.00, 91.0, 232.3)">-</text><text xml:space="preserve" font-family="Helvetica-Light" font-size="30.0" fill="#4C5B69" transform="matrix(1.00, 0.00, -0.00, -1.00, 120.0, 229.0)">D</text><text xml:space="preserve" font-family="Helvetica-Light" font-size="30.0" fill="#4C5B69" transform="matrix(1.00, 0.00, -0.00, -1.00, 141.7, 229.0)">o</text><text xml:space="preserve" font-family="Helvetica-Light" font-size="30.0" fill="#4C5B69" transform="matrix(1.00, 0.00, -0.00, -1.00, 158.3, 229.0)">e</text><text xml:space="preserve" font-family="Helvetica-Light" font-size="30.0" fill="#4C5B69" transform="matrix(1.00, 0.00, -0.00, -1.00, 175.0, 229.0)">s</text><text xml:space="preserve" font-family="Helvetica-Light" font-size="30.0" fill="#4C5B69" transform="matrix(1.00, 0.00, -0.00, -1.00, 190.0, 229.0)">n</text><text xml:space="preserve" font-family="Helvetica-Light" font-size="30.0" fill="#4C5B69" transform="matrix(1.00, 0.00, -0.00, -1.00, 206.7, 229.0)">’</text><text xml:space="preserve" font-family="Helvetica-Light" font-size="30.0" fill="#4C5B69" transform="matrix(1.00, 0.00, -0.00, -1.00, 212.8, 229.0)">t</text><text xml:space="preserve" font-family="Helvetica-Light" font-size="30.0" fill="#4C5B69" transform="matrix(1.00, 0.00, -0.00, -1.00, 221.2, 229.0)"> </text><text xml:space="preserve" font-family="Helvetica-Light" font-size="30.0" fill="#4C5B69" transform="matrix(1.00, 0.00, -0.00, -1.00, 229.5, 229.0)">r</text><text xml:space="preserve" font-family="Helvetica-Light" font-size="30.0" fill="#4C5B69" transform="matrix(1.00, 0.00, -0.00, -1.00, 238.9, 229.0)">e</text><text xml:space="preserve" font-family="Helvetica-Light" font-size="30.0" fill="#4C5B69" transform="matrix(1.00, 0.00, -0.00, -1.00, 255.6, 229.0)">a</text><text xml:space="preserve" font-family="Helvetica-Light" font-size="30.0" fill="#4C5B69" transform="matrix(1.00, 0.00, -0.00, -1.00, 272.3, 229.0)">l</text><text xml:space="preserve" font-family="Helvetica-Light" font-size="30.0" fill="#4C5B69" transform="matrix(1.00, 0.00, -0.00, -1.00, 279.0, 229.0)">l</text><text xml:space="preserve" font-family="Helvetica-Light" font-size="30.0" fill="#4C5B69" transform="matrix(1.00, 0.00, -0.00, -1.00, 285.6, 229.0)">y</text><text xml:space="preserve" font-family="Helvetica-Light" font-size="30.0" fill="#4C5B69" transform="matrix(1.00, 0.00, -0.00, -1.00, 300.6, 229.0)"> </text><text xml:space="preserve" font-family="Helvetica-Light" font-size="30.0" fill="#4C5B69" transform="matrix(1.00, 0.00, -0.00, -1.00, 309.0, 229.0)">a</text><text xml:space="preserve" font-family="Helvetica-Light" font-size="30.0" fill="#4C5B69" transform="matrix(1.00, 0.00, -0.00, -1.00, 325.6, 229.0)">d</text><text xml:space="preserve" font-family="Helvetica-Light" font-size="30.0" fill="#4C5B69" transform="matrix(1.00, 0.00, -0.00, -1.00, 344.0, 229.0)">d</text><text xml:space="preserve" font-family="Helvetica-Light" font-size="30.0" fill="#4C5B69" transform="matrix(1.00, 0.00, -0.00, -1.00, 362.3, 229.0)"> </text><text xml:space="preserve" font-family="Helvetica-Light" font-size="30.0" fill="#4C5B69" transform="matrix(1.00, 0.00, -0.00, -1.00, 370.6, 229.0)">s</text><text xml:space="preserve" font-family="Helvetica-Light" font-size="30.0" fill="#4C5B69" transform="matrix(1.00, 0.00, -0.00, -1.00, 385.6, 229.0)">o</text><text xml:space="preserve" font-family="Helvetica-Light" font-size="30.0" fill="#4C5B69" transform="matrix(1.00, 0.00, -0.00, -1.00, 402.3, 229.0)"> </text><text xml:space="preserve" font-family="Helvetica-Light" font-size="30.0" fill="#4C5B69" transform="matrix(1.00, 0.00, -0.00, -1.00, 410.7, 229.0)">m</text><text xml:space="preserve" font-family="Helvetica-Light" font-size="30.0" fill="#4C5B69" transform="matrix(1.00, 0.00, -0.00, -1.00, 435.7, 229.0)">u</text><text xml:space="preserve" font-family="Helvetica-Light" font-size="30.0" fill="#4C5B69" transform="matrix(1.00, 0.00, -0.00, -1.00, 452.3, 229.0)">c</text><text xml:space="preserve" font-family="Helvetica-Light" font-size="30.0" fill="#4C5B69" transform="matrix(1.00, 0.00, -0.00, -1.00, 469.0, 229.0)">h</text><text xml:space="preserve" font-family="Helvetica-Light" font-size="30.0" fill="#4C5B69" transform="matrix(1.00, 0.00, -0.00, -1.00, 485.7, 229.0)"> </text><text xml:space="preserve" font-family="Helvetica-Light" font-size="30.0" fill="#4C5B69" transform="matrix(1.00, 0.00, -0.00, -1.00, 494.0, 229.0)">i</text><text xml:space="preserve" font-family="Helvetica-Light" font-size="30.0" fill="#4C5B69" transform="matrix(1.00, 0.00, -0.00, -1.00, 500.7, 229.0)">n</text><text xml:space="preserve" font-family="Helvetica-Light" font-size="30.0" fill="#4C5B69" transform="matrix(1.00, 0.00, -0.00, -1.00, 517.4, 229.0)"> </text><text xml:space="preserve" font-family="Helvetica-Light" font-size="30.0" fill="#4C5B69" transform="matrix(1.00, 0.00, -0.00, -1.00, 525.7, 229.0)">r</text><text xml:space="preserve" font-family="Helvetica-Light" font-size="30.0" fill="#4C5B69" transform="matrix(1.00, 0.00, -0.00, -1.00, 535.2, 229.0)">e</text><text xml:space="preserve" font-family="Helvetica-Light" font-size="30.0" fill="#4C5B69" transform="matrix(1.00, 0.00, -0.00, -1.00, 551.8, 229.0)">s</text><text xml:space="preserve" font-family="Helvetica-Light" font-size="30.0" fill="#4C5B69" transform="matrix(1.00, 0.00, -0.00, -1.00, 566.8, 229.0)">p</text><text xml:space="preserve" font-family="Helvetica-Light" font-size="30.0" fill="#4C5B69" transform="matrix(1.00, 0.00, -0.00, -1.00, 585.2, 229.0)">e</text><text xml:space="preserve" font-family="Helvetica-Light" font-size="30.0" fill="#4C5B69" transform="matrix(1.00, 0.00, -0.00, -1.00, 601.9, 229.0)">c</text><text xml:space="preserve" font-family="Helvetica-Light" font-size="30.0" fill="#4C5B69" transform="matrix(1.00, 0.00, -0.00, -1.00, 618.5, 229.0)">t</text><text xml:space="preserve" font-family="Helvetica-Light" font-size="30.0" fill="#4C5B69" transform="matrix(1.00, 0.00, -0.00, -1.00, 626.9, 229.0)"> </text><text xml:space="preserve" font-family="Helvetica-Light" font-size="30.0" fill="#4C5B69" transform="matrix(1.00, 0.00, -0.00, -1.00, 635.2, 229.0)">t</text><text xml:space="preserve" font-family="Helvetica-Light" font-size="30.0" fill="#4C5B69" transform="matrix(1.00, 0.00, -0.00, -1.00, 643.6, 229.0)">o</text><text xml:space="preserve" font-family="Helvetica-Light" font-size="30.0" fill="#4C5B69" transform="matrix(1.00, 0.00, -0.00, -1.00, 660.2, 229.0)"> </text><text xml:space="preserve" font-family="Helvetica-Light" font-size="30.0" fill="#4C5B69" transform="matrix(1.00, 0.00, -0.00, -1.00, 668.6, 229.0)">n</text><text xml:space="preserve" font-family="Helvetica-Light" font-size="30.0" fill="#4C5B69" transform="matrix(1.00, 0.00, -0.00, -1.00, 685.3, 229.0)">u</text><text xml:space="preserve" font-family="Helvetica-Light" font-size="30.0" fill="#4C5B69" transform="matrix(1.00, 0.00, -0.00, -1.00, 701.9, 229.0)">m</text><text xml:space="preserve" font-family="Helvetica-Light" font-size="30.0" fill="#4C5B69" transform="matrix(1.00, 0.00, -0.00, -1.00, 726.9, 229.0)">b</text><text xml:space="preserve" font-family="Helvetica-Light" font-size="30.0" fill="#4C5B69" transform="matrix(1.00, 0.00, -0.00, -1.00, 745.3, 229.0)">e</text><text xml:space="preserve" font-family="Helvetica-Light" font-size="30.0" fill="#4C5B69" transform="matrix(1.00, 0.00, -0.00, -1.00, 761.9, 229.0)">r</text><text xml:space="preserve" font-family="Helvetica-Light" font-size="30.0" fill="#4C5B69" transform="matrix(1.00, 0.00, -0.00, -1.00, 771.9, 229.0)"> </text><text xml:space="preserve" font-family="Helvetica-Light" font-size="30.0" fill="#4C5B69" transform="matrix(1.00, 0.00, -0.00, -1.00, 780.3, 229.0)">o</text><text xml:space="preserve" font-family="Helvetica-Light" font-size="30.0" fill="#4C5B69" transform="matrix(1.00, 0.00, -0.00, -1.00, 796.9, 229.0)">f</text><text xml:space="preserve" font-family="Helvetica-Light" font-size="30.0" fill="#4C5B69" transform="matrix(1.00, 0.00, -0.00, -1.00, 805.3, 229.0)"> </text><text xml:space="preserve" font-family="Helvetica-Light" font-size="30.0" fill="#4C5B69" transform="matrix(1.00, 0.00, -0.00, -1.00, 813.6, 229.0)">c</text><text xml:space="preserve" font-family="Helvetica-Light" font-size="30.0" fill="#4C5B69" transform="matrix(1.00, 0.00, -0.00, -1.00, 830.3, 229.0)">i</text><text xml:space="preserve" font-family="Helvetica-Light" font-size="30.0" fill="#4C5B69" transform="matrix(1.00, 0.00, -0.00, -1.00, 837.0, 229.0)">t</text><text xml:space="preserve" font-family="Helvetica-Light" font-size="30.0" fill="#4C5B69" transform="matrix(1.00, 0.00, -0.00, -1.00, 845.3, 229.0)">a</text><text xml:space="preserve" font-family="Helvetica-Light" font-size="30.0" fill="#4C5B69" transform="matrix(1.00, 0.00, -0.00, -1.00, 862.0, 229.0)">t</text><text xml:space="preserve" font-family="Helvetica-Light" font-size="30.0" fill="#4C5B69" transform="matrix(1.00, 0.00, -0.00, -1.00, 870.3, 229.0)">i</text><text xml:space="preserve" font-family="Helvetica-Light" font-size="30.0" fill="#4C5B69" transform="matrix(1.00, 0.00, -0.00, -1.00, 877.0, 229.0)">o</text><text xml:space="preserve" font-family="Helvetica-Light" font-size="30.0" fill="#4C5B69" transform="matrix(1.00, 0.00, -0.00, -1.00, 893.7, 229.0)">n</text><text xml:space="preserve" font-family="Helvetica-Light" font-size="30.0" fill="#4C5B69" transform="matrix(1.00, 0.00, -0.00, -1.00, 910.3, 229.0)">s</text><text xml:space="preserve" font-family="Helvetica-Light" font-size="30.0" fill="#4C5B69" transform="matrix(1.00, 0.00, -0.00, -1.00, 925.3, 229.0)"> </text><text xml:space="preserve" font-family="Helvetica-Light" font-size="22.5" fill="#4C5B69" transform="matrix(1.00, 0.00, -0.00, -1.00, 91.0, 192.7)">-</text><text xml:space="preserve" font-family="Helvetica-Light" font-size="30.0" fill="#4C5B69" transform="matrix(1.00, 0.00, -0.00, -1.00, 120.0, 189.0)">P</text><text xml:space="preserve" font-family="Helvetica-Light" font-size="30.0" fill="#4C5B69" transform="matrix(1.00, 0.00, -0.00, -1.00, 138.3, 189.0)">o</text><text xml:space="preserve" font-family="Helvetica-Light" font-size="30.0" fill="#4C5B69" transform="matrix(1.00, 0.00, -0.00, -1.00, 155.0, 189.0)">s</text><text xml:space="preserve" font-family="Helvetica-Light" font-size="30.0" fill="#4C5B69" transform="matrix(1.00, 0.00, -0.00, -1.00, 170.0, 189.0)">s</text><text xml:space="preserve" font-family="Helvetica-Light" font-size="30.0" fill="#4C5B69" transform="matrix(1.00, 0.00, -0.00, -1.00, 185.0, 189.0)">i</text><text xml:space="preserve" font-family="Helvetica-Light" font-size="30.0" fill="#4C5B69" transform="matrix(1.00, 0.00, -0.00, -1.00, 191.7, 189.0)">b</text><text xml:space="preserve" font-family="Helvetica-Light" font-size="30.0" fill="#4C5B69" transform="matrix(1.00, 0.00, -0.00, -1.00, 210.0, 189.0)">l</text><text xml:space="preserve" font-family="Helvetica-Light" font-size="30.0" fill="#4C5B69" transform="matrix(1.00, 0.00, -0.00, -1.00, 216.7, 189.0)">e</text><text xml:space="preserve" font-family="Helvetica-Light" font-size="30.0" fill="#4C5B69" transform="matrix(1.00, 0.00, -0.00, -1.00, 233.3, 189.0)"> </text><text xml:space="preserve" font-family="Helvetica-Light" font-size="30.0" fill="#4C5B69" transform="matrix(1.00, 0.00, -0.00, -1.00, 241.7, 189.0)">L</text><text xml:space="preserve" font-family="Helvetica-Light" font-size="30.0" fill="#4C5B69" transform="matrix(1.00, 0.00, -0.00, -1.00, 258.4, 189.0)">i</text><text xml:space="preserve" font-family="Helvetica-Light" font-size="30.0" fill="#4C5B69" transform="matrix(1.00, 0.00, -0.00, -1.00, 265.0, 189.0)">n</text><text xml:space="preserve" font-family="Helvetica-Light" font-size="30.0" fill="#4C5B69" transform="matrix(1.00, 0.00, -0.00, -1.00, 281.7, 189.0)">k</text><text xml:space="preserve" font-family="Helvetica-Light" font-size="30.0" fill="#4C5B69" transform="matrix(1.00, 0.00, -0.00, -1.00, 296.7, 189.0)"> </text><text xml:space="preserve" font-family="Helvetica-Light" font-size="30.0" fill="#4C5B69" transform="matrix(1.00, 0.00, -0.00, -1.00, 305.0, 189.0)">F</text><text xml:space="preserve" font-family="Helvetica-Light" font-size="30.0" fill="#4C5B69" transform="matrix(1.00, 0.00, -0.00, -1.00, 321.7, 189.0)">a</text><text xml:space="preserve" font-family="Helvetica-Light" font-size="30.0" fill="#4C5B69" transform="matrix(1.00, 0.00, -0.00, -1.00, 338.4, 189.0)">r</text><text xml:space="preserve" font-family="Helvetica-Light" font-size="30.0" fill="#4C5B69" transform="matrix(1.00, 0.00, -0.00, -1.00, 348.9, 189.0)">m</text><text xml:space="preserve" font-family="Helvetica-Light" font-size="30.0" fill="#4C5B69" transform="matrix(1.00, 0.00, -0.00, -1.00, 373.9, 189.0)"> </text><text xml:space="preserve" font-family="Helvetica-Light" font-size="30.0" fill="#4C5B69" transform="matrix(1.00, 0.00, -0.00, -1.00, 382.3, 189.0)">A</text><text xml:space="preserve" font-family="Helvetica-Light" font-size="30.0" fill="#4C5B69" transform="matrix(1.00, 0.00, -0.00, -1.00, 402.3, 189.0)">b</text><text xml:space="preserve" font-family="Helvetica-Light" font-size="30.0" fill="#4C5B69" transform="matrix(1.00, 0.00, -0.00, -1.00, 420.6, 189.0)">u</text><text xml:space="preserve" font-family="Helvetica-Light" font-size="30.0" fill="#4C5B69" transform="matrix(1.00, 0.00, -0.00, -1.00, 437.3, 189.0)">s</text><text xml:space="preserve" font-family="Helvetica-Light" font-size="30.0" fill="#4C5B69" transform="matrix(1.00, 0.00, -0.00, -1.00, 452.3, 189.0)">e</text><text xml:space="preserve" font-family="Helvetica-Light" font-size="30.0" fill="#4C5B69" transform="matrix(1.00, 0.00, -0.00, -1.00, 469.0, 189.0)"> </text><text xml:space="preserve" font-family="Helvetica-Light" font-size="30.0" fill="#4C5B69" transform="matrix(1.00, 0.00, -0.00, -1.00, 477.3, 189.0)">(</text><text xml:space="preserve" font-family="Helvetica-Light" font-size="30.0" fill="#4C5B69" transform="matrix(1.00, 0.00, -0.00, -1.00, 487.3, 189.0)">S</text><text xml:space="preserve" font-family="Helvetica-Light" font-size="30.0" fill="#4C5B69" transform="matrix(1.00, 0.00, -0.00, -1.00, 505.6, 189.0)">C</text><text xml:space="preserve" font-family="Helvetica-Light" font-size="30.0" fill="#4C5B69" transform="matrix(1.00, 0.00, -0.00, -1.00, 527.3, 189.0)">I</text><text xml:space="preserve" font-family="Helvetica-Light" font-size="30.0" fill="#4C5B69" transform="matrix(1.00, 0.00, -0.00, -1.00, 535.6, 189.0)">g</text><text xml:space="preserve" font-family="Helvetica-Light" font-size="30.0" fill="#4C5B69" transform="matrix(1.00, 0.00, -0.00, -1.00, 554.0, 189.0)">e</text><text xml:space="preserve" font-family="Helvetica-Light" font-size="30.0" fill="#4C5B69" transform="matrix(1.00, 0.00, -0.00, -1.00, 570.6, 189.0)">n</text><text xml:space="preserve" font-family="Helvetica-Light" font-size="30.0" fill="#4C5B69" transform="matrix(1.00, 0.00, -0.00, -1.00, 587.3, 189.0)">)</text><g><clipPath id="clip-282"><path d="M 486.4 185.4 L 587.5 185.4 L 587.5 188.9 L 486.4 188.9 Z M 486.4 185.4 "></path></clipPath><g clip-path="url(#clip-282)"><path d="M 396.5 110.6 L 496.5 110.6 " fill="none" stroke="#4C5B69" stroke-width="1.50" stroke-miterlimit="0.00" transform="matrix(1.00, 0.00, 0.00, -1.00, 91.0, 297.7)"></path></g></g></g></svg>