<?xml version="1.0" encoding="UTF-8" standalone="no"?><svg xmlns="http://www.w3.org/2000/svg" xmlns:xlink="http://www.w3.org/1999/xlink" clip-rule="evenodd" stroke-miterlimit="4.00" viewBox="0 0 1024 768"><desc>SVG generated by Keynote</desc><defs></defs><g transform="matrix(1.00, 0.00, -0.00, -1.00, 0.0, 768.0)"><path d="M 0.0 768.0 L 1024.0 768.0 L 1024.0 0.0 L 0.0 0.0 Z M 0.0 768.0 " fill="#F3F3F3"></path><path d="M 35.5 734.0 L 988.5 734.0 L 988.5 34.0 L 35.5 34.0 Z M 35.5 734.0 " fill="#FEFFFE"></path><path d="M 35.3 639.7 L 988.7 639.7 L 988.7 128.3 L 35.3 128.3 Z M 35.3 639.7 " fill="#FEFFFF"></path><g><clipPath id="clip-351"><path d="M 71.7 255.8 L 959.7 255.8 L 959.7 524.7 L 71.7 524.7 Z M 71.7 255.8 "></path></clipPath><g clip-path="url(#clip-351)"><image xlink:href="../../3805EC89-877D-4278-9819-49AC8C07AD6B/assets/0EDFDDB899657439BF12F937D335C053.png" width="886.00" height="267.00" transform="matrix(1.00, 0.00, -0.00, -1.00, 72.7, 523.7)" opacity="0.50"></image><path d="M 105.6 514.7 L 925.8 514.7 C 932.3 514.7 935.7 514.7 939.2 513.5 C 943.1 512.1 946.1 509.1 947.6 505.2 C 948.7 501.6 948.7 498.3 948.7 491.6 L 948.7 290.7 C 948.7 284.1 948.7 280.8 947.6 277.2 C 946.1 273.4 943.1 270.3 939.2 268.9 C 935.7 267.8 932.3 267.8 925.7 267.8 L 105.6 267.8 C 99.0 267.8 95.7 267.8 92.1 268.9 C 88.3 270.3 85.2 273.4 83.8 277.2 C 82.7 280.8 82.7 284.1 82.7 290.8 L 82.7 491.7 C 82.7 498.3 82.7 501.6 83.8 505.2 C 85.2 509.1 88.3 512.1 92.1 513.5 C 95.7 514.7 99.0 514.7 105.7 514.7 Z M 105.6 514.7 " fill="#F3F3F3"></path></g></g><g><clipPath id="clip-352"><path d="M 763.5 325.2 L 907.2 325.2 L 907.2 469.0 L 763.5 469.0 Z M 763.5 325.2 "></path></clipPath><g clip-path="url(#clip-352)"><image xlink:href="../../3805EC89-877D-4278-9819-49AC8C07AD6B/assets/13A501C759D1962E76CCB1859B0BB275.png" width="144.00" height="144.00" transform="matrix(1.00, 0.00, -0.00, -1.00, 763.0, 469.0)"></image></g></g><g><clipPath id="clip-353"><path d="M 111.0 467.0 L 280.0 467.0 L 280.0 301.0 L 111.0 301.0 Z M 110.9 466.9 "></path></clipPath><g clip-path="url(#clip-353)"><g><clipPath id="clip-354"><path d="M 110.9 301.1 L 280.0 301.1 L 280.0 466.9 L 110.9 466.9 Z M 110.9 301.1 "></path></clipPath><g clip-path="url(#clip-354)"><image xlink:href="../../3805EC89-877D-4278-9819-49AC8C07AD6B/assets/9CF67FE99FE9FF539374B9F0F666D98E.png" width="316.00" height="165.00" transform="matrix(1.00, 0.00, -0.00, -1.01, 38.0, 467.0)"></image></g></g></g></g><g><clipPath id="clip-355"><path d="M 129.9 541.1 L 162.2 541.1 L 162.2 580.7 L 129.9 580.7 Z M 129.9 541.1 "></path></clipPath><g clip-path="url(#clip-355)"><image xlink:href="89C29D71ADF027E68F63B217455B5EAD.png" width="32.00" height="40.00" transform="matrix(1.00, 0.00, -0.00, -1.00, 130.0, 581.0)"></image></g></g><g><clipPath id="clip-356"><path d="M 172.0 541.1 L 211.6 541.1 L 211.6 580.7 L 172.0 580.7 Z M 172.0 541.1 "></path></clipPath><g clip-path="url(#clip-356)"><image xlink:href="42D099B72072ABD0B258E8F31640E780.png" width="40.00" height="40.00" transform="matrix(1.00, 0.00, -0.00, -1.00, 172.0, 581.0)"></image></g></g><g><clipPath id="clip-357"><path d="M 819.8 541.1 L 852.1 541.1 L 852.1 580.7 L 819.8 580.7 Z M 819.8 541.1 "></path></clipPath><g clip-path="url(#clip-357)"><image xlink:href="../../3805EC89-877D-4278-9819-49AC8C07AD6B/assets/89C29D71ADF027E68F63B217455B5EAD.png" width="32.00" height="40.00" transform="matrix(1.00, 0.00, -0.00, -1.00, 820.0, 581.0)"></image></g></g><g><clipPath id="clip-358"><path d="M 861.8 541.1 L 901.4 541.1 L 901.4 580.7 L 861.8 580.7 Z M 861.8 541.1 "></path></clipPath><g clip-path="url(#clip-358)"><image xlink:href="../../3805EC89-877D-4278-9819-49AC8C07AD6B/assets/42D099B72072ABD0B258E8F31640E780.png" width="40.00" height="40.00" transform="matrix(0.98, 0.00, -0.00, -1.00, 862.0, 581.0)"></image></g></g><g><clipPath id="clip-359"><path d="M 221.3 537.6 L 260.9 537.6 L 260.9 584.3 L 221.3 584.3 Z M 221.3 537.6 "></path></clipPath><g clip-path="url(#clip-359)"><image xlink:href="E3A59948DF75C289BE94EEA907233D13.png" width="39.00" height="47.00" transform="matrix(1.03, 0.00, -0.00, -0.98, 221.0, 584.0)"></image></g></g><g><clipPath id="clip-360"><path d="M 452.1 541.1 L 484.3 541.1 L 484.3 580.7 L 452.1 580.7 Z M 452.1 541.1 "></path></clipPath><g clip-path="url(#clip-360)"><image xlink:href="../../3805EC89-877D-4278-9819-49AC8C07AD6B/assets/89C29D71ADF027E68F63B217455B5EAD.png" width="32.00" height="40.00" transform="matrix(1.00, 0.00, -0.00, -1.00, 452.0, 581.0)"></image></g></g><g><clipPath id="clip-361"><path d="M 494.1 541.1 L 533.7 541.1 L 533.7 580.7 L 494.1 580.7 Z M 494.1 541.1 "></path></clipPath><g clip-path="url(#clip-361)"><image xlink:href="../../3805EC89-877D-4278-9819-49AC8C07AD6B/assets/42D099B72072ABD0B258E8F31640E780.png" width="40.00" height="40.00" transform="matrix(1.00, 0.00, -0.00, -1.00, 494.0, 581.0)"></image></g></g><g><clipPath id="clip-362"><path d="M 543.5 537.6 L 583.1 537.6 L 583.1 584.3 L 543.5 584.3 Z M 543.5 537.6 "></path></clipPath><g clip-path="url(#clip-362)"><image xlink:href="../../3805EC89-877D-4278-9819-49AC8C07AD6B/assets/E3A59948DF75C289BE94EEA907233D13.png" width="39.00" height="47.00" transform="matrix(1.03, 0.00, -0.00, -0.98, 543.0, 584.0)"></image></g></g><g><clipPath id="clip-363"><path d="M 270.7 541.1 L 310.3 541.1 L 310.3 580.7 L 270.7 580.7 Z M 270.7 541.1 "></path></clipPath><g clip-path="url(#clip-363)"><image xlink:href="E43A190BB176DD142285E93065CFB92E.png" width="40.00" height="40.00" transform="matrix(0.98, 0.00, -0.00, -1.00, 271.0, 581.0)"></image></g></g><g><clipPath id="clip-364"><path d="M 80.6 541.1 L 120.2 541.1 L 120.2 580.7 L 80.6 580.7 Z M 80.6 541.1 "></path></clipPath><g clip-path="url(#clip-364)"><image xlink:href="E1C77D53CB71DFE271F9DDA072A9366B.png" width="40.00" height="40.00" transform="matrix(0.98, 0.00, -0.00, -1.00, 81.0, 581.0)"></image></g></g><g><clipPath id="clip-365"><path d="M 770.4 541.1 L 810.0 541.1 L 810.0 580.7 L 770.4 580.7 Z M 770.4 541.1 "></path></clipPath><g clip-path="url(#clip-365)"><image xlink:href="../../3805EC89-877D-4278-9819-49AC8C07AD6B/assets/E1C77D53CB71DFE271F9DDA072A9366B.png" width="40.00" height="40.00" transform="matrix(1.00, 0.00, -0.00, -1.00, 770.0, 581.0)"></image></g></g><g><clipPath id="clip-366"><path d="M 581.7 541.1 L 621.3 541.1 L 621.3 580.7 L 581.7 580.7 Z M 581.7 541.1 "></path></clipPath><g clip-path="url(#clip-366)"><image xlink:href="../../3805EC89-877D-4278-9819-49AC8C07AD6B/assets/E1C77D53CB71DFE271F9DDA072A9366B.png" width="40.00" height="40.00" transform="matrix(0.98, 0.00, -0.00, -1.00, 582.0, 581.0)"></image></g></g><g><clipPath id="clip-367"><path d="M 474.7 159.3 L 556.7 159.3 L 556.7 241.3 L 474.7 241.3 Z M 474.7 159.3 "></path></clipPath><g clip-path="url(#clip-367)"><image xlink:href="2AAD456F91F984A17BDC0724A50FEFAB.png" width="82.00" height="82.00" transform="matrix(1.00, 0.00, -0.00, -1.00, 475.0, 241.0)"></image></g></g><g><clipPath id="clip-368"><path d="M 148.3 157.4 L 221.3 157.4 L 221.3 230.4 L 148.3 230.4 Z M 148.3 157.4 "></path></clipPath><g clip-path="url(#clip-368)"><image xlink:href="42C8E16A3F153F5B864290441CF6B0C7.png" width="74.00" height="74.00" transform="matrix(0.99, 0.00, -0.00, -0.99, 148.0, 230.0)"></image></g></g><g><clipPath id="clip-369"><path d="M 810.0 157.4 L 883.1 157.4 L 883.1 230.4 L 810.0 230.4 Z M 810.0 157.4 "></path></clipPath><g clip-path="url(#clip-369)"><image xlink:href="../../3805EC89-877D-4278-9819-49AC8C07AD6B/assets/42C8E16A3F153F5B864290441CF6B0C7.png" width="74.00" height="74.00" transform="matrix(0.99, 0.00, -0.00, -0.99, 810.0, 230.0)"></image></g></g><text xml:space="preserve" font-family="HelveticaNeue-Light" font-size="16.0" fill="#A6AAA8" transform="matrix(1.00, 0.00, -0.00, -1.00, 924.7, 12.7)">S</text><text xml:space="preserve" font-family="HelveticaNeue-Light" font-size="16.0" fill="#A6AAA8" transform="matrix(1.00, 0.00, -0.00, -1.00, 934.8, 12.7)">l</text><text xml:space="preserve" font-family="HelveticaNeue-Light" font-size="16.0" fill="#A6AAA8" transform="matrix(1.00, 0.00, -0.00, -1.00, 937.8, 12.7)">i</text><text xml:space="preserve" font-family="HelveticaNeue-Light" font-size="16.0" fill="#A6AAA8" transform="matrix(1.00, 0.00, -0.00, -1.00, 940.7, 12.7)">d</text><text xml:space="preserve" font-family="HelveticaNeue-Light" font-size="16.0" fill="#A6AAA8" transform="matrix(1.00, 0.00, -0.00, -1.00, 949.9, 12.7)">e</text><text xml:space="preserve" font-family="HelveticaNeue-Light" font-size="16.0" fill="#A6AAA8" transform="matrix(1.00, 0.00, -0.00, -1.00, 958.2, 12.7)"> </text><text xml:space="preserve" font-family="HelveticaNeue-Light" font-size="16.0" fill="#A6AAA8" transform="matrix(1.00, 0.00, -0.00, -1.00, 962.6, 12.7)">#</text><text xml:space="preserve" font-family="HelveticaNeue-Light" font-size="16.0" fill="#A6AAA8" transform="matrix(1.00, 0.00, -0.00, -1.00, 32.0, 13.0)">B</text><text xml:space="preserve" font-family="HelveticaNeue-Light" font-size="16.0" fill="#A6AAA8" transform="matrix(1.00, 0.00, -0.00, -1.00, 42.7, 13.0)">i</text><text xml:space="preserve" font-family="HelveticaNeue-Light" font-size="16.0" fill="#A6AAA8" transform="matrix(1.00, 0.00, -0.00, -1.00, 45.6, 13.0)">b</text><text xml:space="preserve" font-family="HelveticaNeue-Light" font-size="16.0" fill="#A6AAA8" transform="matrix(1.00, 0.00, -0.00, -1.00, 54.8, 13.0)">l</text><text xml:space="preserve" font-family="HelveticaNeue-Light" font-size="16.0" fill="#A6AAA8" transform="matrix(1.00, 0.00, -0.00, -1.00, 57.8, 13.0)">i</text><text xml:space="preserve" font-family="HelveticaNeue-Light" font-size="16.0" fill="#A6AAA8" transform="matrix(1.00, 0.00, -0.00, -1.00, 60.7, 13.0)">o</text><text xml:space="preserve" font-family="HelveticaNeue-Light" font-size="16.0" fill="#A6AAA8" transform="matrix(1.00, 0.00, -0.00, -1.00, 69.6, 13.0)">g</text><text xml:space="preserve" font-family="HelveticaNeue-Light" font-size="16.0" fill="#A6AAA8" transform="matrix(1.00, 0.00, -0.00, -1.00, 78.5, 13.0)">r</text><text xml:space="preserve" font-family="HelveticaNeue-Light" font-size="16.0" fill="#A6AAA8" transform="matrix(1.00, 0.00, -0.00, -1.00, 83.6, 13.0)">a</text><text xml:space="preserve" font-family="HelveticaNeue-Light" font-size="16.0" fill="#A6AAA8" transform="matrix(1.00, 0.00, -0.00, -1.00, 91.9, 13.0)">p</text><text xml:space="preserve" font-family="HelveticaNeue-Light" font-size="16.0" fill="#A6AAA8" transform="matrix(1.00, 0.00, -0.00, -1.00, 101.1, 13.0)">h</text><text xml:space="preserve" font-family="HelveticaNeue-Light" font-size="16.0" fill="#A6AAA8" transform="matrix(1.00, 0.00, -0.00, -1.00, 109.6, 13.0)">y</text><text xml:space="preserve" font-family="HelveticaNeue-Light" font-size="16.0" fill="#A6AAA8" transform="matrix(1.00, 0.00, -0.00, -1.00, 117.1, 13.0)"> </text><text xml:space="preserve" font-family="HelveticaNeue-Light" font-size="16.0" fill="#A6AAA8" transform="matrix(1.00, 0.00, -0.00, -1.00, 121.5, 13.0)">&amp;</text><text xml:space="preserve" font-family="HelveticaNeue-Light" font-size="16.0" fill="#A6AAA8" transform="matrix(1.00, 0.00, -0.00, -1.00, 131.3, 13.0)"> </text><text xml:space="preserve" font-family="HelveticaNeue-Light" font-size="16.0" fill="#A6AAA8" transform="matrix(1.00, 0.00, -0.00, -1.00, 135.7, 13.0)">R</text><text xml:space="preserve" font-family="HelveticaNeue-Light" font-size="16.0" fill="#A6AAA8" transform="matrix(1.00, 0.00, -0.00, -1.00, 146.4, 13.0)">e</text><text xml:space="preserve" font-family="HelveticaNeue-Light" font-size="16.0" fill="#A6AAA8" transform="matrix(1.00, 0.00, -0.00, -1.00, 154.7, 13.0)">f</text><text xml:space="preserve" font-family="HelveticaNeue-Light" font-size="16.0" fill="#A6AAA8" transform="matrix(1.00, 0.00, -0.00, -1.00, 158.8, 13.0)">e</text><text xml:space="preserve" font-family="HelveticaNeue-Light" font-size="16.0" fill="#A6AAA8" transform="matrix(1.00, 0.00, -0.00, -1.00, 167.2, 13.0)">r</text><text xml:space="preserve" font-family="HelveticaNeue-Light" font-size="16.0" fill="#A6AAA8" transform="matrix(1.00, 0.00, -0.00, -1.00, 171.9, 13.0)">e</text><text xml:space="preserve" font-family="HelveticaNeue-Light" font-size="16.0" fill="#A6AAA8" transform="matrix(1.00, 0.00, -0.00, -1.00, 180.2, 13.0)">n</text><text xml:space="preserve" font-family="HelveticaNeue-Light" font-size="16.0" fill="#A6AAA8" transform="matrix(1.00, 0.00, -0.00, -1.00, 188.8, 13.0)">c</text><text xml:space="preserve" font-family="HelveticaNeue-Light" font-size="16.0" fill="#A6AAA8" transform="matrix(1.00, 0.00, -0.00, -1.00, 197.1, 13.0)">e</text><text xml:space="preserve" font-family="HelveticaNeue-Light" font-size="16.0" fill="#A6AAA8" transform="matrix(1.00, 0.00, -0.00, -1.00, 205.4, 13.0)"> </text><text xml:space="preserve" font-family="HelveticaNeue-Light" font-size="16.0" fill="#A6AAA8" transform="matrix(1.00, 0.00, -0.00, -1.00, 209.9, 13.0)">M</text><text xml:space="preserve" font-family="HelveticaNeue-Light" font-size="16.0" fill="#A6AAA8" transform="matrix(1.00, 0.00, -0.00, -1.00, 223.0, 13.0)">a</text><text xml:space="preserve" font-family="HelveticaNeue-Light" font-size="16.0" fill="#A6AAA8" transform="matrix(1.00, 0.00, -0.00, -1.00, 231.3, 13.0)">n</text><text xml:space="preserve" font-family="HelveticaNeue-Light" font-size="16.0" fill="#A6AAA8" transform="matrix(1.00, 0.00, -0.00, -1.00, 239.9, 13.0)">a</text><text xml:space="preserve" font-family="HelveticaNeue-Light" font-size="16.0" fill="#A6AAA8" transform="matrix(1.00, 0.00, -0.00, -1.00, 248.2, 13.0)">g</text><text xml:space="preserve" font-family="HelveticaNeue-Light" font-size="16.0" fill="#A6AAA8" transform="matrix(1.00, 0.00, -0.00, -1.00, 257.1, 13.0)">e</text><text xml:space="preserve" font-family="HelveticaNeue-Light" font-size="16.0" fill="#A6AAA8" transform="matrix(1.00, 0.00, -0.00, -1.00, 265.4, 13.0)">m</text><text xml:space="preserve" font-family="HelveticaNeue-Light" font-size="16.0" fill="#A6AAA8" transform="matrix(1.00, 0.00, -0.00, -1.00, 278.7, 13.0)">e</text><text xml:space="preserve" font-family="HelveticaNeue-Light" font-size="16.0" fill="#A6AAA8" transform="matrix(1.00, 0.00, -0.00, -1.00, 287.0, 13.0)">n</text><text xml:space="preserve" font-family="HelveticaNeue-Light" font-size="16.0" fill="#A6AAA8" transform="matrix(1.00, 0.00, -0.00, -1.00, 295.6, 13.0)">t</text><text xml:space="preserve" font-family="HelveticaNeue-Light" font-size="16.0" fill="#A6AAA8" transform="matrix(1.00, 0.00, -0.00, -1.00, 980.0, 13.0)">2</text><text xml:space="preserve" font-family="HelveticaNeue-Light" font-size="16.0" fill="#A6AAA8" transform="matrix(1.00, 0.00, -0.00, -1.00, 988.9, 13.0)">2</text><image xlink:href="../../6F0A2D19-CFE3-4FA3-B36D-45CD7EBB03EA/assets/30C87482E1EA30479601A6E7B912FD05.png" width="127.00" height="127.00" transform="matrix(1.00, 0.00, -0.00, -1.00, 893.0, 132.0)" opacity="0.50"></image><g><clipPath id="clip-370"><path d="M 956.5 131.0 C 940.8 131.0 925.0 125.0 913.0 113.0 C 889.0 89.0 889.0 50.0 913.0 26.0 C 937.0 2.0 976.0 2.0 1000.0 26.0 C 1024.0 50.0 1024.0 89.0 1000.0 113.0 C 988.0 125.0 972.2 131.0 956.5 131.0 Z M 956.5 98.6 C 963.9 98.6 971.4 95.8 977.1 90.1 C 988.4 78.7 988.4 60.3 977.1 48.9 C 965.7 37.6 947.3 37.6 935.9 48.9 C 924.6 60.3 924.6 78.7 935.9 90.1 C 941.6 95.8 949.0 98.6 956.5 98.6 Z M 956.5 98.6 "></path></clipPath><g clip-path="url(#clip-370)"><image xlink:href="../../9AFE5FDC-FCDF-4B94-AD16-78D84A8393BE/assets/4DE3D3AA560180649E9B342CCB1A28F9.jpeg" width="717.00" height="537.00" transform="matrix(0.30, 0.00, -0.00, -0.30, 841.0, 169.0)"></image></g></g><image xlink:href="../../3805EC89-877D-4278-9819-49AC8C07AD6B/assets/48E012BC523394C394D9ECB7DC0F1EF2.png" width="314.00" height="73.00" transform="matrix(1.00, 0.00, -0.00, -1.01, 359.0, 421.0)"></image></g></svg>