<?xml version="1.0" encoding="UTF-8" standalone="no"?><svg xmlns="http://www.w3.org/2000/svg" xmlns:xlink="http://www.w3.org/1999/xlink" clip-rule="evenodd" stroke-miterlimit="4.00" viewBox="0 0 889 272"><desc>SVG generated by Keynote</desc><defs></defs><g transform="matrix(1.00, 0.00, -0.00, -1.00, 0.0, 272.0)"><image xlink:href="0EDFDDB899657439BF12F937D335C053.png" width="886.00" height="267.00" transform="matrix(1.00, 0.00, -0.00, -1.00, 1.7, 268.7)" opacity="0.50"></image><path d="M 34.6 259.7 L 854.8 259.7 C 861.3 259.7 864.7 259.7 868.2 258.5 C 872.1 257.1 875.1 254.1 876.6 250.2 C 877.7 246.6 877.7 243.3 877.7 236.6 L 877.7 35.7 C 877.7 29.1 877.7 25.8 876.6 22.2 C 875.1 18.4 872.1 15.3 868.2 13.9 C 864.7 12.8 861.3 12.8 854.7 12.8 L 34.6 12.8 C 28.0 12.8 24.7 12.8 21.1 13.9 C 17.3 15.3 14.2 18.4 12.8 22.2 C 11.7 25.8 11.7 29.1 11.7 35.8 L 11.7 236.7 C 11.7 243.3 11.7 246.6 12.8 250.2 C 14.2 254.1 17.3 257.1 21.1 258.5 C 24.7 259.7 28.0 259.7 34.7 259.7 Z M 34.6 259.7 " fill="#F3F3F3"></path></g></svg>