<?xml version="1.0" encoding="UTF-8" standalone="no"?><svg xmlns="http://www.w3.org/2000/svg" xmlns:xlink="http://www.w3.org/1999/xlink" clip-rule="evenodd" stroke-miterlimit="4.00" viewBox="0 0 1024 768"><desc>SVG generated by Keynote</desc><defs></defs><g transform="matrix(1.00, 0.00, -0.00, -1.00, 0.0, 768.0)"><path d="M 0.0 768.0 L 1024.0 768.0 L 1024.0 0.0 L 0.0 0.0 Z M 0.0 768.0 " fill="#F3F3F3"></path><path d="M 35.3 639.7 L 988.7 639.7 L 988.7 128.3 L 35.3 128.3 Z M 35.3 639.7 " fill="#FEFFFF"></path><text xml:space="preserve" font-family="HelveticaNeue-Light" font-size="16.0" fill="#A6AAA8" transform="matrix(1.00, 0.00, -0.00, -1.00, 37.0, 18.0)">B</text><text xml:space="preserve" font-family="HelveticaNeue-Light" font-size="16.0" fill="#A6AAA8" transform="matrix(1.00, 0.00, -0.00, -1.00, 47.7, 18.0)">i</text><text xml:space="preserve" font-family="HelveticaNeue-Light" font-size="16.0" fill="#A6AAA8" transform="matrix(1.00, 0.00, -0.00, -1.00, 50.6, 18.0)">b</text><text xml:space="preserve" font-family="HelveticaNeue-Light" font-size="16.0" fill="#A6AAA8" transform="matrix(1.00, 0.00, -0.00, -1.00, 59.8, 18.0)">l</text><text xml:space="preserve" font-family="HelveticaNeue-Light" font-size="16.0" fill="#A6AAA8" transform="matrix(1.00, 0.00, -0.00, -1.00, 62.8, 18.0)">i</text><text xml:space="preserve" font-family="HelveticaNeue-Light" font-size="16.0" fill="#A6AAA8" transform="matrix(1.00, 0.00, -0.00, -1.00, 65.7, 18.0)">o</text><text xml:space="preserve" font-family="HelveticaNeue-Light" font-size="16.0" fill="#A6AAA8" transform="matrix(1.00, 0.00, -0.00, -1.00, 74.6, 18.0)">g</text><text xml:space="preserve" font-family="HelveticaNeue-Light" font-size="16.0" fill="#A6AAA8" transform="matrix(1.00, 0.00, -0.00, -1.00, 83.5, 18.0)">r</text><text xml:space="preserve" font-family="HelveticaNeue-Light" font-size="16.0" fill="#A6AAA8" transform="matrix(1.00, 0.00, -0.00, -1.00, 88.6, 18.0)">a</text><text xml:space="preserve" font-family="HelveticaNeue-Light" font-size="16.0" fill="#A6AAA8" transform="matrix(1.00, 0.00, -0.00, -1.00, 96.9, 18.0)">p</text><text xml:space="preserve" font-family="HelveticaNeue-Light" font-size="16.0" fill="#A6AAA8" transform="matrix(1.00, 0.00, -0.00, -1.00, 106.1, 18.0)">h</text><text xml:space="preserve" font-family="HelveticaNeue-Light" font-size="16.0" fill="#A6AAA8" transform="matrix(1.00, 0.00, -0.00, -1.00, 114.6, 18.0)">y</text><text xml:space="preserve" font-family="HelveticaNeue-Light" font-size="16.0" fill="#A6AAA8" transform="matrix(1.00, 0.00, -0.00, -1.00, 122.1, 18.0)"> </text><text xml:space="preserve" font-family="HelveticaNeue-Light" font-size="16.0" fill="#A6AAA8" transform="matrix(1.00, 0.00, -0.00, -1.00, 126.5, 18.0)">&amp;</text><text xml:space="preserve" font-family="HelveticaNeue-Light" font-size="16.0" fill="#A6AAA8" transform="matrix(1.00, 0.00, -0.00, -1.00, 136.3, 18.0)"> </text><text xml:space="preserve" font-family="HelveticaNeue-Light" font-size="16.0" fill="#A6AAA8" transform="matrix(1.00, 0.00, -0.00, -1.00, 140.7, 18.0)">R</text><text xml:space="preserve" font-family="HelveticaNeue-Light" font-size="16.0" fill="#A6AAA8" transform="matrix(1.00, 0.00, -0.00, -1.00, 151.4, 18.0)">e</text><text xml:space="preserve" font-family="HelveticaNeue-Light" font-size="16.0" fill="#A6AAA8" transform="matrix(1.00, 0.00, -0.00, -1.00, 159.7, 18.0)">f</text><text xml:space="preserve" font-family="HelveticaNeue-Light" font-size="16.0" fill="#A6AAA8" transform="matrix(1.00, 0.00, -0.00, -1.00, 163.8, 18.0)">e</text><text xml:space="preserve" font-family="HelveticaNeue-Light" font-size="16.0" fill="#A6AAA8" transform="matrix(1.00, 0.00, -0.00, -1.00, 172.2, 18.0)">r</text><text xml:space="preserve" font-family="HelveticaNeue-Light" font-size="16.0" fill="#A6AAA8" transform="matrix(1.00, 0.00, -0.00, -1.00, 176.9, 18.0)">e</text><text xml:space="preserve" font-family="HelveticaNeue-Light" font-size="16.0" fill="#A6AAA8" transform="matrix(1.00, 0.00, -0.00, -1.00, 185.2, 18.0)">n</text><text xml:space="preserve" font-family="HelveticaNeue-Light" font-size="16.0" fill="#A6AAA8" transform="matrix(1.00, 0.00, -0.00, -1.00, 193.8, 18.0)">c</text><text xml:space="preserve" font-family="HelveticaNeue-Light" font-size="16.0" fill="#A6AAA8" transform="matrix(1.00, 0.00, -0.00, -1.00, 202.1, 18.0)">e</text><text xml:space="preserve" font-family="HelveticaNeue-Light" font-size="16.0" fill="#A6AAA8" transform="matrix(1.00, 0.00, -0.00, -1.00, 210.4, 18.0)"> </text><text xml:space="preserve" font-family="HelveticaNeue-Light" font-size="16.0" fill="#A6AAA8" transform="matrix(1.00, 0.00, -0.00, -1.00, 214.9, 18.0)">M</text><text xml:space="preserve" font-family="HelveticaNeue-Light" font-size="16.0" fill="#A6AAA8" transform="matrix(1.00, 0.00, -0.00, -1.00, 228.0, 18.0)">a</text><text xml:space="preserve" font-family="HelveticaNeue-Light" font-size="16.0" fill="#A6AAA8" transform="matrix(1.00, 0.00, -0.00, -1.00, 236.3, 18.0)">n</text><text xml:space="preserve" font-family="HelveticaNeue-Light" font-size="16.0" fill="#A6AAA8" transform="matrix(1.00, 0.00, -0.00, -1.00, 244.9, 18.0)">a</text><text xml:space="preserve" font-family="HelveticaNeue-Light" font-size="16.0" fill="#A6AAA8" transform="matrix(1.00, 0.00, -0.00, -1.00, 253.2, 18.0)">g</text><text xml:space="preserve" font-family="HelveticaNeue-Light" font-size="16.0" fill="#A6AAA8" transform="matrix(1.00, 0.00, -0.00, -1.00, 262.1, 18.0)">e</text><text xml:space="preserve" font-family="HelveticaNeue-Light" font-size="16.0" fill="#A6AAA8" transform="matrix(1.00, 0.00, -0.00, -1.00, 270.4, 18.0)">m</text><text xml:space="preserve" font-family="HelveticaNeue-Light" font-size="16.0" fill="#A6AAA8" transform="matrix(1.00, 0.00, -0.00, -1.00, 283.7, 18.0)">e</text><text xml:space="preserve" font-family="HelveticaNeue-Light" font-size="16.0" fill="#A6AAA8" transform="matrix(1.00, 0.00, -0.00, -1.00, 292.0, 18.0)">n</text><text xml:space="preserve" font-family="HelveticaNeue-Light" font-size="16.0" fill="#A6AAA8" transform="matrix(1.00, 0.00, -0.00, -1.00, 300.6, 18.0)">t</text><text xml:space="preserve" font-family="HelveticaNeue-Light" font-size="16.0" fill="#A6AAA8" transform="matrix(1.00, 0.00, -0.00, -1.00, 919.6, 18.0)">S</text><text xml:space="preserve" font-family="HelveticaNeue-Light" font-size="16.0" fill="#A6AAA8" transform="matrix(1.00, 0.00, -0.00, -1.00, 929.7, 18.0)">l</text><text xml:space="preserve" font-family="HelveticaNeue-Light" font-size="16.0" fill="#A6AAA8" transform="matrix(1.00, 0.00, -0.00, -1.00, 932.7, 18.0)">i</text><text xml:space="preserve" font-family="HelveticaNeue-Light" font-size="16.0" fill="#A6AAA8" transform="matrix(1.00, 0.00, -0.00, -1.00, 935.6, 18.0)">d</text><text xml:space="preserve" font-family="HelveticaNeue-Light" font-size="16.0" fill="#A6AAA8" transform="matrix(1.00, 0.00, -0.00, -1.00, 944.8, 18.0)">e</text><text xml:space="preserve" font-family="HelveticaNeue-Light" font-size="16.0" fill="#A6AAA8" transform="matrix(1.00, 0.00, -0.00, -1.00, 953.1, 18.0)"> </text><text xml:space="preserve" font-family="HelveticaNeue-Light" font-size="16.0" fill="#A6AAA8" transform="matrix(1.00, 0.00, -0.00, -1.00, 957.6, 18.0)">#</text><path d="M 36.3 701.1 L 987.7 701.1 L 987.7 128.3 L 36.3 128.3 Z M 36.3 701.1 " fill="#77DEC8"></path><g opacity="0.55"><g><clipPath id="clip-234"><path d="M 36.0 700.0 L 988.0 700.0 L 988.0 128.0 L 36.0 128.0 Z M 36.3 700.0 "></path></clipPath><g clip-path="url(#clip-234)"><g><clipPath id="clip-235"><path d="M 35.0 126.0 L 989.0 126.0 L 989.0 701.0 L 35.0 701.0 Z M 35.0 126.0 "></path></clipPath><g clip-path="url(#clip-235)"><image xlink:href="EDE0C2109D2F2FC8E42F595B116955DC.jpeg" width="952.00" height="634.00" transform="matrix(1.00, 0.00, -0.00, -1.00, 36.0, 701.0)"></image></g></g></g></g></g><text xml:space="preserve" font-family="HelveticaNeue-Light" font-size="16.0" fill="#A6AAA8" transform="matrix(1.00, 0.00, -0.00, -1.00, 974.0, 18.0)">1</text><text xml:space="preserve" font-family="HelveticaNeue-Bold" font-weight="bold" font-size="61.1" fill="#FFFFFF" transform="matrix(1.00, 0.00, -0.00, -1.00, 108.0, 308.0)">B</text><text xml:space="preserve" font-family="HelveticaNeue-Bold" font-weight="bold" font-size="61.1" fill="#FFFFFF" transform="matrix(1.00, 0.00, -0.00, -1.00, 150.4, 308.0)">I</text><text xml:space="preserve" font-family="HelveticaNeue-Bold" font-weight="bold" font-size="61.1" fill="#FFFFFF" transform="matrix(1.00, 0.00, -0.00, -1.00, 167.8, 308.0)">B</text><text xml:space="preserve" font-family="HelveticaNeue-Bold" font-weight="bold" font-size="61.1" fill="#FFFFFF" transform="matrix(1.00, 0.00, -0.00, -1.00, 210.2, 308.0)">L</text><text xml:space="preserve" font-family="HelveticaNeue-Bold" font-weight="bold" font-size="61.1" fill="#FFFFFF" transform="matrix(1.00, 0.00, -0.00, -1.00, 245.8, 308.0)">I</text><text xml:space="preserve" font-family="HelveticaNeue-Bold" font-weight="bold" font-size="61.1" fill="#FFFFFF" transform="matrix(1.00, 0.00, -0.00, -1.00, 263.3, 308.0)">O</text><text xml:space="preserve" font-family="HelveticaNeue-Bold" font-weight="bold" font-size="61.1" fill="#FFFFFF" transform="matrix(1.00, 0.00, -0.00, -1.00, 310.2, 308.0)">G</text><text xml:space="preserve" font-family="HelveticaNeue-Bold" font-weight="bold" font-size="61.1" fill="#FFFFFF" transform="matrix(1.00, 0.00, -0.00, -1.00, 355.9, 308.0)">R</text><text xml:space="preserve" font-family="HelveticaNeue-Bold" font-weight="bold" font-size="61.1" fill="#FFFFFF" transform="matrix(1.00, 0.00, -0.00, -1.00, 399.4, 308.0)">A</text><text xml:space="preserve" font-family="HelveticaNeue-Bold" font-weight="bold" font-size="61.1" fill="#FFFFFF" transform="matrix(1.00, 0.00, -0.00, -1.00, 440.7, 308.0)">P</text><text xml:space="preserve" font-family="HelveticaNeue-Bold" font-weight="bold" font-size="61.1" fill="#FFFFFF" transform="matrix(1.00, 0.00, -0.00, -1.00, 480.8, 308.0)">H</text><text xml:space="preserve" font-family="HelveticaNeue-Bold" font-weight="bold" font-size="61.1" fill="#FFFFFF" transform="matrix(1.00, 0.00, -0.00, -1.00, 525.5, 308.0)">Y</text><text xml:space="preserve" font-family="HelveticaNeue-Bold" font-weight="bold" font-size="61.1" fill="#FFFFFF" transform="matrix(1.00, 0.00, -0.00, -1.00, 565.6, 308.0)"> </text><text xml:space="preserve" font-family="HelveticaNeue-Bold" font-weight="bold" font-size="61.1" fill="#FFFFFF" transform="matrix(1.00, 0.00, -0.00, -1.00, 582.0, 308.0)">&amp;</text><text xml:space="preserve" font-family="HelveticaNeue-Bold" font-weight="bold" font-size="61.1" fill="#FFFFFF" transform="matrix(1.00, 0.00, -0.00, -1.00, 623.3, 308.0)"> </text><text xml:space="preserve" font-family="HelveticaNeue-Bold" font-weight="bold" font-size="61.1" fill="#FFFFFF" transform="matrix(1.00, 0.00, -0.00, -1.00, 108.0, 248.0)">R</text><text xml:space="preserve" font-family="HelveticaNeue-Bold" font-weight="bold" font-size="61.1" fill="#FFFFFF" transform="matrix(1.00, 0.00, -0.00, -1.00, 151.5, 248.0)">E</text><text xml:space="preserve" font-family="HelveticaNeue-Bold" font-weight="bold" font-size="61.1" fill="#FFFFFF" transform="matrix(1.00, 0.00, -0.00, -1.00, 190.5, 248.0)">F</text><text xml:space="preserve" font-family="HelveticaNeue-Bold" font-weight="bold" font-size="61.1" fill="#FFFFFF" transform="matrix(1.00, 0.00, -0.00, -1.00, 226.1, 248.0)">E</text><text xml:space="preserve" font-family="HelveticaNeue-Bold" font-weight="bold" font-size="61.1" fill="#FFFFFF" transform="matrix(1.00, 0.00, -0.00, -1.00, 265.1, 248.0)">R</text><text xml:space="preserve" font-family="HelveticaNeue-Bold" font-weight="bold" font-size="61.1" fill="#FFFFFF" transform="matrix(1.00, 0.00, -0.00, -1.00, 308.6, 248.0)">E</text><text xml:space="preserve" font-family="HelveticaNeue-Bold" font-weight="bold" font-size="61.1" fill="#FFFFFF" transform="matrix(1.00, 0.00, -0.00, -1.00, 347.6, 248.0)">N</text><text xml:space="preserve" font-family="HelveticaNeue-Bold" font-weight="bold" font-size="61.1" fill="#FFFFFF" transform="matrix(1.00, 0.00, -0.00, -1.00, 392.2, 248.0)">C</text><text xml:space="preserve" font-family="HelveticaNeue-Bold" font-weight="bold" font-size="61.1" fill="#FFFFFF" transform="matrix(1.00, 0.00, -0.00, -1.00, 436.9, 248.0)">E</text><text xml:space="preserve" font-family="HelveticaNeue-Bold" font-weight="bold" font-size="61.1" fill="#FFFFFF" transform="matrix(1.00, 0.00, -0.00, -1.00, 475.9, 248.0)"> </text><text xml:space="preserve" font-family="HelveticaNeue-Bold" font-weight="bold" font-size="61.1" fill="#FFFFFF" transform="matrix(1.00, 0.00, -0.00, -1.00, 492.3, 248.0)">M</text><text xml:space="preserve" font-family="HelveticaNeue-Bold" font-weight="bold" font-size="61.1" fill="#FFFFFF" transform="matrix(1.00, 0.00, -0.00, -1.00, 547.1, 248.0)">A</text><text xml:space="preserve" font-family="HelveticaNeue-Bold" font-weight="bold" font-size="61.1" fill="#FFFFFF" transform="matrix(1.00, 0.00, -0.00, -1.00, 588.3, 248.0)">N</text><text xml:space="preserve" font-family="HelveticaNeue-Bold" font-weight="bold" font-size="61.1" fill="#FFFFFF" transform="matrix(1.00, 0.00, -0.00, -1.00, 633.0, 248.0)">A</text><text xml:space="preserve" font-family="HelveticaNeue-Bold" font-weight="bold" font-size="61.1" fill="#FFFFFF" transform="matrix(1.00, 0.00, -0.00, -1.00, 674.2, 248.0)">G</text><text xml:space="preserve" font-family="HelveticaNeue-Bold" font-weight="bold" font-size="61.1" fill="#FFFFFF" transform="matrix(1.00, 0.00, -0.00, -1.00, 720.0, 248.0)">E</text><text xml:space="preserve" font-family="HelveticaNeue-Bold" font-weight="bold" font-size="61.1" fill="#FFFFFF" transform="matrix(1.00, 0.00, -0.00, -1.00, 759.0, 248.0)">M</text><text xml:space="preserve" font-family="HelveticaNeue-Bold" font-weight="bold" font-size="61.1" fill="#FFFFFF" transform="matrix(1.00, 0.00, -0.00, -1.00, 813.8, 248.0)">E</text><text xml:space="preserve" font-family="HelveticaNeue-Bold" font-weight="bold" font-size="61.1" fill="#FFFFFF" transform="matrix(1.00, 0.00, -0.00, -1.00, 852.7, 248.0)">N</text><text xml:space="preserve" font-family="HelveticaNeue-Bold" font-weight="bold" font-size="61.1" fill="#FFFFFF" transform="matrix(1.00, 0.00, -0.00, -1.00, 897.4, 248.0)">T</text><text xml:space="preserve" font-family="HelveticaNeue-MediumItalic" font-style="italic" font-size="18.0" fill="#FEFFFF" transform="matrix(1.00, 0.00, -0.00, -1.00, 111.0, 209.0)">A</text><text xml:space="preserve" font-family="HelveticaNeue-MediumItalic" font-style="italic" font-size="18.0" fill="#FEFFFF" transform="matrix(1.00, 0.00, -0.00, -1.00, 123.3, 209.0)">n</text><text xml:space="preserve" font-family="HelveticaNeue-MediumItalic" font-style="italic" font-size="18.0" fill="#FEFFFF" transform="matrix(1.00, 0.00, -0.00, -1.00, 133.7, 209.0)"> </text><text xml:space="preserve" font-family="HelveticaNeue-MediumItalic" font-style="italic" font-size="18.0" fill="#FEFFFF" transform="matrix(1.00, 0.00, -0.00, -1.00, 138.7, 209.0)">i</text><text xml:space="preserve" font-family="HelveticaNeue-MediumItalic" font-style="italic" font-size="18.0" fill="#FEFFFF" transform="matrix(1.00, 0.00, -0.00, -1.00, 143.0, 209.0)">n</text><text xml:space="preserve" font-family="HelveticaNeue-MediumItalic" font-style="italic" font-size="18.0" fill="#FEFFFF" transform="matrix(1.00, 0.00, -0.00, -1.00, 153.3, 209.0)">t</text><text xml:space="preserve" font-family="HelveticaNeue-MediumItalic" font-style="italic" font-size="18.0" fill="#FEFFFF" transform="matrix(1.00, 0.00, -0.00, -1.00, 159.3, 209.0)">r</text><text xml:space="preserve" font-family="HelveticaNeue-MediumItalic" font-style="italic" font-size="18.0" fill="#FEFFFF" transform="matrix(1.00, 0.00, -0.00, -1.00, 166.0, 209.0)">o</text><text xml:space="preserve" font-family="HelveticaNeue-MediumItalic" font-style="italic" font-size="18.0" fill="#FEFFFF" transform="matrix(1.00, 0.00, -0.00, -1.00, 176.7, 209.0)">d</text><text xml:space="preserve" font-family="HelveticaNeue-MediumItalic" font-style="italic" font-size="18.0" fill="#FEFFFF" transform="matrix(1.00, 0.00, -0.00, -1.00, 187.7, 209.0)">u</text><text xml:space="preserve" font-family="HelveticaNeue-MediumItalic" font-style="italic" font-size="18.0" fill="#FEFFFF" transform="matrix(1.00, 0.00, -0.00, -1.00, 198.0, 209.0)">c</text><text xml:space="preserve" font-family="HelveticaNeue-MediumItalic" font-style="italic" font-size="18.0" fill="#FEFFFF" transform="matrix(1.00, 0.00, -0.00, -1.00, 208.0, 209.0)">t</text><text xml:space="preserve" font-family="HelveticaNeue-MediumItalic" font-style="italic" font-size="18.0" fill="#FEFFFF" transform="matrix(1.00, 0.00, -0.00, -1.00, 214.0, 209.0)">i</text><text xml:space="preserve" font-family="HelveticaNeue-MediumItalic" font-style="italic" font-size="18.0" fill="#FEFFFF" transform="matrix(1.00, 0.00, -0.00, -1.00, 218.3, 209.0)">o</text><text xml:space="preserve" font-family="HelveticaNeue-MediumItalic" font-style="italic" font-size="18.0" fill="#FEFFFF" transform="matrix(1.00, 0.00, -0.00, -1.00, 229.0, 209.0)">n</text></g></svg>