<?xml version="1.0" encoding="UTF-8" standalone="no"?><svg xmlns="http://www.w3.org/2000/svg" xmlns:xlink="http://www.w3.org/1999/xlink" clip-rule="evenodd" stroke-miterlimit="4.00" viewBox="0 0 1024 768"><desc>SVG generated by Keynote</desc><defs></defs><g transform="matrix(1.00, 0.00, -0.00, -1.00, 0.0, 768.0)"><path d="M 0.0 768.0 L 1024.0 768.0 L 1024.0 0.0 L 0.0 0.0 Z M 0.0 768.0 " fill="#F3F3F3"></path><path d="M 35.5 734.0 L 988.5 734.0 L 988.5 34.0 L 35.5 34.0 Z M 35.5 734.0 " fill="#FEFFFE"></path><path d="M 35.3 639.7 L 988.7 639.7 L 988.7 128.3 L 35.3 128.3 Z M 35.3 639.7 " fill="#FEFFFF"></path><image xlink:href="../../A24D5CC5-606A-4FB5-8A11-C1C436988D78/assets/D26DFEC14A5A7D3521ECC8F3CA21D1F2.png" width="179.00" height="179.00" transform="matrix(1.00, 0.00, -0.00, -0.99, 788.0, 471.0)"></image><image xlink:href="../../A24D5CC5-606A-4FB5-8A11-C1C436988D78/assets/48E893F1D95A57F0049555329CB22D80.png" width="184.00" height="184.00" transform="matrix(1.00, 0.00, -0.00, -1.00, 785.0, 252.0)"></image><image xlink:href="../../A24D5CC5-606A-4FB5-8A11-C1C436988D78/assets/33F3F106D027495E2F52E9AE4B16FEBA.png" width="193.00" height="193.00" transform="matrix(0.99, 0.00, -0.00, -0.99, 71.0, 256.0)"></image><text xml:space="preserve" font-family="HelveticaNeue-Light" font-size="16.0" fill="#A6AAA8" transform="matrix(1.00, 0.00, -0.00, -1.00, 924.7, 12.7)">S</text><text xml:space="preserve" font-family="HelveticaNeue-Light" font-size="16.0" fill="#A6AAA8" transform="matrix(1.00, 0.00, -0.00, -1.00, 934.8, 12.7)">l</text><text xml:space="preserve" font-family="HelveticaNeue-Light" font-size="16.0" fill="#A6AAA8" transform="matrix(1.00, 0.00, -0.00, -1.00, 937.8, 12.7)">i</text><text xml:space="preserve" font-family="HelveticaNeue-Light" font-size="16.0" fill="#A6AAA8" transform="matrix(1.00, 0.00, -0.00, -1.00, 940.7, 12.7)">d</text><text xml:space="preserve" font-family="HelveticaNeue-Light" font-size="16.0" fill="#A6AAA8" transform="matrix(1.00, 0.00, -0.00, -1.00, 949.9, 12.7)">e</text><text xml:space="preserve" font-family="HelveticaNeue-Light" font-size="16.0" fill="#A6AAA8" transform="matrix(1.00, 0.00, -0.00, -1.00, 958.2, 12.7)"> </text><text xml:space="preserve" font-family="HelveticaNeue-Light" font-size="16.0" fill="#A6AAA8" transform="matrix(1.00, 0.00, -0.00, -1.00, 962.6, 12.7)">#</text><text xml:space="preserve" font-family="HelveticaNeue-Light" font-size="16.0" fill="#A6AAA8" transform="matrix(1.00, 0.00, -0.00, -1.00, 32.0, 13.0)">B</text><text xml:space="preserve" font-family="HelveticaNeue-Light" font-size="16.0" fill="#A6AAA8" transform="matrix(1.00, 0.00, -0.00, -1.00, 42.7, 13.0)">i</text><text xml:space="preserve" font-family="HelveticaNeue-Light" font-size="16.0" fill="#A6AAA8" transform="matrix(1.00, 0.00, -0.00, -1.00, 45.6, 13.0)">b</text><text xml:space="preserve" font-family="HelveticaNeue-Light" font-size="16.0" fill="#A6AAA8" transform="matrix(1.00, 0.00, -0.00, -1.00, 54.8, 13.0)">l</text><text xml:space="preserve" font-family="HelveticaNeue-Light" font-size="16.0" fill="#A6AAA8" transform="matrix(1.00, 0.00, -0.00, -1.00, 57.8, 13.0)">i</text><text xml:space="preserve" font-family="HelveticaNeue-Light" font-size="16.0" fill="#A6AAA8" transform="matrix(1.00, 0.00, -0.00, -1.00, 60.7, 13.0)">o</text><text xml:space="preserve" font-family="HelveticaNeue-Light" font-size="16.0" fill="#A6AAA8" transform="matrix(1.00, 0.00, -0.00, -1.00, 69.6, 13.0)">g</text><text xml:space="preserve" font-family="HelveticaNeue-Light" font-size="16.0" fill="#A6AAA8" transform="matrix(1.00, 0.00, -0.00, -1.00, 78.5, 13.0)">r</text><text xml:space="preserve" font-family="HelveticaNeue-Light" font-size="16.0" fill="#A6AAA8" transform="matrix(1.00, 0.00, -0.00, -1.00, 83.6, 13.0)">a</text><text xml:space="preserve" font-family="HelveticaNeue-Light" font-size="16.0" fill="#A6AAA8" transform="matrix(1.00, 0.00, -0.00, -1.00, 91.9, 13.0)">p</text><text xml:space="preserve" font-family="HelveticaNeue-Light" font-size="16.0" fill="#A6AAA8" transform="matrix(1.00, 0.00, -0.00, -1.00, 101.1, 13.0)">h</text><text xml:space="preserve" font-family="HelveticaNeue-Light" font-size="16.0" fill="#A6AAA8" transform="matrix(1.00, 0.00, -0.00, -1.00, 109.6, 13.0)">y</text><text xml:space="preserve" font-family="HelveticaNeue-Light" font-size="16.0" fill="#A6AAA8" transform="matrix(1.00, 0.00, -0.00, -1.00, 117.1, 13.0)"> </text><text xml:space="preserve" font-family="HelveticaNeue-Light" font-size="16.0" fill="#A6AAA8" transform="matrix(1.00, 0.00, -0.00, -1.00, 121.5, 13.0)">&amp;</text><text xml:space="preserve" font-family="HelveticaNeue-Light" font-size="16.0" fill="#A6AAA8" transform="matrix(1.00, 0.00, -0.00, -1.00, 131.3, 13.0)"> </text><text xml:space="preserve" font-family="HelveticaNeue-Light" font-size="16.0" fill="#A6AAA8" transform="matrix(1.00, 0.00, -0.00, -1.00, 135.7, 13.0)">R</text><text xml:space="preserve" font-family="HelveticaNeue-Light" font-size="16.0" fill="#A6AAA8" transform="matrix(1.00, 0.00, -0.00, -1.00, 146.4, 13.0)">e</text><text xml:space="preserve" font-family="HelveticaNeue-Light" font-size="16.0" fill="#A6AAA8" transform="matrix(1.00, 0.00, -0.00, -1.00, 154.7, 13.0)">f</text><text xml:space="preserve" font-family="HelveticaNeue-Light" font-size="16.0" fill="#A6AAA8" transform="matrix(1.00, 0.00, -0.00, -1.00, 158.8, 13.0)">e</text><text xml:space="preserve" font-family="HelveticaNeue-Light" font-size="16.0" fill="#A6AAA8" transform="matrix(1.00, 0.00, -0.00, -1.00, 167.2, 13.0)">r</text><text xml:space="preserve" font-family="HelveticaNeue-Light" font-size="16.0" fill="#A6AAA8" transform="matrix(1.00, 0.00, -0.00, -1.00, 171.9, 13.0)">e</text><text xml:space="preserve" font-family="HelveticaNeue-Light" font-size="16.0" fill="#A6AAA8" transform="matrix(1.00, 0.00, -0.00, -1.00, 180.2, 13.0)">n</text><text xml:space="preserve" font-family="HelveticaNeue-Light" font-size="16.0" fill="#A6AAA8" transform="matrix(1.00, 0.00, -0.00, -1.00, 188.8, 13.0)">c</text><text xml:space="preserve" font-family="HelveticaNeue-Light" font-size="16.0" fill="#A6AAA8" transform="matrix(1.00, 0.00, -0.00, -1.00, 197.1, 13.0)">e</text><text xml:space="preserve" font-family="HelveticaNeue-Light" font-size="16.0" fill="#A6AAA8" transform="matrix(1.00, 0.00, -0.00, -1.00, 205.4, 13.0)"> </text><text xml:space="preserve" font-family="HelveticaNeue-Light" font-size="16.0" fill="#A6AAA8" transform="matrix(1.00, 0.00, -0.00, -1.00, 209.9, 13.0)">M</text><text xml:space="preserve" font-family="HelveticaNeue-Light" font-size="16.0" fill="#A6AAA8" transform="matrix(1.00, 0.00, -0.00, -1.00, 223.0, 13.0)">a</text><text xml:space="preserve" font-family="HelveticaNeue-Light" font-size="16.0" fill="#A6AAA8" transform="matrix(1.00, 0.00, -0.00, -1.00, 231.3, 13.0)">n</text><text xml:space="preserve" font-family="HelveticaNeue-Light" font-size="16.0" fill="#A6AAA8" transform="matrix(1.00, 0.00, -0.00, -1.00, 239.9, 13.0)">a</text><text xml:space="preserve" font-family="HelveticaNeue-Light" font-size="16.0" fill="#A6AAA8" transform="matrix(1.00, 0.00, -0.00, -1.00, 248.2, 13.0)">g</text><text xml:space="preserve" font-family="HelveticaNeue-Light" font-size="16.0" fill="#A6AAA8" transform="matrix(1.00, 0.00, -0.00, -1.00, 257.1, 13.0)">e</text><text xml:space="preserve" font-family="HelveticaNeue-Light" font-size="16.0" fill="#A6AAA8" transform="matrix(1.00, 0.00, -0.00, -1.00, 265.4, 13.0)">m</text><text xml:space="preserve" font-family="HelveticaNeue-Light" font-size="16.0" fill="#A6AAA8" transform="matrix(1.00, 0.00, -0.00, -1.00, 278.7, 13.0)">e</text><text xml:space="preserve" font-family="HelveticaNeue-Light" font-size="16.0" fill="#A6AAA8" transform="matrix(1.00, 0.00, -0.00, -1.00, 287.0, 13.0)">n</text><text xml:space="preserve" font-family="HelveticaNeue-Light" font-size="16.0" fill="#A6AAA8" transform="matrix(1.00, 0.00, -0.00, -1.00, 295.6, 13.0)">t</text><text xml:space="preserve" font-family="HelveticaNeue-Light" font-size="16.0" fill="#A6AAA8" transform="matrix(1.00, 0.00, -0.00, -1.00, 984.0, 13.0)">2</text><image xlink:href="../../A24D5CC5-606A-4FB5-8A11-C1C436988D78/assets/060FCB5EE7497BD4DCF11FB0BDEAD00E.png" width="175.00" height="193.00" transform="matrix(1.00, 0.00, -0.00, -0.99, 80.0, 711.0)"></image><image xlink:href="../../A24D5CC5-606A-4FB5-8A11-C1C436988D78/assets/AAAA572FBAA95CCD248F62EA5A8996DE.png" width="356.00" height="98.00" transform="matrix(1.00, 0.00, -0.00, -1.00, 335.0, 177.0)"></image><image xlink:href="../../23CD6D78-4201-4302-873B-8C619FAB5E7B/assets/8B7F17F6434310DE0BDA500627345907.png" width="414.00" height="414.00" transform="matrix(0.30, 0.00, -0.00, -0.30, 1.2, 126.5)" opacity="0.50"></image><g><clipPath id="clip-239"><path d="M 63.3 126.2 C 47.6 126.2 31.8 120.2 19.8 108.2 C -4.2 84.2 -4.2 45.2 19.8 21.2 C 43.8 -2.8 82.8 -2.8 106.8 21.2 C 130.8 45.2 130.8 84.2 106.8 108.2 C 94.8 120.2 79.1 126.2 63.3 126.2 Z M 63.3 93.8 C 70.7 93.8 78.2 91.0 83.9 85.3 C 95.3 73.9 95.3 55.5 83.9 44.1 C 72.5 32.8 54.1 32.8 42.7 44.1 C 31.4 55.5 31.4 73.9 42.7 85.3 C 48.4 91.0 55.9 93.8 63.3 93.8 Z M 63.3 93.8 "></path></clipPath><g clip-path="url(#clip-239)"><image xlink:href="../../23CD6D78-4201-4302-873B-8C619FAB5E7B/assets/E4A902F029B70048723AEAA363C83CD3.jpeg" width="644.00" height="429.00" transform="matrix(0.30, 0.00, -0.00, -0.30, -41.5, 128.9)"></image></g></g><image xlink:href="../../A24D5CC5-606A-4FB5-8A11-C1C436988D78/assets/F64DC477428C90B1D4BC932FDAE0F558.png" width="438.00" height="103.00" transform="matrix(1.00, 0.00, -0.00, -1.00, 303.0, 699.0)"></image><image xlink:href="../../A24D5CC5-606A-4FB5-8A11-C1C436988D78/assets/CCAA72518B692CC87B004FE6212ED7F7.png" width="144.00" height="143.00" transform="matrix(1.15, 0.00, -0.00, -1.15, 790.0, 697.0)"></image><image xlink:href="../../A24D5CC5-606A-4FB5-8A11-C1C436988D78/assets/4814B824F09F16F91E7B65D5C7E6A9CD.png" width="333.00" height="106.00" transform="matrix(1.00, 0.00, -0.00, -1.00, 330.0, 437.0)"></image><g><clipPath id="clip-240"><path d="M 32.0 424.0 L 302.0 424.0 L 302.0 336.0 L 32.0 336.0 Z M 32.1 424.1 "></path></clipPath><g clip-path="url(#clip-240)"><image xlink:href="../../A24D5CC5-606A-4FB5-8A11-C1C436988D78/assets/17B46F0A18325B1A9E3D67D49F305008.png" width="271.00" height="271.00" transform="matrix(1.00, 0.00, -0.00, -1.00, 32.0, 519.0)"></image></g></g></g></svg>