<?xml version="1.0" encoding="UTF-8" standalone="no"?><svg xmlns="http://www.w3.org/2000/svg" xmlns:xlink="http://www.w3.org/1999/xlink" clip-rule="evenodd" stroke-miterlimit="4.00" viewBox="0 0 417 420"><desc>SVG generated by Keynote</desc><defs></defs><g transform="matrix(1.00, 0.00, -0.00, -1.00, 0.0, 420.0)"><image xlink:href="../../23CD6D78-4201-4302-873B-8C619FAB5E7B/assets/8B7F17F6434310DE0BDA500627345907.png" width="414.00" height="414.00" transform="matrix(1.00, 0.00, -0.00, -1.00, 1.6, 416.2)" opacity="0.50"></image><g><clipPath id="clip-237"><path d="M 208.8 415.2 C 156.3 415.2 103.8 395.2 63.7 355.1 C -16.4 275.0 -16.4 145.0 63.7 64.9 C 143.8 -15.2 273.8 -15.2 353.9 64.9 C 434.0 145.0 434.0 275.0 353.9 355.1 C 313.8 395.2 261.3 415.2 208.8 415.2 Z M 208.8 307.1 C 233.6 307.1 258.5 297.7 277.5 278.7 C 315.4 240.8 315.4 179.3 277.5 141.3 C 239.5 103.4 178.1 103.4 140.1 141.3 C 102.2 179.3 102.2 240.8 140.1 278.7 C 159.1 297.7 183.9 307.1 208.8 307.1 Z M 208.8 307.1 "></path></clipPath><g clip-path="url(#clip-237)"><image xlink:href="../../23CD6D78-4201-4302-873B-8C619FAB5E7B/assets/E4A902F029B70048723AEAA363C83CD3.jpeg" width="644.00" height="429.00" transform="matrix(1.00, 0.00, -0.00, -1.00, -141.0, 424.0)"></image></g></g></g></svg>