<?xml version="1.0" encoding="UTF-8" standalone="no"?><svg xmlns="http://www.w3.org/2000/svg" xmlns:xlink="http://www.w3.org/1999/xlink" clip-rule="evenodd" stroke-miterlimit="4.00" viewBox="0 0 348 47"><desc>SVG generated by Keynote</desc><defs></defs><g transform="matrix(1.00, 0.00, -0.00, -1.00, 0.0, 47.0)"><text xml:space="preserve" font-family="HelveticaNeue-Bold" font-weight="bold" font-size="57.7" fill="#4C5B69" transform="matrix(1.00, 0.00, -0.00, -1.00, -2.0, 2.0)">P</text><text xml:space="preserve" font-family="HelveticaNeue-Bold" font-weight="bold" font-size="57.7" fill="#4C5B69" transform="matrix(1.00, 0.00, -0.00, -1.00, 35.9, 2.0)">U</text><text xml:space="preserve" font-family="HelveticaNeue-Bold" font-weight="bold" font-size="57.7" fill="#4C5B69" transform="matrix(1.00, 0.00, -0.00, -1.00, 78.1, 2.0)">B</text><text xml:space="preserve" font-family="HelveticaNeue-Bold" font-weight="bold" font-size="57.7" fill="#4C5B69" transform="matrix(1.00, 0.00, -0.00, -1.00, 118.2, 2.0)">L</text><text xml:space="preserve" font-family="HelveticaNeue-Bold" font-weight="bold" font-size="57.7" fill="#4C5B69" transform="matrix(1.00, 0.00, -0.00, -1.00, 151.8, 2.0)">I</text><text xml:space="preserve" font-family="HelveticaNeue-Bold" font-weight="bold" font-size="57.7" fill="#4C5B69" transform="matrix(1.00, 0.00, -0.00, -1.00, 168.3, 2.0)">S</text><text xml:space="preserve" font-family="HelveticaNeue-Bold" font-weight="bold" font-size="57.7" fill="#4C5B69" transform="matrix(1.00, 0.00, -0.00, -1.00, 205.2, 2.0)">H</text><text xml:space="preserve" font-family="HelveticaNeue-Bold" font-weight="bold" font-size="57.7" fill="#4C5B69" transform="matrix(1.00, 0.00, -0.00, -1.00, 247.4, 2.0)">I</text><text xml:space="preserve" font-family="HelveticaNeue-Bold" font-weight="bold" font-size="57.7" fill="#4C5B69" transform="matrix(1.00, 0.00, -0.00, -1.00, 263.8, 2.0)">N</text><text xml:space="preserve" font-family="HelveticaNeue-Bold" font-weight="bold" font-size="57.7" fill="#4C5B69" transform="matrix(1.00, 0.00, -0.00, -1.00, 306.0, 2.0)">G</text></g></svg>