<?xml version="1.0" encoding="UTF-8" standalone="no"?><svg xmlns="http://www.w3.org/2000/svg" xmlns:xlink="http://www.w3.org/1999/xlink" clip-rule="evenodd" stroke-miterlimit="4.00" viewBox="0 0 1024 768"><desc>SVG generated by Keynote</desc><defs></defs><g transform="matrix(1.00, 0.00, -0.00, -1.00, 0.0, 768.0)"><path d="M 0.0 768.0 L 1024.0 768.0 L 1024.0 0.0 L 0.0 0.0 Z M 0.0 768.0 " fill="#F3F3F3"></path><path d="M 35.5 734.0 L 988.5 734.0 L 988.5 34.0 L 35.5 34.0 Z M 35.5 734.0 " fill="#FEFFFE"></path><path d="M 35.3 639.7 L 988.7 639.7 L 988.7 128.3 L 35.3 128.3 Z M 35.3 639.7 " fill="#FEFFFF"></path><text xml:space="preserve" font-family="HelveticaNeue-Light" font-size="16.0" fill="#A6AAA8" transform="matrix(1.00, 0.00, -0.00, -1.00, 924.7, 12.7)">S</text><text xml:space="preserve" font-family="HelveticaNeue-Light" font-size="16.0" fill="#A6AAA8" transform="matrix(1.00, 0.00, -0.00, -1.00, 934.8, 12.7)">l</text><text xml:space="preserve" font-family="HelveticaNeue-Light" font-size="16.0" fill="#A6AAA8" transform="matrix(1.00, 0.00, -0.00, -1.00, 937.8, 12.7)">i</text><text xml:space="preserve" font-family="HelveticaNeue-Light" font-size="16.0" fill="#A6AAA8" transform="matrix(1.00, 0.00, -0.00, -1.00, 940.7, 12.7)">d</text><text xml:space="preserve" font-family="HelveticaNeue-Light" font-size="16.0" fill="#A6AAA8" transform="matrix(1.00, 0.00, -0.00, -1.00, 949.9, 12.7)">e</text><text xml:space="preserve" font-family="HelveticaNeue-Light" font-size="16.0" fill="#A6AAA8" transform="matrix(1.00, 0.00, -0.00, -1.00, 958.2, 12.7)"> </text><text xml:space="preserve" font-family="HelveticaNeue-Light" font-size="16.0" fill="#A6AAA8" transform="matrix(1.00, 0.00, -0.00, -1.00, 962.6, 12.7)">#</text><text xml:space="preserve" font-family="HelveticaNeue-Light" font-size="16.0" fill="#A6AAA8" transform="matrix(1.00, 0.00, -0.00, -1.00, 32.0, 13.0)">B</text><text xml:space="preserve" font-family="HelveticaNeue-Light" font-size="16.0" fill="#A6AAA8" transform="matrix(1.00, 0.00, -0.00, -1.00, 42.7, 13.0)">i</text><text xml:space="preserve" font-family="HelveticaNeue-Light" font-size="16.0" fill="#A6AAA8" transform="matrix(1.00, 0.00, -0.00, -1.00, 45.6, 13.0)">b</text><text xml:space="preserve" font-family="HelveticaNeue-Light" font-size="16.0" fill="#A6AAA8" transform="matrix(1.00, 0.00, -0.00, -1.00, 54.8, 13.0)">l</text><text xml:space="preserve" font-family="HelveticaNeue-Light" font-size="16.0" fill="#A6AAA8" transform="matrix(1.00, 0.00, -0.00, -1.00, 57.8, 13.0)">i</text><text xml:space="preserve" font-family="HelveticaNeue-Light" font-size="16.0" fill="#A6AAA8" transform="matrix(1.00, 0.00, -0.00, -1.00, 60.7, 13.0)">o</text><text xml:space="preserve" font-family="HelveticaNeue-Light" font-size="16.0" fill="#A6AAA8" transform="matrix(1.00, 0.00, -0.00, -1.00, 69.6, 13.0)">g</text><text xml:space="preserve" font-family="HelveticaNeue-Light" font-size="16.0" fill="#A6AAA8" transform="matrix(1.00, 0.00, -0.00, -1.00, 78.5, 13.0)">r</text><text xml:space="preserve" font-family="HelveticaNeue-Light" font-size="16.0" fill="#A6AAA8" transform="matrix(1.00, 0.00, -0.00, -1.00, 83.6, 13.0)">a</text><text xml:space="preserve" font-family="HelveticaNeue-Light" font-size="16.0" fill="#A6AAA8" transform="matrix(1.00, 0.00, -0.00, -1.00, 91.9, 13.0)">p</text><text xml:space="preserve" font-family="HelveticaNeue-Light" font-size="16.0" fill="#A6AAA8" transform="matrix(1.00, 0.00, -0.00, -1.00, 101.1, 13.0)">h</text><text xml:space="preserve" font-family="HelveticaNeue-Light" font-size="16.0" fill="#A6AAA8" transform="matrix(1.00, 0.00, -0.00, -1.00, 109.6, 13.0)">y</text><text xml:space="preserve" font-family="HelveticaNeue-Light" font-size="16.0" fill="#A6AAA8" transform="matrix(1.00, 0.00, -0.00, -1.00, 117.1, 13.0)"> </text><text xml:space="preserve" font-family="HelveticaNeue-Light" font-size="16.0" fill="#A6AAA8" transform="matrix(1.00, 0.00, -0.00, -1.00, 121.5, 13.0)">&amp;</text><text xml:space="preserve" font-family="HelveticaNeue-Light" font-size="16.0" fill="#A6AAA8" transform="matrix(1.00, 0.00, -0.00, -1.00, 131.3, 13.0)"> </text><text xml:space="preserve" font-family="HelveticaNeue-Light" font-size="16.0" fill="#A6AAA8" transform="matrix(1.00, 0.00, -0.00, -1.00, 135.7, 13.0)">R</text><text xml:space="preserve" font-family="HelveticaNeue-Light" font-size="16.0" fill="#A6AAA8" transform="matrix(1.00, 0.00, -0.00, -1.00, 146.4, 13.0)">e</text><text xml:space="preserve" font-family="HelveticaNeue-Light" font-size="16.0" fill="#A6AAA8" transform="matrix(1.00, 0.00, -0.00, -1.00, 154.7, 13.0)">f</text><text xml:space="preserve" font-family="HelveticaNeue-Light" font-size="16.0" fill="#A6AAA8" transform="matrix(1.00, 0.00, -0.00, -1.00, 158.8, 13.0)">e</text><text xml:space="preserve" font-family="HelveticaNeue-Light" font-size="16.0" fill="#A6AAA8" transform="matrix(1.00, 0.00, -0.00, -1.00, 167.2, 13.0)">r</text><text xml:space="preserve" font-family="HelveticaNeue-Light" font-size="16.0" fill="#A6AAA8" transform="matrix(1.00, 0.00, -0.00, -1.00, 171.9, 13.0)">e</text><text xml:space="preserve" font-family="HelveticaNeue-Light" font-size="16.0" fill="#A6AAA8" transform="matrix(1.00, 0.00, -0.00, -1.00, 180.2, 13.0)">n</text><text xml:space="preserve" font-family="HelveticaNeue-Light" font-size="16.0" fill="#A6AAA8" transform="matrix(1.00, 0.00, -0.00, -1.00, 188.8, 13.0)">c</text><text xml:space="preserve" font-family="HelveticaNeue-Light" font-size="16.0" fill="#A6AAA8" transform="matrix(1.00, 0.00, -0.00, -1.00, 197.1, 13.0)">e</text><text xml:space="preserve" font-family="HelveticaNeue-Light" font-size="16.0" fill="#A6AAA8" transform="matrix(1.00, 0.00, -0.00, -1.00, 205.4, 13.0)"> </text><text xml:space="preserve" font-family="HelveticaNeue-Light" font-size="16.0" fill="#A6AAA8" transform="matrix(1.00, 0.00, -0.00, -1.00, 209.9, 13.0)">M</text><text xml:space="preserve" font-family="HelveticaNeue-Light" font-size="16.0" fill="#A6AAA8" transform="matrix(1.00, 0.00, -0.00, -1.00, 223.0, 13.0)">a</text><text xml:space="preserve" font-family="HelveticaNeue-Light" font-size="16.0" fill="#A6AAA8" transform="matrix(1.00, 0.00, -0.00, -1.00, 231.3, 13.0)">n</text><text xml:space="preserve" font-family="HelveticaNeue-Light" font-size="16.0" fill="#A6AAA8" transform="matrix(1.00, 0.00, -0.00, -1.00, 239.9, 13.0)">a</text><text xml:space="preserve" font-family="HelveticaNeue-Light" font-size="16.0" fill="#A6AAA8" transform="matrix(1.00, 0.00, -0.00, -1.00, 248.2, 13.0)">g</text><text xml:space="preserve" font-family="HelveticaNeue-Light" font-size="16.0" fill="#A6AAA8" transform="matrix(1.00, 0.00, -0.00, -1.00, 257.1, 13.0)">e</text><text xml:space="preserve" font-family="HelveticaNeue-Light" font-size="16.0" fill="#A6AAA8" transform="matrix(1.00, 0.00, -0.00, -1.00, 265.4, 13.0)">m</text><text xml:space="preserve" font-family="HelveticaNeue-Light" font-size="16.0" fill="#A6AAA8" transform="matrix(1.00, 0.00, -0.00, -1.00, 278.7, 13.0)">e</text><text xml:space="preserve" font-family="HelveticaNeue-Light" font-size="16.0" fill="#A6AAA8" transform="matrix(1.00, 0.00, -0.00, -1.00, 287.0, 13.0)">n</text><text xml:space="preserve" font-family="HelveticaNeue-Light" font-size="16.0" fill="#A6AAA8" transform="matrix(1.00, 0.00, -0.00, -1.00, 295.6, 13.0)">t</text><text xml:space="preserve" font-family="HelveticaNeue-Light" font-size="16.0" fill="#A6AAA8" transform="matrix(1.00, 0.00, -0.00, -1.00, 984.0, 13.0)">4</text><image xlink:href="25E587E5F1B819A8BE45D4E2DCB6DC8E.png" width="127.00" height="127.00" transform="matrix(1.00, 0.00, -0.00, -1.00, 17.0, 749.0)" opacity="0.50"></image><g><clipPath id="clip-244"><path d="M 80.5 748.0 C 64.8 748.0 49.0 742.0 37.0 730.0 C 13.0 706.0 13.0 667.0 37.0 643.0 C 61.0 619.0 100.0 619.0 124.0 643.0 C 148.0 667.0 148.0 706.0 124.0 730.0 C 112.0 742.0 96.2 748.0 80.5 748.0 Z M 80.5 708.1 C 86.0 708.1 91.6 706.0 95.8 701.8 C 104.2 693.4 104.2 679.6 95.8 671.2 C 87.3 662.8 73.7 662.8 65.2 671.2 C 56.8 679.6 56.8 693.4 65.2 701.8 C 69.4 706.0 75.0 708.1 80.5 708.1 Z M 80.5 708.1 "></path></clipPath><g clip-path="url(#clip-244)"><image xlink:href="../../A24D5CC5-606A-4FB5-8A11-C1C436988D78/assets/944731820E2EDE28C602CFAEFDFD3564.jpeg" width="624.00" height="717.00" transform="matrix(0.24, 0.00, -0.00, -0.24, 10.0, 791.0)"></image></g></g><g><clipPath id="clip-245"><path d="M 69.0 666.0 L 955.0 666.0 L 955.0 32.0 L 69.0 32.0 Z M 69.4 666.0 "></path></clipPath><g clip-path="url(#clip-245)"><image xlink:href="A5E3222921F0E05EE8C66EFCEAC00952.png" width="755.00" height="540.00" transform="matrix(1.17, 0.00, -0.00, -1.17, 69.0, 666.0)"></image></g></g><text xml:space="preserve" font-family="GillSans-SemiBold" font-weight="bold" font-size="40.0" fill="#053199" transform="matrix(1.00, 0.00, -0.00, -1.00, 363.0, 674.0)">h</text><text xml:space="preserve" font-family="GillSans-SemiBold" font-weight="bold" font-size="40.0" fill="#053199" transform="matrix(1.00, 0.00, -0.00, -1.00, 384.6, 674.0)">t</text><text xml:space="preserve" font-family="GillSans-SemiBold" font-weight="bold" font-size="40.0" fill="#053199" transform="matrix(1.00, 0.00, -0.00, -1.00, 399.4, 674.0)">t</text><text xml:space="preserve" font-family="GillSans-SemiBold" font-weight="bold" font-size="40.0" fill="#053199" transform="matrix(1.00, 0.00, -0.00, -1.00, 414.2, 674.0)">p</text><text xml:space="preserve" font-family="GillSans-SemiBold" font-weight="bold" font-size="40.0" fill="#053199" transform="matrix(1.00, 0.00, -0.00, -1.00, 436.1, 674.0)">:</text><text xml:space="preserve" font-family="GillSans-SemiBold" font-weight="bold" font-size="40.0" fill="#053199" transform="matrix(1.00, 0.00, -0.00, -1.00, 445.9, 674.0)">/</text><text xml:space="preserve" font-family="GillSans-SemiBold" font-weight="bold" font-size="40.0" fill="#053199" transform="matrix(1.00, 0.00, -0.00, -1.00, 457.2, 674.0)">/</text><text xml:space="preserve" font-family="GillSans-SemiBold" font-weight="bold" font-size="40.0" fill="#053199" transform="matrix(1.00, 0.00, -0.00, -1.00, 468.4, 674.0)">h</text><text xml:space="preserve" font-family="GillSans-SemiBold" font-weight="bold" font-size="40.0" fill="#053199" transform="matrix(1.00, 0.00, -0.00, -1.00, 490.0, 674.0)">e</text><text xml:space="preserve" font-family="GillSans-SemiBold" font-weight="bold" font-size="40.0" fill="#053199" transform="matrix(1.00, 0.00, -0.00, -1.00, 510.7, 674.0)">a</text><text xml:space="preserve" font-family="GillSans-SemiBold" font-weight="bold" font-size="40.0" fill="#053199" transform="matrix(1.00, 0.00, -0.00, -1.00, 530.0, 674.0)">l</text><text xml:space="preserve" font-family="GillSans-SemiBold" font-weight="bold" font-size="40.0" fill="#053199" transform="matrix(1.00, 0.00, -0.00, -1.00, 539.9, 674.0)">-</text><text xml:space="preserve" font-family="GillSans-SemiBold" font-weight="bold" font-size="40.0" fill="#053199" transform="matrix(1.00, 0.00, -0.00, -1.00, 553.1, 674.0)">l</text><text xml:space="preserve" font-family="GillSans-SemiBold" font-weight="bold" font-size="40.0" fill="#053199" transform="matrix(1.00, 0.00, -0.00, -1.00, 563.0, 674.0)">i</text><text xml:space="preserve" font-family="GillSans-SemiBold" font-weight="bold" font-size="40.0" fill="#053199" transform="matrix(1.00, 0.00, -0.00, -1.00, 572.9, 674.0)">n</text><text xml:space="preserve" font-family="GillSans-SemiBold" font-weight="bold" font-size="40.0" fill="#053199" transform="matrix(1.00, 0.00, -0.00, -1.00, 594.6, 674.0)">k</text><text xml:space="preserve" font-family="GillSans-SemiBold" font-weight="bold" font-size="40.0" fill="#053199" transform="matrix(1.00, 0.00, -0.00, -1.00, 615.3, 674.0)">.</text><text xml:space="preserve" font-family="GillSans-SemiBold" font-weight="bold" font-size="40.0" fill="#053199" transform="matrix(1.00, 0.00, -0.00, -1.00, 625.1, 674.0)">g</text><text xml:space="preserve" font-family="GillSans-SemiBold" font-weight="bold" font-size="40.0" fill="#053199" transform="matrix(1.00, 0.00, -0.00, -1.00, 644.8, 674.0)">r</text><g><clipPath id="clip-246"><path d="M 361.8 669.2 L 661.2 669.2 L 661.2 673.2 L 361.8 673.2 Z M 361.8 669.2 "></path></clipPath><g clip-path="url(#clip-246)"><path d="M 3.5 44.0 L 302.0 44.0 " fill="none" stroke="#053199" stroke-width="1.99" stroke-miterlimit="0.00" transform="matrix(1.00, 0.00, 0.00, -1.00, 359.3, 715.2)"></path></g></g></g></svg>