<?xml version="1.0" encoding="UTF-8" standalone="no"?><svg xmlns="http://www.w3.org/2000/svg" xmlns:xlink="http://www.w3.org/1999/xlink" clip-rule="evenodd" stroke-miterlimit="4.00" viewBox="0 0 1024 768"><desc>SVG generated by Keynote</desc><defs></defs><g transform="matrix(1.00, 0.00, -0.00, -1.00, 0.0, 768.0)"><path d="M 0.0 768.0 L 1024.0 768.0 L 1024.0 0.0 L 0.0 0.0 Z M 0.0 768.0 " fill="#F3F3F3"></path><path d="M 35.5 734.0 L 988.5 734.0 L 988.5 34.0 L 35.5 34.0 Z M 35.5 734.0 " fill="#FEFFFE"></path><path d="M 35.3 639.7 L 988.7 639.7 L 988.7 128.3 L 35.3 128.3 Z M 35.3 639.7 " fill="#FEFFFF"></path><text xml:space="preserve" font-family="HelveticaNeue-Light" font-size="16.0" fill="#A6AAA8" transform="matrix(1.00, 0.00, -0.00, -1.00, 924.7, 12.7)">S</text><text xml:space="preserve" font-family="HelveticaNeue-Light" font-size="16.0" fill="#A6AAA8" transform="matrix(1.00, 0.00, -0.00, -1.00, 934.8, 12.7)">l</text><text xml:space="preserve" font-family="HelveticaNeue-Light" font-size="16.0" fill="#A6AAA8" transform="matrix(1.00, 0.00, -0.00, -1.00, 937.8, 12.7)">i</text><text xml:space="preserve" font-family="HelveticaNeue-Light" font-size="16.0" fill="#A6AAA8" transform="matrix(1.00, 0.00, -0.00, -1.00, 940.7, 12.7)">d</text><text xml:space="preserve" font-family="HelveticaNeue-Light" font-size="16.0" fill="#A6AAA8" transform="matrix(1.00, 0.00, -0.00, -1.00, 949.9, 12.7)">e</text><text xml:space="preserve" font-family="HelveticaNeue-Light" font-size="16.0" fill="#A6AAA8" transform="matrix(1.00, 0.00, -0.00, -1.00, 958.2, 12.7)"> </text><text xml:space="preserve" font-family="HelveticaNeue-Light" font-size="16.0" fill="#A6AAA8" transform="matrix(1.00, 0.00, -0.00, -1.00, 962.6, 12.7)">#</text><text xml:space="preserve" font-family="HelveticaNeue-Light" font-size="16.0" fill="#A6AAA8" transform="matrix(1.00, 0.00, -0.00, -1.00, 32.0, 13.0)">B</text><text xml:space="preserve" font-family="HelveticaNeue-Light" font-size="16.0" fill="#A6AAA8" transform="matrix(1.00, 0.00, -0.00, -1.00, 42.7, 13.0)">i</text><text xml:space="preserve" font-family="HelveticaNeue-Light" font-size="16.0" fill="#A6AAA8" transform="matrix(1.00, 0.00, -0.00, -1.00, 45.6, 13.0)">b</text><text xml:space="preserve" font-family="HelveticaNeue-Light" font-size="16.0" fill="#A6AAA8" transform="matrix(1.00, 0.00, -0.00, -1.00, 54.8, 13.0)">l</text><text xml:space="preserve" font-family="HelveticaNeue-Light" font-size="16.0" fill="#A6AAA8" transform="matrix(1.00, 0.00, -0.00, -1.00, 57.8, 13.0)">i</text><text xml:space="preserve" font-family="HelveticaNeue-Light" font-size="16.0" fill="#A6AAA8" transform="matrix(1.00, 0.00, -0.00, -1.00, 60.7, 13.0)">o</text><text xml:space="preserve" font-family="HelveticaNeue-Light" font-size="16.0" fill="#A6AAA8" transform="matrix(1.00, 0.00, -0.00, -1.00, 69.6, 13.0)">g</text><text xml:space="preserve" font-family="HelveticaNeue-Light" font-size="16.0" fill="#A6AAA8" transform="matrix(1.00, 0.00, -0.00, -1.00, 78.5, 13.0)">r</text><text xml:space="preserve" font-family="HelveticaNeue-Light" font-size="16.0" fill="#A6AAA8" transform="matrix(1.00, 0.00, -0.00, -1.00, 83.6, 13.0)">a</text><text xml:space="preserve" font-family="HelveticaNeue-Light" font-size="16.0" fill="#A6AAA8" transform="matrix(1.00, 0.00, -0.00, -1.00, 91.9, 13.0)">p</text><text xml:space="preserve" font-family="HelveticaNeue-Light" font-size="16.0" fill="#A6AAA8" transform="matrix(1.00, 0.00, -0.00, -1.00, 101.1, 13.0)">h</text><text xml:space="preserve" font-family="HelveticaNeue-Light" font-size="16.0" fill="#A6AAA8" transform="matrix(1.00, 0.00, -0.00, -1.00, 109.6, 13.0)">y</text><text xml:space="preserve" font-family="HelveticaNeue-Light" font-size="16.0" fill="#A6AAA8" transform="matrix(1.00, 0.00, -0.00, -1.00, 117.1, 13.0)"> </text><text xml:space="preserve" font-family="HelveticaNeue-Light" font-size="16.0" fill="#A6AAA8" transform="matrix(1.00, 0.00, -0.00, -1.00, 121.5, 13.0)">&amp;</text><text xml:space="preserve" font-family="HelveticaNeue-Light" font-size="16.0" fill="#A6AAA8" transform="matrix(1.00, 0.00, -0.00, -1.00, 131.3, 13.0)"> </text><text xml:space="preserve" font-family="HelveticaNeue-Light" font-size="16.0" fill="#A6AAA8" transform="matrix(1.00, 0.00, -0.00, -1.00, 135.7, 13.0)">R</text><text xml:space="preserve" font-family="HelveticaNeue-Light" font-size="16.0" fill="#A6AAA8" transform="matrix(1.00, 0.00, -0.00, -1.00, 146.4, 13.0)">e</text><text xml:space="preserve" font-family="HelveticaNeue-Light" font-size="16.0" fill="#A6AAA8" transform="matrix(1.00, 0.00, -0.00, -1.00, 154.7, 13.0)">f</text><text xml:space="preserve" font-family="HelveticaNeue-Light" font-size="16.0" fill="#A6AAA8" transform="matrix(1.00, 0.00, -0.00, -1.00, 158.8, 13.0)">e</text><text xml:space="preserve" font-family="HelveticaNeue-Light" font-size="16.0" fill="#A6AAA8" transform="matrix(1.00, 0.00, -0.00, -1.00, 167.2, 13.0)">r</text><text xml:space="preserve" font-family="HelveticaNeue-Light" font-size="16.0" fill="#A6AAA8" transform="matrix(1.00, 0.00, -0.00, -1.00, 171.9, 13.0)">e</text><text xml:space="preserve" font-family="HelveticaNeue-Light" font-size="16.0" fill="#A6AAA8" transform="matrix(1.00, 0.00, -0.00, -1.00, 180.2, 13.0)">n</text><text xml:space="preserve" font-family="HelveticaNeue-Light" font-size="16.0" fill="#A6AAA8" transform="matrix(1.00, 0.00, -0.00, -1.00, 188.8, 13.0)">c</text><text xml:space="preserve" font-family="HelveticaNeue-Light" font-size="16.0" fill="#A6AAA8" transform="matrix(1.00, 0.00, -0.00, -1.00, 197.1, 13.0)">e</text><text xml:space="preserve" font-family="HelveticaNeue-Light" font-size="16.0" fill="#A6AAA8" transform="matrix(1.00, 0.00, -0.00, -1.00, 205.4, 13.0)"> </text><text xml:space="preserve" font-family="HelveticaNeue-Light" font-size="16.0" fill="#A6AAA8" transform="matrix(1.00, 0.00, -0.00, -1.00, 209.9, 13.0)">M</text><text xml:space="preserve" font-family="HelveticaNeue-Light" font-size="16.0" fill="#A6AAA8" transform="matrix(1.00, 0.00, -0.00, -1.00, 223.0, 13.0)">a</text><text xml:space="preserve" font-family="HelveticaNeue-Light" font-size="16.0" fill="#A6AAA8" transform="matrix(1.00, 0.00, -0.00, -1.00, 231.3, 13.0)">n</text><text xml:space="preserve" font-family="HelveticaNeue-Light" font-size="16.0" fill="#A6AAA8" transform="matrix(1.00, 0.00, -0.00, -1.00, 239.9, 13.0)">a</text><text xml:space="preserve" font-family="HelveticaNeue-Light" font-size="16.0" fill="#A6AAA8" transform="matrix(1.00, 0.00, -0.00, -1.00, 248.2, 13.0)">g</text><text xml:space="preserve" font-family="HelveticaNeue-Light" font-size="16.0" fill="#A6AAA8" transform="matrix(1.00, 0.00, -0.00, -1.00, 257.1, 13.0)">e</text><text xml:space="preserve" font-family="HelveticaNeue-Light" font-size="16.0" fill="#A6AAA8" transform="matrix(1.00, 0.00, -0.00, -1.00, 265.4, 13.0)">m</text><text xml:space="preserve" font-family="HelveticaNeue-Light" font-size="16.0" fill="#A6AAA8" transform="matrix(1.00, 0.00, -0.00, -1.00, 278.7, 13.0)">e</text><text xml:space="preserve" font-family="HelveticaNeue-Light" font-size="16.0" fill="#A6AAA8" transform="matrix(1.00, 0.00, -0.00, -1.00, 287.0, 13.0)">n</text><text xml:space="preserve" font-family="HelveticaNeue-Light" font-size="16.0" fill="#A6AAA8" transform="matrix(1.00, 0.00, -0.00, -1.00, 295.6, 13.0)">t</text><text xml:space="preserve" font-family="HelveticaNeue-Light" font-size="16.0" fill="#A6AAA8" transform="matrix(1.00, 0.00, -0.00, -1.00, 984.0, 13.0)">3</text><image xlink:href="../../A24D5CC5-606A-4FB5-8A11-C1C436988D78/assets/DD370914982B3BCBE0239D03B45013F1.png" width="515.00" height="515.00" transform="matrix(0.24, 0.00, -0.00, -0.24, 18.9, 748.1)" opacity="0.50"></image><g><clipPath id="clip-243"><path d="M 80.7 747.9 C 65.0 747.9 49.3 741.9 37.3 729.9 C 13.4 705.9 13.4 667.1 37.3 643.1 C 61.3 619.1 100.2 619.1 124.1 643.1 C 148.1 667.1 148.1 705.9 124.1 729.9 C 112.1 741.9 96.4 747.9 80.7 747.9 Z M 80.7 708.1 C 86.3 708.1 91.8 706.0 96.0 701.8 C 104.4 693.3 104.4 679.7 96.0 671.2 C 87.6 662.8 73.9 662.8 65.5 671.2 C 57.0 679.7 57.0 693.3 65.5 701.8 C 69.7 706.0 75.2 708.1 80.7 708.1 Z M 80.7 708.1 "></path></clipPath><g clip-path="url(#clip-243)"><image xlink:href="../../A24D5CC5-606A-4FB5-8A11-C1C436988D78/assets/944731820E2EDE28C602CFAEFDFD3564.jpeg" width="624.00" height="717.00" transform="matrix(0.24, 0.00, -0.00, -0.24, 9.9, 790.9)"></image></g></g></g></svg>