<?xml version="1.0" encoding="UTF-8" standalone="no"?><svg xmlns="http://www.w3.org/2000/svg" xmlns:xlink="http://www.w3.org/1999/xlink" clip-rule="evenodd" stroke-miterlimit="4.00" viewBox="0 0 857 151"><desc>SVG generated by Keynote</desc><defs></defs><g transform="matrix(1.00, 0.00, -0.00, -1.00, 0.0, 151.0)"><text xml:space="preserve" font-family="Helvetica-Light" font-size="30.0" fill="#4C5B69" transform="matrix(1.00, 0.00, -0.00, -1.00, 2.0, 128.0)">T</text><text xml:space="preserve" font-family="Helvetica-Light" font-size="30.0" fill="#4C5B69" transform="matrix(1.00, 0.00, -0.00, -1.00, 18.7, 128.0)">h</text><text xml:space="preserve" font-family="Helvetica-Light" font-size="30.0" fill="#4C5B69" transform="matrix(1.00, 0.00, -0.00, -1.00, 35.4, 128.0)">e</text><text xml:space="preserve" font-family="Helvetica-Light" font-size="30.0" fill="#4C5B69" transform="matrix(1.00, 0.00, -0.00, -1.00, 52.0, 128.0)"> </text><text xml:space="preserve" font-family="Helvetica-Light" font-size="30.0" fill="#4C5B69" transform="matrix(1.00, 0.00, -0.00, -1.00, 60.4, 128.0)">h</text><text xml:space="preserve" font-family="Helvetica-Light" font-size="30.0" fill="#4C5B69" transform="matrix(1.00, 0.00, -0.00, -1.00, 77.1, 128.0)">-</text><text xml:space="preserve" font-family="Helvetica-Light" font-size="30.0" fill="#4C5B69" transform="matrix(1.00, 0.00, -0.00, -1.00, 87.0, 128.0)">i</text><text xml:space="preserve" font-family="Helvetica-Light" font-size="30.0" fill="#4C5B69" transform="matrix(1.00, 0.00, -0.00, -1.00, 93.7, 128.0)">n</text><text xml:space="preserve" font-family="Helvetica-Light" font-size="30.0" fill="#4C5B69" transform="matrix(1.00, 0.00, -0.00, -1.00, 110.4, 128.0)">d</text><text xml:space="preserve" font-family="Helvetica-Light" font-size="30.0" fill="#4C5B69" transform="matrix(1.00, 0.00, -0.00, -1.00, 128.7, 128.0)">e</text><text xml:space="preserve" font-family="Helvetica-Light" font-size="30.0" fill="#4C5B69" transform="matrix(1.00, 0.00, -0.00, -1.00, 145.4, 128.0)">x</text><text xml:space="preserve" font-family="Helvetica-Light" font-size="30.0" fill="#4C5B69" transform="matrix(1.00, 0.00, -0.00, -1.00, 160.4, 128.0)"> </text><text xml:space="preserve" font-family="Helvetica-Light" font-size="30.0" fill="#4C5B69" transform="matrix(1.00, 0.00, -0.00, -1.00, 168.7, 128.0)">i</text><text xml:space="preserve" font-family="Helvetica-Light" font-size="30.0" fill="#4C5B69" transform="matrix(1.00, 0.00, -0.00, -1.00, 175.4, 128.0)">s</text><text xml:space="preserve" font-family="Helvetica-Light" font-size="30.0" fill="#4C5B69" transform="matrix(1.00, 0.00, -0.00, -1.00, 190.4, 128.0)"> </text><text xml:space="preserve" font-family="Helvetica-Light" font-size="30.0" fill="#4C5B69" transform="matrix(1.00, 0.00, -0.00, -1.00, 198.7, 128.0)">l</text><text xml:space="preserve" font-family="Helvetica-Light" font-size="30.0" fill="#4C5B69" transform="matrix(1.00, 0.00, -0.00, -1.00, 205.4, 128.0)">o</text><text xml:space="preserve" font-family="Helvetica-Light" font-size="30.0" fill="#4C5B69" transform="matrix(1.00, 0.00, -0.00, -1.00, 222.1, 128.0)">o</text><text xml:space="preserve" font-family="Helvetica-Light" font-size="30.0" fill="#4C5B69" transform="matrix(1.00, 0.00, -0.00, -1.00, 238.8, 128.0)">k</text><text xml:space="preserve" font-family="Helvetica-Light" font-size="30.0" fill="#4C5B69" transform="matrix(1.00, 0.00, -0.00, -1.00, 253.8, 128.0)">i</text><text xml:space="preserve" font-family="Helvetica-Light" font-size="30.0" fill="#4C5B69" transform="matrix(1.00, 0.00, -0.00, -1.00, 260.4, 128.0)">n</text><text xml:space="preserve" font-family="Helvetica-Light" font-size="30.0" fill="#4C5B69" transform="matrix(1.00, 0.00, -0.00, -1.00, 277.1, 128.0)">g</text><text xml:space="preserve" font-family="Helvetica-Light" font-size="30.0" fill="#4C5B69" transform="matrix(1.00, 0.00, -0.00, -1.00, 295.4, 128.0)"> </text><text xml:space="preserve" font-family="Helvetica-Light" font-size="30.0" fill="#4C5B69" transform="matrix(1.00, 0.00, -0.00, -1.00, 303.8, 128.0)">b</text><text xml:space="preserve" font-family="Helvetica-Light" font-size="30.0" fill="#4C5B69" transform="matrix(1.00, 0.00, -0.00, -1.00, 322.1, 128.0)">o</text><text xml:space="preserve" font-family="Helvetica-Light" font-size="30.0" fill="#4C5B69" transform="matrix(1.00, 0.00, -0.00, -1.00, 338.8, 128.0)">t</text><text xml:space="preserve" font-family="Helvetica-Light" font-size="30.0" fill="#4C5B69" transform="matrix(1.00, 0.00, -0.00, -1.00, 347.1, 128.0)">h</text><text xml:space="preserve" font-family="Helvetica-Light" font-size="30.0" fill="#4C5B69" transform="matrix(1.00, 0.00, -0.00, -1.00, 363.8, 128.0)"> </text><text xml:space="preserve" font-family="Helvetica-Light" font-size="30.0" fill="#4C5B69" transform="matrix(1.00, 0.00, -0.00, -1.00, 372.1, 128.0)">a</text><text xml:space="preserve" font-family="Helvetica-Light" font-size="30.0" fill="#4C5B69" transform="matrix(1.00, 0.00, -0.00, -1.00, 388.8, 128.0)">t</text><text xml:space="preserve" font-family="Helvetica-Light" font-size="30.0" fill="#4C5B69" transform="matrix(1.00, 0.00, -0.00, -1.00, 397.2, 128.0)"> </text><text xml:space="preserve" font-family="Helvetica-Light" font-size="30.0" fill="#4C5B69" transform="matrix(1.00, 0.00, -0.00, -1.00, 405.5, 128.0)">a</text><text xml:space="preserve" font-family="Helvetica-Light" font-size="30.0" fill="#4C5B69" transform="matrix(1.00, 0.00, -0.00, -1.00, 422.2, 128.0)">n</text><text xml:space="preserve" font-family="Helvetica-Light" font-size="30.0" fill="#4C5B69" transform="matrix(1.00, 0.00, -0.00, -1.00, 438.9, 128.0)"> </text><text xml:space="preserve" font-family="Helvetica-Light" font-size="30.0" fill="#4C5B69" transform="matrix(1.00, 0.00, -0.00, -1.00, 447.2, 128.0)">i</text><text xml:space="preserve" font-family="Helvetica-Light" font-size="30.0" fill="#4C5B69" transform="matrix(1.00, 0.00, -0.00, -1.00, 453.9, 128.0)">n</text><text xml:space="preserve" font-family="Helvetica-Light" font-size="30.0" fill="#4C5B69" transform="matrix(1.00, 0.00, -0.00, -1.00, 470.5, 128.0)">d</text><text xml:space="preserve" font-family="Helvetica-Light" font-size="30.0" fill="#4C5B69" transform="matrix(1.00, 0.00, -0.00, -1.00, 488.9, 128.0)">i</text><text xml:space="preserve" font-family="Helvetica-Light" font-size="30.0" fill="#4C5B69" transform="matrix(1.00, 0.00, -0.00, -1.00, 495.5, 128.0)">v</text><text xml:space="preserve" font-family="Helvetica-Light" font-size="30.0" fill="#4C5B69" transform="matrix(1.00, 0.00, -0.00, -1.00, 510.5, 128.0)">i</text><text xml:space="preserve" font-family="Helvetica-Light" font-size="30.0" fill="#4C5B69" transform="matrix(1.00, 0.00, -0.00, -1.00, 517.2, 128.0)">d</text><text xml:space="preserve" font-family="Helvetica-Light" font-size="30.0" fill="#4C5B69" transform="matrix(1.00, 0.00, -0.00, -1.00, 535.5, 128.0)">u</text><text xml:space="preserve" font-family="Helvetica-Light" font-size="30.0" fill="#4C5B69" transform="matrix(1.00, 0.00, -0.00, -1.00, 552.2, 128.0)">a</text><text xml:space="preserve" font-family="Helvetica-Light" font-size="30.0" fill="#4C5B69" transform="matrix(1.00, 0.00, -0.00, -1.00, 568.9, 128.0)">l</text><text xml:space="preserve" font-family="Helvetica-Light" font-size="30.0" fill="#4C5B69" transform="matrix(1.00, 0.00, -0.00, -1.00, 575.5, 128.0)">s</text><text xml:space="preserve" font-family="Helvetica-Light" font-size="30.0" fill="#4C5B69" transform="matrix(1.00, 0.00, -0.00, -1.00, 590.5, 128.0)"> </text><text xml:space="preserve" font-family="Helvetica-Light" font-size="30.0" fill="#4C5B69" transform="matrix(1.00, 0.00, -0.00, -1.00, 598.9, 128.0)">t</text><text xml:space="preserve" font-family="Helvetica-Light" font-size="30.0" fill="#4C5B69" transform="matrix(1.00, 0.00, -0.00, -1.00, 607.2, 128.0)">o</text><text xml:space="preserve" font-family="Helvetica-Light" font-size="30.0" fill="#4C5B69" transform="matrix(1.00, 0.00, -0.00, -1.00, 623.9, 128.0)">t</text><text xml:space="preserve" font-family="Helvetica-Light" font-size="30.0" fill="#4C5B69" transform="matrix(1.00, 0.00, -0.00, -1.00, 632.2, 128.0)">a</text><text xml:space="preserve" font-family="Helvetica-Light" font-size="30.0" fill="#4C5B69" transform="matrix(1.00, 0.00, -0.00, -1.00, 648.9, 128.0)">l</text><text xml:space="preserve" font-family="Helvetica-Light" font-size="30.0" fill="#4C5B69" transform="matrix(1.00, 0.00, -0.00, -1.00, 655.6, 128.0)"> </text><text xml:space="preserve" font-family="Helvetica-Light" font-size="30.0" fill="#4C5B69" transform="matrix(1.00, 0.00, -0.00, -1.00, 663.9, 128.0)">n</text><text xml:space="preserve" font-family="Helvetica-Light" font-size="30.0" fill="#4C5B69" transform="matrix(1.00, 0.00, -0.00, -1.00, 680.6, 128.0)">u</text><text xml:space="preserve" font-family="Helvetica-Light" font-size="30.0" fill="#4C5B69" transform="matrix(1.00, 0.00, -0.00, -1.00, 697.3, 128.0)">m</text><text xml:space="preserve" font-family="Helvetica-Light" font-size="30.0" fill="#4C5B69" transform="matrix(1.00, 0.00, -0.00, -1.00, 722.3, 128.0)">b</text><text xml:space="preserve" font-family="Helvetica-Light" font-size="30.0" fill="#4C5B69" transform="matrix(1.00, 0.00, -0.00, -1.00, 740.6, 128.0)">e</text><text xml:space="preserve" font-family="Helvetica-Light" font-size="30.0" fill="#4C5B69" transform="matrix(1.00, 0.00, -0.00, -1.00, 757.3, 128.0)">r</text><text xml:space="preserve" font-family="Helvetica-Light" font-size="30.0" fill="#4C5B69" transform="matrix(1.00, 0.00, -0.00, -1.00, 767.3, 128.0)"> </text><text xml:space="preserve" font-family="Helvetica-Light" font-size="30.0" fill="#4C5B69" transform="matrix(1.00, 0.00, -0.00, -1.00, 775.6, 128.0)">o</text><text xml:space="preserve" font-family="Helvetica-Light" font-size="30.0" fill="#4C5B69" transform="matrix(1.00, 0.00, -0.00, -1.00, 792.3, 128.0)">f</text><text xml:space="preserve" font-family="Helvetica-Light" font-size="30.0" fill="#4C5B69" transform="matrix(1.00, 0.00, -0.00, -1.00, 800.6, 128.0)"> </text><text xml:space="preserve" font-family="Helvetica-Light" font-size="30.0" fill="#4C5B69" transform="matrix(1.00, 0.00, -0.00, -1.00, 2.0, 88.0)">a</text><text xml:space="preserve" font-family="Helvetica-Light" font-size="30.0" fill="#4C5B69" transform="matrix(1.00, 0.00, -0.00, -1.00, 18.7, 88.0)">r</text><text xml:space="preserve" font-family="Helvetica-Light" font-size="30.0" fill="#4C5B69" transform="matrix(1.00, 0.00, -0.00, -1.00, 29.2, 88.0)">t</text><text xml:space="preserve" font-family="Helvetica-Light" font-size="30.0" fill="#4C5B69" transform="matrix(1.00, 0.00, -0.00, -1.00, 37.5, 88.0)">i</text><text xml:space="preserve" font-family="Helvetica-Light" font-size="30.0" fill="#4C5B69" transform="matrix(1.00, 0.00, -0.00, -1.00, 44.2, 88.0)">c</text><text xml:space="preserve" font-family="Helvetica-Light" font-size="30.0" fill="#4C5B69" transform="matrix(1.00, 0.00, -0.00, -1.00, 60.9, 88.0)">l</text><text xml:space="preserve" font-family="Helvetica-Light" font-size="30.0" fill="#4C5B69" transform="matrix(1.00, 0.00, -0.00, -1.00, 67.5, 88.0)">e</text><text xml:space="preserve" font-family="Helvetica-Light" font-size="30.0" fill="#4C5B69" transform="matrix(1.00, 0.00, -0.00, -1.00, 84.2, 88.0)">s</text><text xml:space="preserve" font-family="Helvetica-Light" font-size="30.0" fill="#4C5B69" transform="matrix(1.00, 0.00, -0.00, -1.00, 99.2, 88.0)"> </text><text xml:space="preserve" font-family="Helvetica-Light" font-size="30.0" fill="#4C5B69" transform="matrix(1.00, 0.00, -0.00, -1.00, 107.6, 88.0)">a</text><text xml:space="preserve" font-family="Helvetica-Light" font-size="30.0" fill="#4C5B69" transform="matrix(1.00, 0.00, -0.00, -1.00, 124.2, 88.0)">n</text><text xml:space="preserve" font-family="Helvetica-Light" font-size="30.0" fill="#4C5B69" transform="matrix(1.00, 0.00, -0.00, -1.00, 140.9, 88.0)">d</text><text xml:space="preserve" font-family="Helvetica-Light" font-size="30.0" fill="#4C5B69" transform="matrix(1.00, 0.00, -0.00, -1.00, 159.3, 88.0)"> </text><text xml:space="preserve" font-family="Helvetica-Light" font-size="30.0" fill="#4C5B69" transform="matrix(1.00, 0.00, -0.00, -1.00, 167.6, 88.0)">t</text><text xml:space="preserve" font-family="Helvetica-Light" font-size="30.0" fill="#4C5B69" transform="matrix(1.00, 0.00, -0.00, -1.00, 175.9, 88.0)">h</text><text xml:space="preserve" font-family="Helvetica-Light" font-size="30.0" fill="#4C5B69" transform="matrix(1.00, 0.00, -0.00, -1.00, 192.6, 88.0)">e</text><text xml:space="preserve" font-family="Helvetica-Light" font-size="30.0" fill="#4C5B69" transform="matrix(1.00, 0.00, -0.00, -1.00, 209.3, 88.0)"> </text><text xml:space="preserve" font-family="Helvetica-Light" font-size="30.0" fill="#4C5B69" transform="matrix(1.00, 0.00, -0.00, -1.00, 217.6, 88.0)">t</text><text xml:space="preserve" font-family="Helvetica-Light" font-size="30.0" fill="#4C5B69" transform="matrix(1.00, 0.00, -0.00, -1.00, 226.0, 88.0)">o</text><text xml:space="preserve" font-family="Helvetica-Light" font-size="30.0" fill="#4C5B69" transform="matrix(1.00, 0.00, -0.00, -1.00, 242.7, 88.0)">t</text><text xml:space="preserve" font-family="Helvetica-Light" font-size="30.0" fill="#4C5B69" transform="matrix(1.00, 0.00, -0.00, -1.00, 251.0, 88.0)">a</text><text xml:space="preserve" font-family="Helvetica-Light" font-size="30.0" fill="#4C5B69" transform="matrix(1.00, 0.00, -0.00, -1.00, 267.7, 88.0)">l</text><text xml:space="preserve" font-family="Helvetica-Light" font-size="30.0" fill="#4C5B69" transform="matrix(1.00, 0.00, -0.00, -1.00, 274.3, 88.0)"> </text><text xml:space="preserve" font-family="Helvetica-Light" font-size="30.0" fill="#4C5B69" transform="matrix(1.00, 0.00, -0.00, -1.00, 282.7, 88.0)">t</text><text xml:space="preserve" font-family="Helvetica-Light" font-size="30.0" fill="#4C5B69" transform="matrix(1.00, 0.00, -0.00, -1.00, 291.0, 88.0)">i</text><text xml:space="preserve" font-family="Helvetica-Light" font-size="30.0" fill="#4C5B69" transform="matrix(1.00, 0.00, -0.00, -1.00, 297.7, 88.0)">m</text><text xml:space="preserve" font-family="Helvetica-Light" font-size="30.0" fill="#4C5B69" transform="matrix(1.00, 0.00, -0.00, -1.00, 322.7, 88.0)">e</text><text xml:space="preserve" font-family="Helvetica-Light" font-size="30.0" fill="#4C5B69" transform="matrix(1.00, 0.00, -0.00, -1.00, 339.4, 88.0)"> </text><text xml:space="preserve" font-family="Helvetica-Light" font-size="30.0" fill="#4C5B69" transform="matrix(1.00, 0.00, -0.00, -1.00, 347.7, 88.0)">t</text><text xml:space="preserve" font-family="Helvetica-Light" font-size="30.0" fill="#4C5B69" transform="matrix(1.00, 0.00, -0.00, -1.00, 356.0, 88.0)">h</text><text xml:space="preserve" font-family="Helvetica-Light" font-size="30.0" fill="#4C5B69" transform="matrix(1.00, 0.00, -0.00, -1.00, 372.7, 88.0)">e</text><text xml:space="preserve" font-family="Helvetica-Light" font-size="30.0" fill="#4C5B69" transform="matrix(1.00, 0.00, -0.00, -1.00, 389.4, 88.0)"> </text><text xml:space="preserve" font-family="Helvetica-Light" font-size="30.0" fill="#4C5B69" transform="matrix(1.00, 0.00, -0.00, -1.00, 397.7, 88.0)">a</text><text xml:space="preserve" font-family="Helvetica-Light" font-size="30.0" fill="#4C5B69" transform="matrix(1.00, 0.00, -0.00, -1.00, 414.4, 88.0)">r</text><text xml:space="preserve" font-family="Helvetica-Light" font-size="30.0" fill="#4C5B69" transform="matrix(1.00, 0.00, -0.00, -1.00, 424.9, 88.0)">t</text><text xml:space="preserve" font-family="Helvetica-Light" font-size="30.0" fill="#4C5B69" transform="matrix(1.00, 0.00, -0.00, -1.00, 433.3, 88.0)">i</text><text xml:space="preserve" font-family="Helvetica-Light" font-size="30.0" fill="#4C5B69" transform="matrix(1.00, 0.00, -0.00, -1.00, 439.9, 88.0)">c</text><text xml:space="preserve" font-family="Helvetica-Light" font-size="30.0" fill="#4C5B69" transform="matrix(1.00, 0.00, -0.00, -1.00, 456.6, 88.0)">l</text><text xml:space="preserve" font-family="Helvetica-Light" font-size="30.0" fill="#4C5B69" transform="matrix(1.00, 0.00, -0.00, -1.00, 463.3, 88.0)">e</text><text xml:space="preserve" font-family="Helvetica-Light" font-size="30.0" fill="#4C5B69" transform="matrix(1.00, 0.00, -0.00, -1.00, 480.0, 88.0)">s</text><text xml:space="preserve" font-family="Helvetica-Light" font-size="30.0" fill="#4C5B69" transform="matrix(1.00, 0.00, -0.00, -1.00, 495.0, 88.0)"> </text><text xml:space="preserve" font-family="Helvetica-Light" font-size="30.0" fill="#4C5B69" transform="matrix(1.00, 0.00, -0.00, -1.00, 503.3, 88.0)">h</text><text xml:space="preserve" font-family="Helvetica-Light" font-size="30.0" fill="#4C5B69" transform="matrix(1.00, 0.00, -0.00, -1.00, 520.0, 88.0)">a</text><text xml:space="preserve" font-family="Helvetica-Light" font-size="30.0" fill="#4C5B69" transform="matrix(1.00, 0.00, -0.00, -1.00, 536.7, 88.0)">v</text><text xml:space="preserve" font-family="Helvetica-Light" font-size="30.0" fill="#4C5B69" transform="matrix(1.00, 0.00, -0.00, -1.00, 551.7, 88.0)">e</text><text xml:space="preserve" font-family="Helvetica-Light" font-size="30.0" fill="#4C5B69" transform="matrix(1.00, 0.00, -0.00, -1.00, 568.3, 88.0)"> </text><text xml:space="preserve" font-family="Helvetica-Light" font-size="30.0" fill="#4C5B69" transform="matrix(1.00, 0.00, -0.00, -1.00, 576.7, 88.0)">b</text><text xml:space="preserve" font-family="Helvetica-Light" font-size="30.0" fill="#4C5B69" transform="matrix(1.00, 0.00, -0.00, -1.00, 595.0, 88.0)">e</text><text xml:space="preserve" font-family="Helvetica-Light" font-size="30.0" fill="#4C5B69" transform="matrix(1.00, 0.00, -0.00, -1.00, 611.7, 88.0)">e</text><text xml:space="preserve" font-family="Helvetica-Light" font-size="30.0" fill="#4C5B69" transform="matrix(1.00, 0.00, -0.00, -1.00, 628.4, 88.0)">n</text><text xml:space="preserve" font-family="Helvetica-Light" font-size="30.0" fill="#4C5B69" transform="matrix(1.00, 0.00, -0.00, -1.00, 645.0, 88.0)"> </text><text xml:space="preserve" font-family="Helvetica-Light" font-size="30.0" fill="#4C5B69" transform="matrix(1.00, 0.00, -0.00, -1.00, 653.4, 88.0)">c</text><text xml:space="preserve" font-family="Helvetica-Light" font-size="30.0" fill="#4C5B69" transform="matrix(1.00, 0.00, -0.00, -1.00, 670.1, 88.0)">i</text><text xml:space="preserve" font-family="Helvetica-Light" font-size="30.0" fill="#4C5B69" transform="matrix(1.00, 0.00, -0.00, -1.00, 676.7, 88.0)">t</text><text xml:space="preserve" font-family="Helvetica-Light" font-size="30.0" fill="#4C5B69" transform="matrix(1.00, 0.00, -0.00, -1.00, 685.1, 88.0)">e</text><text xml:space="preserve" font-family="Helvetica-Light" font-size="30.0" fill="#4C5B69" transform="matrix(1.00, 0.00, -0.00, -1.00, 701.7, 88.0)">d</text><text xml:space="preserve" font-family="Helvetica-Light" font-size="30.0" fill="#4C5B69" transform="matrix(1.00, 0.00, -0.00, -1.00, 720.1, 88.0)">.</text><text xml:space="preserve" font-family="Helvetica-Light" font-size="30.0" fill="#4C5B69" transform="matrix(1.00, 0.00, -0.00, -1.00, 728.4, 88.0)"> </text><text xml:space="preserve" font-family="Helvetica-Light" font-size="30.0" fill="#4C5B69" transform="matrix(1.00, 0.00, -0.00, -1.00, 2.0, 49.0)">S</text><text xml:space="preserve" font-family="Helvetica-Light" font-size="30.0" fill="#4C5B69" transform="matrix(1.00, 0.00, -0.00, -1.00, 20.3, 49.0)">h</text><text xml:space="preserve" font-family="Helvetica-Light" font-size="30.0" fill="#4C5B69" transform="matrix(1.00, 0.00, -0.00, -1.00, 37.0, 49.0)">o</text><text xml:space="preserve" font-family="Helvetica-Light" font-size="30.0" fill="#4C5B69" transform="matrix(1.00, 0.00, -0.00, -1.00, 53.7, 49.0)">u</text><text xml:space="preserve" font-family="Helvetica-Light" font-size="30.0" fill="#4C5B69" transform="matrix(1.00, 0.00, -0.00, -1.00, 70.4, 49.0)">l</text><text xml:space="preserve" font-family="Helvetica-Light" font-size="30.0" fill="#4C5B69" transform="matrix(1.00, 0.00, -0.00, -1.00, 77.0, 49.0)">d</text><text xml:space="preserve" font-family="Helvetica-Light" font-size="30.0" fill="#4C5B69" transform="matrix(1.00, 0.00, -0.00, -1.00, 95.4, 49.0)"> </text><text xml:space="preserve" font-family="Helvetica-Light" font-size="30.0" fill="#4C5B69" transform="matrix(1.00, 0.00, -0.00, -1.00, 103.7, 49.0)">o</text><text xml:space="preserve" font-family="Helvetica-Light" font-size="30.0" fill="#4C5B69" transform="matrix(1.00, 0.00, -0.00, -1.00, 120.4, 49.0)">n</text><text xml:space="preserve" font-family="Helvetica-Light" font-size="30.0" fill="#4C5B69" transform="matrix(1.00, 0.00, -0.00, -1.00, 137.1, 49.0)">l</text><text xml:space="preserve" font-family="Helvetica-Light" font-size="30.0" fill="#4C5B69" transform="matrix(1.00, 0.00, -0.00, -1.00, 143.7, 49.0)">y</text><text xml:space="preserve" font-family="Helvetica-Light" font-size="30.0" fill="#4C5B69" transform="matrix(1.00, 0.00, -0.00, -1.00, 158.7, 49.0)"> </text><text xml:space="preserve" font-family="Helvetica-Light" font-size="30.0" fill="#4C5B69" transform="matrix(1.00, 0.00, -0.00, -1.00, 167.1, 49.0)">c</text><text xml:space="preserve" font-family="Helvetica-Light" font-size="30.0" fill="#4C5B69" transform="matrix(1.00, 0.00, -0.00, -1.00, 183.7, 49.0)">o</text><text xml:space="preserve" font-family="Helvetica-Light" font-size="30.0" fill="#4C5B69" transform="matrix(1.00, 0.00, -0.00, -1.00, 200.4, 49.0)">m</text><text xml:space="preserve" font-family="Helvetica-Light" font-size="30.0" fill="#4C5B69" transform="matrix(1.00, 0.00, -0.00, -1.00, 225.4, 49.0)">p</text><text xml:space="preserve" font-family="Helvetica-Light" font-size="30.0" fill="#4C5B69" transform="matrix(1.00, 0.00, -0.00, -1.00, 243.7, 49.0)">a</text><text xml:space="preserve" font-family="Helvetica-Light" font-size="30.0" fill="#4C5B69" transform="matrix(1.00, 0.00, -0.00, -1.00, 260.4, 49.0)">r</text><text xml:space="preserve" font-family="Helvetica-Light" font-size="30.0" fill="#4C5B69" transform="matrix(1.00, 0.00, -0.00, -1.00, 269.9, 49.0)">e</text><text xml:space="preserve" font-family="Helvetica-Light" font-size="30.0" fill="#4C5B69" transform="matrix(1.00, 0.00, -0.00, -1.00, 286.6, 49.0)"> </text><text xml:space="preserve" font-family="Helvetica-Light" font-size="30.0" fill="#4C5B69" transform="matrix(1.00, 0.00, -0.00, -1.00, 294.9, 49.0)">h</text><text xml:space="preserve" font-family="Helvetica-Light" font-size="30.0" fill="#4C5B69" transform="matrix(1.00, 0.00, -0.00, -1.00, 311.6, 49.0)">-</text><text xml:space="preserve" font-family="Helvetica-Light" font-size="30.0" fill="#4C5B69" transform="matrix(1.00, 0.00, -0.00, -1.00, 321.6, 49.0)">i</text><text xml:space="preserve" font-family="Helvetica-Light" font-size="30.0" fill="#4C5B69" transform="matrix(1.00, 0.00, -0.00, -1.00, 328.2, 49.0)">n</text><text xml:space="preserve" font-family="Helvetica-Light" font-size="30.0" fill="#4C5B69" transform="matrix(1.00, 0.00, -0.00, -1.00, 344.9, 49.0)">d</text><text xml:space="preserve" font-family="Helvetica-Light" font-size="30.0" fill="#4C5B69" transform="matrix(1.00, 0.00, -0.00, -1.00, 363.2, 49.0)">e</text><text xml:space="preserve" font-family="Helvetica-Light" font-size="30.0" fill="#4C5B69" transform="matrix(1.00, 0.00, -0.00, -1.00, 379.9, 49.0)">x</text><text xml:space="preserve" font-family="Helvetica-Light" font-size="30.0" fill="#4C5B69" transform="matrix(1.00, 0.00, -0.00, -1.00, 394.9, 49.0)">e</text><text xml:space="preserve" font-family="Helvetica-Light" font-size="30.0" fill="#4C5B69" transform="matrix(1.00, 0.00, -0.00, -1.00, 411.6, 49.0)">s</text><text xml:space="preserve" font-family="Helvetica-Light" font-size="30.0" fill="#4C5B69" transform="matrix(1.00, 0.00, -0.00, -1.00, 426.6, 49.0)"> </text><text xml:space="preserve" font-family="Helvetica-Light" font-size="30.0" fill="#4C5B69" transform="matrix(1.00, 0.00, -0.00, -1.00, 434.9, 49.0)">w</text><text xml:space="preserve" font-family="Helvetica-Light" font-size="30.0" fill="#4C5B69" transform="matrix(1.00, 0.00, -0.00, -1.00, 456.6, 49.0)">i</text><text xml:space="preserve" font-family="Helvetica-Light" font-size="30.0" fill="#4C5B69" transform="matrix(1.00, 0.00, -0.00, -1.00, 463.3, 49.0)">t</text><text xml:space="preserve" font-family="Helvetica-Light" font-size="30.0" fill="#4C5B69" transform="matrix(1.00, 0.00, -0.00, -1.00, 471.6, 49.0)">h</text><text xml:space="preserve" font-family="Helvetica-Light" font-size="30.0" fill="#4C5B69" transform="matrix(1.00, 0.00, -0.00, -1.00, 488.3, 49.0)">i</text><text xml:space="preserve" font-family="Helvetica-Light" font-size="30.0" fill="#4C5B69" transform="matrix(1.00, 0.00, -0.00, -1.00, 494.9, 49.0)">n</text><text xml:space="preserve" font-family="Helvetica-Light" font-size="30.0" fill="#4C5B69" transform="matrix(1.00, 0.00, -0.00, -1.00, 511.6, 49.0)"> </text><text xml:space="preserve" font-family="Helvetica-Light" font-size="30.0" fill="#4C5B69" transform="matrix(1.00, 0.00, -0.00, -1.00, 520.0, 49.0)">a</text><text xml:space="preserve" font-family="Helvetica-Light" font-size="30.0" fill="#4C5B69" transform="matrix(1.00, 0.00, -0.00, -1.00, 536.6, 49.0)"> </text><text xml:space="preserve" font-family="Helvetica-Light" font-size="30.0" fill="#4C5B69" transform="matrix(1.00, 0.00, -0.00, -1.00, 545.0, 49.0)">d</text><text xml:space="preserve" font-family="Helvetica-Light" font-size="30.0" fill="#4C5B69" transform="matrix(1.00, 0.00, -0.00, -1.00, 563.3, 49.0)">i</text><text xml:space="preserve" font-family="Helvetica-Light" font-size="30.0" fill="#4C5B69" transform="matrix(1.00, 0.00, -0.00, -1.00, 570.0, 49.0)">s</text><text xml:space="preserve" font-family="Helvetica-Light" font-size="30.0" fill="#4C5B69" transform="matrix(1.00, 0.00, -0.00, -1.00, 585.0, 49.0)">c</text><text xml:space="preserve" font-family="Helvetica-Light" font-size="30.0" fill="#4C5B69" transform="matrix(1.00, 0.00, -0.00, -1.00, 601.6, 49.0)">i</text><text xml:space="preserve" font-family="Helvetica-Light" font-size="30.0" fill="#4C5B69" transform="matrix(1.00, 0.00, -0.00, -1.00, 608.3, 49.0)">p</text><text xml:space="preserve" font-family="Helvetica-Light" font-size="30.0" fill="#4C5B69" transform="matrix(1.00, 0.00, -0.00, -1.00, 626.6, 49.0)">l</text><text xml:space="preserve" font-family="Helvetica-Light" font-size="30.0" fill="#4C5B69" transform="matrix(1.00, 0.00, -0.00, -1.00, 633.3, 49.0)">i</text><text xml:space="preserve" font-family="Helvetica-Light" font-size="30.0" fill="#4C5B69" transform="matrix(1.00, 0.00, -0.00, -1.00, 639.9, 49.0)">n</text><text xml:space="preserve" font-family="Helvetica-Light" font-size="30.0" fill="#4C5B69" transform="matrix(1.00, 0.00, -0.00, -1.00, 656.6, 49.0)">e</text><text xml:space="preserve" font-family="Helvetica-Light" font-size="30.0" fill="#4C5B69" transform="matrix(1.00, 0.00, -0.00, -1.00, 673.3, 49.0)"> </text><text xml:space="preserve" font-family="Helvetica-Light" font-size="30.0" fill="#4C5B69" transform="matrix(1.00, 0.00, -0.00, -1.00, 681.6, 49.0)">–</text><text xml:space="preserve" font-family="Helvetica-Light" font-size="30.0" fill="#4C5B69" transform="matrix(1.00, 0.00, -0.00, -1.00, 696.6, 49.0)"> </text><text xml:space="preserve" font-family="Helvetica-Light" font-size="30.0" fill="#4C5B69" transform="matrix(1.00, 0.00, -0.00, -1.00, 705.0, 49.0)">a</text><text xml:space="preserve" font-family="Helvetica-Light" font-size="30.0" fill="#4C5B69" transform="matrix(1.00, 0.00, -0.00, -1.00, 721.7, 49.0)">n</text><text xml:space="preserve" font-family="Helvetica-Light" font-size="30.0" fill="#4C5B69" transform="matrix(1.00, 0.00, -0.00, -1.00, 738.3, 49.0)">d</text><text xml:space="preserve" font-family="Helvetica-Light" font-size="30.0" fill="#4C5B69" transform="matrix(1.00, 0.00, -0.00, -1.00, 756.7, 49.0)"> </text><text xml:space="preserve" font-family="Helvetica-Light" font-size="30.0" fill="#4C5B69" transform="matrix(1.00, 0.00, -0.00, -1.00, 765.0, 49.0)">s</text><text xml:space="preserve" font-family="Helvetica-Light" font-size="30.0" fill="#4C5B69" transform="matrix(1.00, 0.00, -0.00, -1.00, 780.0, 49.0)">h</text><text xml:space="preserve" font-family="Helvetica-Light" font-size="30.0" fill="#4C5B69" transform="matrix(1.00, 0.00, -0.00, -1.00, 796.7, 49.0)">o</text><text xml:space="preserve" font-family="Helvetica-Light" font-size="30.0" fill="#4C5B69" transform="matrix(1.00, 0.00, -0.00, -1.00, 813.4, 49.0)">u</text><text xml:space="preserve" font-family="Helvetica-Light" font-size="30.0" fill="#4C5B69" transform="matrix(1.00, 0.00, -0.00, -1.00, 830.1, 49.0)">l</text><text xml:space="preserve" font-family="Helvetica-Light" font-size="30.0" fill="#4C5B69" transform="matrix(1.00, 0.00, -0.00, -1.00, 836.7, 49.0)">d</text><text xml:space="preserve" font-family="Helvetica-Light" font-size="30.0" fill="#4C5B69" transform="matrix(1.00, 0.00, -0.00, -1.00, 855.0, 49.0)"> </text><text xml:space="preserve" font-family="Helvetica-Light" font-size="30.0" fill="#4C5B69" transform="matrix(1.00, 0.00, -0.00, -1.00, 2.0, 9.0)">o</text><text xml:space="preserve" font-family="Helvetica-Light" font-size="30.0" fill="#4C5B69" transform="matrix(1.00, 0.00, -0.00, -1.00, 18.7, 9.0)">n</text><text xml:space="preserve" font-family="Helvetica-Light" font-size="30.0" fill="#4C5B69" transform="matrix(1.00, 0.00, -0.00, -1.00, 35.4, 9.0)">l</text><text xml:space="preserve" font-family="Helvetica-Light" font-size="30.0" fill="#4C5B69" transform="matrix(1.00, 0.00, -0.00, -1.00, 42.0, 9.0)">y</text><text xml:space="preserve" font-family="Helvetica-Light" font-size="30.0" fill="#4C5B69" transform="matrix(1.00, 0.00, -0.00, -1.00, 57.0, 9.0)"> </text><text xml:space="preserve" font-family="Helvetica-Light" font-size="30.0" fill="#4C5B69" transform="matrix(1.00, 0.00, -0.00, -1.00, 65.4, 9.0)">c</text><text xml:space="preserve" font-family="Helvetica-Light" font-size="30.0" fill="#4C5B69" transform="matrix(1.00, 0.00, -0.00, -1.00, 82.0, 9.0)">o</text><text xml:space="preserve" font-family="Helvetica-Light" font-size="30.0" fill="#4C5B69" transform="matrix(1.00, 0.00, -0.00, -1.00, 98.7, 9.0)">m</text><text xml:space="preserve" font-family="Helvetica-Light" font-size="30.0" fill="#4C5B69" transform="matrix(1.00, 0.00, -0.00, -1.00, 123.7, 9.0)">p</text><text xml:space="preserve" font-family="Helvetica-Light" font-size="30.0" fill="#4C5B69" transform="matrix(1.00, 0.00, -0.00, -1.00, 142.0, 9.0)">a</text><text xml:space="preserve" font-family="Helvetica-Light" font-size="30.0" fill="#4C5B69" transform="matrix(1.00, 0.00, -0.00, -1.00, 158.7, 9.0)">r</text><text xml:space="preserve" font-family="Helvetica-Light" font-size="30.0" fill="#4C5B69" transform="matrix(1.00, 0.00, -0.00, -1.00, 168.2, 9.0)">e</text><text xml:space="preserve" font-family="Helvetica-Light" font-size="30.0" fill="#4C5B69" transform="matrix(1.00, 0.00, -0.00, -1.00, 184.9, 9.0)"> </text><text xml:space="preserve" font-family="Helvetica-Light" font-size="30.0" fill="#4C5B69" transform="matrix(1.00, 0.00, -0.00, -1.00, 193.2, 9.0)">h</text><text xml:space="preserve" font-family="Helvetica-Light" font-size="30.0" fill="#4C5B69" transform="matrix(1.00, 0.00, -0.00, -1.00, 209.9, 9.0)">-</text><text xml:space="preserve" font-family="Helvetica-Light" font-size="30.0" fill="#4C5B69" transform="matrix(1.00, 0.00, -0.00, -1.00, 219.9, 9.0)">i</text><text xml:space="preserve" font-family="Helvetica-Light" font-size="30.0" fill="#4C5B69" transform="matrix(1.00, 0.00, -0.00, -1.00, 226.5, 9.0)">n</text><text xml:space="preserve" font-family="Helvetica-Light" font-size="30.0" fill="#4C5B69" transform="matrix(1.00, 0.00, -0.00, -1.00, 243.2, 9.0)">d</text><text xml:space="preserve" font-family="Helvetica-Light" font-size="30.0" fill="#4C5B69" transform="matrix(1.00, 0.00, -0.00, -1.00, 261.5, 9.0)">e</text><text xml:space="preserve" font-family="Helvetica-Light" font-size="30.0" fill="#4C5B69" transform="matrix(1.00, 0.00, -0.00, -1.00, 278.2, 9.0)">x</text><text xml:space="preserve" font-family="Helvetica-Light" font-size="30.0" fill="#4C5B69" transform="matrix(1.00, 0.00, -0.00, -1.00, 293.2, 9.0)">e</text><text xml:space="preserve" font-family="Helvetica-Light" font-size="30.0" fill="#4C5B69" transform="matrix(1.00, 0.00, -0.00, -1.00, 309.9, 9.0)">s</text><text xml:space="preserve" font-family="Helvetica-Light" font-size="30.0" fill="#4C5B69" transform="matrix(1.00, 0.00, -0.00, -1.00, 324.9, 9.0)"> </text><text xml:space="preserve" font-family="Helvetica-Light" font-size="30.0" fill="#4C5B69" transform="matrix(1.00, 0.00, -0.00, -1.00, 333.2, 9.0)">w</text><text xml:space="preserve" font-family="Helvetica-Light" font-size="30.0" fill="#4C5B69" transform="matrix(1.00, 0.00, -0.00, -1.00, 354.9, 9.0)">i</text><text xml:space="preserve" font-family="Helvetica-Light" font-size="30.0" fill="#4C5B69" transform="matrix(1.00, 0.00, -0.00, -1.00, 361.6, 9.0)">t</text><text xml:space="preserve" font-family="Helvetica-Light" font-size="30.0" fill="#4C5B69" transform="matrix(1.00, 0.00, -0.00, -1.00, 369.9, 9.0)">h</text><text xml:space="preserve" font-family="Helvetica-Light" font-size="30.0" fill="#4C5B69" transform="matrix(1.00, 0.00, -0.00, -1.00, 386.6, 9.0)">i</text><text xml:space="preserve" font-family="Helvetica-Light" font-size="30.0" fill="#4C5B69" transform="matrix(1.00, 0.00, -0.00, -1.00, 393.2, 9.0)">n</text><text xml:space="preserve" font-family="Helvetica-Light" font-size="30.0" fill="#4C5B69" transform="matrix(1.00, 0.00, -0.00, -1.00, 409.9, 9.0)"> </text><text xml:space="preserve" font-family="Helvetica-Light" font-size="30.0" fill="#4C5B69" transform="matrix(1.00, 0.00, -0.00, -1.00, 418.3, 9.0)">t</text><text xml:space="preserve" font-family="Helvetica-Light" font-size="30.0" fill="#4C5B69" transform="matrix(1.00, 0.00, -0.00, -1.00, 426.6, 9.0)">h</text><text xml:space="preserve" font-family="Helvetica-Light" font-size="30.0" fill="#4C5B69" transform="matrix(1.00, 0.00, -0.00, -1.00, 443.3, 9.0)">e</text><text xml:space="preserve" font-family="Helvetica-Light" font-size="30.0" fill="#4C5B69" transform="matrix(1.00, 0.00, -0.00, -1.00, 460.0, 9.0)"> </text><text xml:space="preserve" font-family="Helvetica-Light" font-size="30.0" fill="#4C5B69" transform="matrix(1.00, 0.00, -0.00, -1.00, 468.3, 9.0)">s</text><text xml:space="preserve" font-family="Helvetica-Light" font-size="30.0" fill="#4C5B69" transform="matrix(1.00, 0.00, -0.00, -1.00, 483.3, 9.0)">a</text><text xml:space="preserve" font-family="Helvetica-Light" font-size="30.0" fill="#4C5B69" transform="matrix(1.00, 0.00, -0.00, -1.00, 500.0, 9.0)">m</text><text xml:space="preserve" font-family="Helvetica-Light" font-size="30.0" fill="#4C5B69" transform="matrix(1.00, 0.00, -0.00, -1.00, 525.0, 9.0)">e</text><text xml:space="preserve" font-family="Helvetica-Light" font-size="30.0" fill="#4C5B69" transform="matrix(1.00, 0.00, -0.00, -1.00, 541.6, 9.0)"> </text><text xml:space="preserve" font-family="Helvetica-Light" font-size="30.0" fill="#4C5B69" transform="matrix(1.00, 0.00, -0.00, -1.00, 550.0, 9.0)">h</text><text xml:space="preserve" font-family="Helvetica-Light" font-size="30.0" fill="#4C5B69" transform="matrix(1.00, 0.00, -0.00, -1.00, 566.7, 9.0)">-</text><text xml:space="preserve" font-family="Helvetica-Light" font-size="30.0" fill="#4C5B69" transform="matrix(1.00, 0.00, -0.00, -1.00, 576.6, 9.0)">i</text><text xml:space="preserve" font-family="Helvetica-Light" font-size="30.0" fill="#4C5B69" transform="matrix(1.00, 0.00, -0.00, -1.00, 583.3, 9.0)">n</text><text xml:space="preserve" font-family="Helvetica-Light" font-size="30.0" fill="#4C5B69" transform="matrix(1.00, 0.00, -0.00, -1.00, 600.0, 9.0)">d</text><text xml:space="preserve" font-family="Helvetica-Light" font-size="30.0" fill="#4C5B69" transform="matrix(1.00, 0.00, -0.00, -1.00, 618.3, 9.0)">e</text><text xml:space="preserve" font-family="Helvetica-Light" font-size="30.0" fill="#4C5B69" transform="matrix(1.00, 0.00, -0.00, -1.00, 635.0, 9.0)">x</text><text xml:space="preserve" font-family="Helvetica-Light" font-size="30.0" fill="#4C5B69" transform="matrix(1.00, 0.00, -0.00, -1.00, 650.0, 9.0)"> </text><text xml:space="preserve" font-family="Helvetica-Light" font-size="30.0" fill="#4C5B69" transform="matrix(1.00, 0.00, -0.00, -1.00, 658.3, 9.0)">t</text><text xml:space="preserve" font-family="Helvetica-Light" font-size="30.0" fill="#4C5B69" transform="matrix(1.00, 0.00, -0.00, -1.00, 666.7, 9.0)">o</text><text xml:space="preserve" font-family="Helvetica-Light" font-size="30.0" fill="#4C5B69" transform="matrix(1.00, 0.00, -0.00, -1.00, 683.4, 9.0)">o</text><text xml:space="preserve" font-family="Helvetica-Light" font-size="30.0" fill="#4C5B69" transform="matrix(1.00, 0.00, -0.00, -1.00, 700.0, 9.0)">l</text><text xml:space="preserve" font-family="Helvetica-Light" font-size="30.0" fill="#4C5B69" transform="matrix(1.00, 0.00, -0.00, -1.00, 706.7, 9.0)"> </text></g></svg>