<?xml version="1.0" encoding="UTF-8" standalone="no"?><svg xmlns="http://www.w3.org/2000/svg" xmlns:xlink="http://www.w3.org/1999/xlink" clip-rule="evenodd" stroke-miterlimit="4.00" viewBox="0 0 400 41"><desc>SVG generated by Keynote</desc><defs></defs><g transform="matrix(1.00, 0.00, -0.00, -1.00, 0.0, 41.0)"><text xml:space="preserve" font-family="HelveticaNeue-Medium" font-size="50.0" fill="#4C5B69" transform="matrix(1.00, 0.00, -0.00, -1.00, -2.0, 3.0)">I</text><text xml:space="preserve" font-family="HelveticaNeue-Medium" font-size="50.0" fill="#4C5B69" transform="matrix(1.00, 0.00, -0.00, -1.00, 11.9, 3.0)">M</text><text xml:space="preserve" font-family="HelveticaNeue-Medium" font-size="50.0" fill="#4C5B69" transform="matrix(1.00, 0.00, -0.00, -1.00, 56.4, 3.0)">P</text><text xml:space="preserve" font-family="HelveticaNeue-Medium" font-size="50.0" fill="#4C5B69" transform="matrix(1.00, 0.00, -0.00, -1.00, 86.0, 3.0)">A</text><text xml:space="preserve" font-family="HelveticaNeue-Medium" font-size="50.0" fill="#4C5B69" transform="matrix(1.00, 0.00, -0.00, -1.00, 119.3, 3.0)">C</text><text xml:space="preserve" font-family="HelveticaNeue-Medium" font-size="50.0" fill="#4C5B69" transform="matrix(1.00, 0.00, -0.00, -1.00, 155.4, 3.0)">T</text><text xml:space="preserve" font-family="HelveticaNeue-Medium" font-size="50.0" fill="#4C5B69" transform="matrix(1.00, 0.00, -0.00, -1.00, 185.1, 3.0)"> </text><text xml:space="preserve" font-family="HelveticaNeue-Medium" font-size="50.0" fill="#4C5B69" transform="matrix(1.00, 0.00, -0.00, -1.00, 199.0, 3.0)">F</text><text xml:space="preserve" font-family="HelveticaNeue-Medium" font-size="50.0" fill="#4C5B69" transform="matrix(1.00, 0.00, -0.00, -1.00, 225.9, 3.0)">A</text><text xml:space="preserve" font-family="HelveticaNeue-Medium" font-size="50.0" fill="#4C5B69" transform="matrix(1.00, 0.00, -0.00, -1.00, 259.2, 3.0)">C</text><text xml:space="preserve" font-family="HelveticaNeue-Medium" font-size="50.0" fill="#4C5B69" transform="matrix(1.00, 0.00, -0.00, -1.00, 295.4, 3.0)">T</text><text xml:space="preserve" font-family="HelveticaNeue-Medium" font-size="50.0" fill="#4C5B69" transform="matrix(1.00, 0.00, -0.00, -1.00, 325.0, 3.0)">O</text><text xml:space="preserve" font-family="HelveticaNeue-Medium" font-size="50.0" fill="#4C5B69" transform="matrix(1.00, 0.00, -0.00, -1.00, 363.0, 3.0)">R</text></g></svg>