<?xml version="1.0" encoding="UTF-8" standalone="no"?><svg xmlns="http://www.w3.org/2000/svg" xmlns:xlink="http://www.w3.org/1999/xlink" clip-rule="evenodd" stroke-miterlimit="4.00" viewBox="0 0 326 133"><desc>SVG generated by Keynote</desc><defs></defs><g transform="matrix(1.00, 0.00, -0.00, -1.00, 0.0, 133.0)"><g><clipPath id="clip-269"><path d="M 302.1 132.3 L 251.7 107.7 L 275.5 59.1 L 325.9 83.6 Z M 302.1 132.3 "></path></clipPath><g clip-path="url(#clip-269)"><path d="M 0.0 50.3 L 2.7 0.0 L 52.3 9.1 " fill="none" stroke="#000000" stroke-width="3.00" transform="matrix(-0.90, -0.44, 0.44, -0.90, 301.1, 128.7)"></path></g></g><g><clipPath id="clip-270"><path d="M 183.3 32.4 L 300.4 32.4 L 300.4 126.7 L 183.3 126.7 Z M 183.3 32.4 "></path></clipPath><g clip-path="url(#clip-270)"><path d="M 113.2 87.3 C 90.4 93.9 66.0 91.0 45.4 79.1 C 17.3 63.0 -0.0 32.7 0.0 0.0 " fill="none" stroke="#000000" stroke-width="3.00" transform="matrix(-1.00, 0.00, 0.00, -1.00, 297.9, 125.7)"></path></g></g><g><clipPath id="clip-271"><path d="M -13.0 -23.8 L 189.5 -23.8 L 189.5 94.9 L -13.0 94.9 Z M -13.0 -23.8 "></path></clipPath><g clip-path="url(#clip-271)"><text xml:space="preserve" font-family="FoxAndBear-Regular" font-size="60.0" fill="#B62020" transform="matrix(1.00, 0.00, -0.00, -1.00, 5.0, 15.0)">R</text><text xml:space="preserve" font-family="FoxAndBear-Regular" font-size="60.0" fill="#B62020" transform="matrix(1.00, 0.00, -0.00, -1.00, 21.6, 15.0)">e</text><text xml:space="preserve" font-family="FoxAndBear-Regular" font-size="60.0" fill="#B62020" transform="matrix(1.00, 0.00, -0.00, -1.00, 37.5, 15.0)">s</text><text xml:space="preserve" font-family="FoxAndBear-Regular" font-size="60.0" fill="#B62020" transform="matrix(1.00, 0.00, -0.00, -1.00, 51.4, 15.0)">e</text><text xml:space="preserve" font-family="FoxAndBear-Regular" font-size="60.0" fill="#B62020" transform="matrix(1.00, 0.00, -0.00, -1.00, 67.4, 15.0)">a</text><text xml:space="preserve" font-family="FoxAndBear-Regular" font-size="60.0" fill="#B62020" transform="matrix(1.00, 0.00, -0.00, -1.00, 85.4, 15.0)">r</text><text xml:space="preserve" font-family="FoxAndBear-Regular" font-size="60.0" fill="#B62020" transform="matrix(1.00, 0.00, -0.00, -1.00, 102.0, 15.0)">c</text><text xml:space="preserve" font-family="FoxAndBear-Regular" font-size="60.0" fill="#B62020" transform="matrix(1.00, 0.00, -0.00, -1.00, 120.1, 15.0)">h</text><text xml:space="preserve" font-family="FoxAndBear-Regular" font-size="60.0" fill="#B62020" transform="matrix(1.00, 0.00, -0.00, -1.00, 138.0, 15.0)">e</text><text xml:space="preserve" font-family="FoxAndBear-Regular" font-size="60.0" fill="#B62020" transform="matrix(1.00, 0.00, -0.00, -1.00, 154.0, 15.0)">r</text></g></g></g></svg>